<ttFont>
        <CharString name=".notdef">
          -376 endchar
        </CharString>
        <CharString name="A">
          55 21 -21 147 100.5 271.5 124 hstem
          -20 559 vstem
          539 hmoveto
          -111 643 rlineto
          -157 hlineto
          -291 -643 rlineto
          130 hlineto
          29 90 24 56 107 2 121 -2 9 -63 6 -83 rlineto
          -30 248 rmoveto
          -85 -1 -82 2 118 270 rlineto
          9 hlineto
          endchar
        </CharString>
        <CharString name="AE">
          270 0 103 436 104 -10 10 hstemhm
          381.5 126 -125 127.5 194 8.5 hintmask 11001100
          774 99 rmoveto
          -7 10 rlineto
          hintmask 11010100
          -160 -6 rlineto
          -100 hlineto
          1 153 204 48 1 93 -9 8 rlineto
          hintmask 11001100
          -195 -49 2 183 rlineto
          85 hlineto
          151 -5 rlineto
          hintmask 10101100
          21 99 -6 10 rlineto
          hintmask 11010100
          -427 hlineto
          -380 -643 rlineto
          131 hlineto
          39 90 45 78 212 55 -1 -140 -5 -83 rlineto
          377 hlineto
          hintmask 11001100
          -371 323 rmoveto
          -143 -37 136 233 rlineto
          8 hlineto
          endchar
        </CharString>
        <CharString name="AEacute">
          270 0 103 436 104 -10 10 hstemhm
          381.5 126.5 -124.5 127.5 194 8.5 hintmask 11001100
          459 721 rmoveto
          13 -4 70 24 68 24 76 30 rlinecurve
          4 12 -33 77 -12 3 -70 -41 -65 -35 -72 -36 rlinecurve
          336 -676 rmoveto
          -7 10 -159 -6 rlineto
          hintmask 11010100
          -101 hlineto
          2 153 204 48 1 93 -9 8 rlineto
          hintmask 11001100
          -195 -49 2 183 rlineto
          84 hlineto
          151 -5 rlineto
          hintmask 10101100
          22 99 -7 10 rlineto
          hintmask 11010100
          -427 hlineto
          -380 -643 rlineto
          131 hlineto
          40 90 45 78 211 56 -1 -141 -5 -83 rlineto
          377 hlineto
          hintmask 11001100
          -370 323 rmoveto
          -143 -37 135 233 rlineto
          9 hlineto
          endchar
        </CharString>
        <CharString name="Aacute">
          55 21 -21 147 100.5 271.5 124 hstem
          -19 559 vstem
          266 721 rmoveto
          13 -4 70 24 68 24 76 30 rlinecurve
          4 12 -33 77 -12 3 -70 -41 -65 -35 -72 -36 rlinecurve
          295 -775 rmoveto
          -111 643 rlineto
          -157 hlineto
          -291 -643 rlineto
          130 hlineto
          28 90 24 56 107 2 122 -2 9 -63 6 -83 rlineto
          -30 248 rmoveto
          -86 -1 -82 2 119 270 rlineto
          9 hlineto
          endchar
        </CharString>
        <CharString name="Abreve">
          55 21 -21 147 100.5 271.5 124 78 90 hstem
          -19 559 vstem
          360 721 rmoveto
          70 52 37 68 31 hvcurveto
          -25 41 rlineto
          -19 hlineto
          -36 -21 -38 -20 -46 hhcurveto
          -47 -35 20 36 -13 hvcurveto
          -19 hlineto
          -35 -41 rlineto
          -68 17 52 -37 76 hhcurveto
          180 -721 rmoveto
          -111 643 rlineto
          -157 hlineto
          -291 -643 rlineto
          130 hlineto
          28 90 24 56 107 2 122 -2 9 -63 6 -83 rlineto
          -30 248 rmoveto
          -86 -1 -82 2 119 270 rlineto
          9 hlineto
          endchar
        </CharString>
        <CharString name="Abreveacute">
          55 21 -21 147 100.5 271.5 124 58 90 hstem
          -19 559 vstem
          356 836 rmoveto
          11 2 38 35 37 36 36 36 rlinecurve
          -2 11 -59 39 -10 -2 -30 -43 -30 -41 -31 -41 rlinecurve
          46 -167 rmoveto
          70 52 37 68 31 hvcurveto
          -25 41 rlineto
          -18 hlineto
          -36 -22 -37 -20 -47 hhcurveto
          -47 -34 20 36 -13 hvcurveto
          -19 hlineto
          -36 -41 rlineto
          -68 17 52 -37 76 hhcurveto
          178 -701 rmoveto
          -111 643 rlineto
          -157 hlineto
          -291 -643 rlineto
          130 hlineto
          28 90 24 56 107 2 122 -2 9 -63 6 -83 rlineto
          -30 248 rmoveto
          -86 -1 -82 2 119 270 rlineto
          9 hlineto
          endchar
        </CharString>
        <CharString name="Abrevedotbelow">
          55 -195 139 77 -21 147 100.5 271.5 124 78 90 hstem
          183 136 vstem
          360 721 rmoveto
          70 52 37 68 31 hvcurveto
          -25 41 rlineto
          -19 hlineto
          -36 -21 -38 -20 -46 hhcurveto
          -47 -35 20 36 -13 hvcurveto
          -19 hlineto
          -35 -41 rlineto
          -68 17 52 -37 76 hhcurveto
          180 -721 rmoveto
          -111 643 rlineto
          -157 hlineto
          -291 -643 rlineto
          130 hlineto
          28 90 24 56 107 2 122 -2 9 -63 6 -83 rlineto
          -30 248 rmoveto
          -86 -1 -82 2 119 270 rlineto
          9 hlineto
          -83 -575 rmoveto
          -44 -27 -28 -44 -42 23 -25 43 43 27 28 45 41 -24 25 -41 hvcurveto
          endchar
        </CharString>
        <CharString name="Abrevegrave">
          55 21 -21 147 100.5 271.5 124 57 90 hstem
          -19 559 vstem
          377 836 rmoveto
          41 32 -32 41 -30 41 -30 43 rlinecurve
          -10 2 -60 -39 -1 -11 36 -36 37 -36 38 -35 rlinecurve
          -3 -138 rmoveto
          70 52 37 68 31 hvcurveto
          -25 41 rlineto
          -19 hlineto
          -35 -21 -38 -21 -46 hhcurveto
          -47 -35 20 36 -13 hvcurveto
          -19 hlineto
          -35 -41 rlineto
          -68 17 52 -37 76 hhcurveto
          177 -700 rmoveto
          -111 643 rlineto
          -157 hlineto
          -291 -643 rlineto
          130 hlineto
          28 90 24 56 107 2 122 -2 9 -63 6 -83 rlineto
          -30 248 rmoveto
          -86 -1 -82 2 119 270 rlineto
          9 hlineto
          endchar
        </CharString>
        <CharString name="Abrevehookabove">
          55 21 -21 147 100.5 271.5 124 58 91 197 61 hstem
          373 70 vstem
          345 989 rmoveto
          16 12 -7 -15 -19 -19 -27 -33 -24 hvcurveto
          42 -66 47 28 -23 38 rlineto
          41 35 15 21 27 vvcurveto
          41 -35 29 -44 -37 -38 -20 -31 -29 vhcurveto
          22 -35 rlineto
          16 19 25 9 19 hhcurveto
          17 -288 rmoveto
          70 52 38 67 31 hvcurveto
          -25 42 rlineto
          -18 hlineto
          -36 -22 -37 -20 -47 hhcurveto
          -47 -34 19 37 -13 hvcurveto
          -19 hlineto
          -36 -42 rlineto
          -67 17 52 -38 76 hhcurveto
          178 -701 rmoveto
          -111 643 rlineto
          -157 hlineto
          -291 -643 rlineto
          130 hlineto
          28 90 24 56 107 2 122 -2 9 -63 6 -83 rlineto
          -30 248 rmoveto
          -86 -1 -82 2 119 270 rlineto
          9 hlineto
          endchar
        </CharString>
        <CharString name="Abrevetilde">
          55 21 -21 147 100.5 271.5 124 57 86 hstem
          -19 567 vstem
          548 983 rmoveto
          -35 36 rlineto
          -11 hlineto
          -26 -23 -16 -23 -19 hhcurveto
          -23 -76 28 6 -43 hvcurveto
          -12 -5 -64 -81 rlineto
          -11 vlineto
          36 -36 rlineto
          10 hlineto
          25 22 17 23 18 hhcurveto
          25 75 -28 -6 43 hvcurveto
          12 5 64 83 rlineto
          -70 -133 rmoveto
          -18 hlineto
          -35 -20 -36 -19 -45 hhcurveto
          -44 -33 19 35 -13 hvcurveto
          -18 hlineto
          -34 -40 rlineto
          -64 17 49 -36 72 hhcurveto
          67 50 36 64 30 hvcurveto
          -73 -157 rmoveto
          -157 hlineto
          -291 -643 rlineto
          130 hlineto
          28 90 24 56 107 2 122 -2 9 -63 6 -83 rlineto
          133 hlineto
          -163 248 rmoveto
          -86 -1 -82 2 119 270 rlineto
          9 hlineto
          endchar
        </CharString>
        <CharString name="Acaron">
          55 21 -21 147 100.5 271.5 124 hstem
          -19 559 vstem
          369 719 rmoveto
          42 36 47 34 51 33 -17 52 rcurveline
          -14 hlineto
          -40 -21 -40 -21 -38 -22 -34 22 -32 21 -34 21 rrcurveto
          -12 hlineto
          -31 -52 45 -33 42 -34 38 -36 rlinecurve
          198 -719 rmoveto
          -111 643 rlineto
          -157 hlineto
          -291 -643 rlineto
          130 hlineto
          28 90 24 56 107 2 122 -2 9 -63 6 -83 rlineto
          -30 248 rmoveto
          -86 -1 -82 2 119 270 rlineto
          9 hlineto
          endchar
        </CharString>
        <CharString name="Acircumflex">
          55 21 -21 147 100.5 271.5 124 hstem
          -19 559 vstem
          236 727 rmoveto
          13 hlineto
          39 21 41 21 39 22 33 -22 32 -21 34 -21 rrcurveto
          13 hlineto
          30 52 -45 33 -42 34 -37 36 rlinecurve
          -28 hlineto
          -42 -36 -47 -34 -51 -33 rrcurveto
          322 -779 rmoveto
          -111 643 rlineto
          -157 hlineto
          -291 -643 rlineto
          130 hlineto
          28 90 24 56 107 2 122 -2 9 -63 6 -83 rlineto
          -30 248 rmoveto
          -86 -1 -82 2 119 270 rlineto
          9 hlineto
          endchar
        </CharString>
        <CharString name="Acircumflexacute">
          55 21 -21 147 100.5 271.5 124 hstem
          -19 584 vstem
          462 832 rmoveto
          9 hlineto
          94 121 -3 10 -64 29 -10 -4 -70 -123 rlineto
          -187 -157 rmoveto
          13 hlineto
          39 21 41 21 38 22 34 -22 31 -21 35 -21 rrcurveto
          13 hlineto
          30 52 -45 33 -43 34 -37 36 rlinecurve
          -27 hlineto
          -42 -36 -47 -34 -51 -33 rrcurveto
          216 -117 rmoveto
          -157 hlineto
          -291 -643 rlineto
          130 hlineto
          28 90 24 56 107 2 122 -2 9 -63 6 -83 rlineto
          133 hlineto
          -163 248 rmoveto
          -86 -1 -82 2 119 270 rlineto
          9 hlineto
          endchar
        </CharString>
        <CharString name="Acircumflexdotbelow">
          55 -195 139 77 -21 147 100.5 271.5 124 hstem
          183 136 vstem
          236 727 rmoveto
          13 hlineto
          39 21 41 21 39 22 33 -22 32 -21 34 -21 rrcurveto
          13 hlineto
          30 52 -45 33 -42 34 -37 36 rlinecurve
          -28 hlineto
          -42 -36 -47 -34 -51 -33 rrcurveto
          322 -779 rmoveto
          -111 643 rlineto
          -157 hlineto
          -291 -643 rlineto
          130 hlineto
          28 90 24 56 107 2 122 -2 9 -63 6 -83 rlineto
          -30 248 rmoveto
          -86 -1 -82 2 119 270 rlineto
          9 hlineto
          -83 -575 rmoveto
          -44 -27 -28 -44 -42 23 -25 43 43 27 28 45 41 -24 25 -41 hvcurveto
          endchar
        </CharString>
        <CharString name="Acircumflexgrave">
          55 21 -21 147 100.5 271.5 124 hstem
          -19 559 vstem
          467 832 rmoveto
          9 hlineto
          44 33 -70 123 -9 4 -66 -29 -2 -10 rlineto
          -142 -246 rmoveto
          13 hlineto
          39 21 41 21 38 22 34 -22 31 -21 35 -21 rrcurveto
          13 hlineto
          30 52 -45 33 -43 34 -37 36 rlinecurve
          -27 hlineto
          -42 -36 -47 -34 -51 -33 rrcurveto
          327 -759 rmoveto
          -111 643 rlineto
          -157 hlineto
          -291 -643 rlineto
          130 hlineto
          28 90 24 56 107 2 122 -2 9 -63 6 -83 rlineto
          -30 248 rmoveto
          -86 -1 -82 2 119 270 rlineto
          9 hlineto
          endchar
        </CharString>
        <CharString name="Acircumflexhookabove">
          55 21 -21 147 100.5 271.5 124 336 57 hstem
          468 66 vstem
          441 979 rmoveto
          15 12 -7 -14 -18 -19 -27 -30 -22 hvcurveto
          39 -63 45 27 -21 36 rlineto
          38 34 14 20 24 vvcurveto
          40 -33 27 -42 -34 -37 -18 -29 -28 vhcurveto
          21 -34 rlineto
          15 19 23 9 18 hhcurveto
          -211 -271 rmoveto
          13 hlineto
          39 21 41 21 39 22 33 -22 32 -21 34 -21 rrcurveto
          13 hlineto
          30 52 -45 33 -42 34 -37 36 rlinecurve
          -28 hlineto
          -42 -36 -47 -34 -51 -33 rrcurveto
          328 -760 rmoveto
          -111 643 rlineto
          -157 hlineto
          -291 -643 rlineto
          130 hlineto
          28 90 24 56 107 2 122 -2 9 -63 6 -83 rlineto
          -30 248 rmoveto
          -86 -1 -82 2 119 270 rlineto
          9 hlineto
          endchar
        </CharString>
        <CharString name="Acircumflextilde">
          55 21 -21 147 100.5 271.5 124 hstem
          -19 577 vstem
          558 981 rmoveto
          -35 36 rlineto
          -11 hlineto
          -26 -23 -16 -23 -18 hhcurveto
          -24 -76 28 6 -43 hvcurveto
          -12 -5 -64 -81 rlineto
          -11 vlineto
          36 -36 rlineto
          10 hlineto
          25 22 17 23 18 hhcurveto
          25 76 -28 -6 43 hvcurveto
          11 5 64 83 rlineto
          -187 -199 rmoveto
          33 -22 32 -20 34 -22 rrcurveto
          13 hlineto
          30 53 -45 33 -42 34 -37 35 rlinecurve
          -28 hlineto
          -42 -35 -46 -34 -52 -33 18 -53 rcurveline
          13 hlineto
          39 22 41 20 39 22 rrcurveto
          58 -129 rmoveto
          -157 hlineto
          -291 -643 rlineto
          130 hlineto
          28 90 24 56 107 2 122 -2 9 -63 6 -83 rlineto
          133 hlineto
          -163 248 rmoveto
          -86 -1 -82 2 119 270 rlineto
          9 hlineto
          endchar
        </CharString>
        <CharString name="Adieresis">
          55 21 -21 147 100.5 271.5 124 90 126 hstem
          214 123 52 122 vstem
          274 733 rmoveto
          39 24 25 41 37 -22 23 -36 -40 -25 -25 -40 -39 21 -22 39 hvcurveto
          174 -1 rmoveto
          39 24 26 40 37 -21 23 -37 -40 -24 -25 -40 -39 21 -22 38 hvcurveto
          92 -732 rmoveto
          -111 643 rlineto
          -157 hlineto
          -291 -643 rlineto
          130 hlineto
          28 90 24 56 107 2 122 -2 9 -63 6 -83 rlineto
          -30 248 rmoveto
          -86 -1 -82 2 119 270 rlineto
          9 hlineto
          endchar
        </CharString>
        <CharString name="Adotbelow">
          55 -195 139 77 -21 147 100.5 271.5 124 hstem
          183 136 vstem
          540 hmoveto
          -111 643 rlineto
          -157 hlineto
          -291 -643 rlineto
          130 hlineto
          28 90 24 56 107 2 122 -2 9 -63 6 -83 rlineto
          -30 248 rmoveto
          -86 -1 -82 2 119 270 rlineto
          9 hlineto
          -83 -575 rmoveto
          -44 -27 -28 -44 -42 23 -25 43 43 27 28 45 41 -24 25 -41 hvcurveto
          endchar
        </CharString>
        <CharString name="Agrave">
          55 21 -21 147 100.5 271.5 124 hstem
          -19 559 vstem
          469 722 rmoveto
          21 55 -72 36 -66 35 -69 41 rlinecurve
          -12 -3 -33 -77 4 -12 76 -30 68 -24 70 -25 rlinecurve
          84 -718 rmoveto
          -111 643 rlineto
          -157 hlineto
          -291 -643 rlineto
          130 hlineto
          28 90 24 56 107 2 122 -2 9 -63 6 -83 rlineto
          -30 248 rmoveto
          -86 -1 -82 2 119 270 rlineto
          9 hlineto
          endchar
        </CharString>
        <CharString name="Ahookabove">
          55 21 -21 147 100.5 271.5 124 214 61 hstem
          355 70 vstem
          327 857 rmoveto
          16 12 -7 -15 -18 -19 -28 -32 -24 hvcurveto
          41 -65 47 27 -22 38 rlineto
          40 35 15 21 27 vvcurveto
          41 -34 29 -45 -36 -39 -19 -31 -29 vhcurveto
          22 -35 rlineto
          16 20 24 8 19 hhcurveto
          213 -857 rmoveto
          -111 643 rlineto
          -157 hlineto
          -291 -643 rlineto
          130 hlineto
          28 90 24 56 107 2 122 -2 9 -63 6 -83 rlineto
          -30 248 rmoveto
          -86 -1 -82 2 119 270 rlineto
          9 hlineto
          endchar
        </CharString>
        <CharString name="Amacron">
          55 21 -21 147 100.5 271.5 124 113 82 hstem
          -19 559 vstem
          224 756 rmoveto
          280 hlineto
          7 73 -9 9 rlineto
          -280 hlineto
          -7 -73 rlineto
          325 -765 rmoveto
          -111 643 rlineto
          -157 hlineto
          -291 -643 rlineto
          130 hlineto
          28 90 24 56 107 2 122 -2 9 -63 6 -83 rlineto
          -30 248 rmoveto
          -86 -1 -82 2 119 270 rlineto
          9 hlineto
          endchar
        </CharString>
        <CharString name="Aogonek">
          55 -196 74 143 -21 147 100.5 271.5 124 hstemhm
          351 173.5 hintmask 00000000
          hintmask 11111000
          523 -90 rmoveto
          -7 hlineto
          -20 -22 -21 -12 -19 hhcurveto
          -17 -10 8 19 20 10 23 45 52 hvcurveto
          58 hlineto
          -111 643 rlineto
          -157 hlineto
          -291 -643 rlineto
          130 hlineto
          28 90 24 56 107 2 122 -2 9 -63 6 -83 rlineto
          -1 hlineto
          -43 -58 -12 -29 -30 vvcurveto
          -49 31 -30 47 33 30 17 31 34 vhcurveto
          -149 396 rmoveto
          -86 -1 -82 2 119 270 rlineto
          9 hlineto
          endchar
        </CharString>
        <CharString name="Aring">
          55 21 -21 147 100.5 271.5 124 70 55 78 56 hstem
          270 54 82 54 vstem
          362 713 rmoveto
          59 39 35 63 56 -32 35 -61 -63 -34 -35 -60 -61 35 -33 57 hvcurveto
          2 133 rmoveto
          29 13 -15 -25 -26 -15 -12 -26 -27 -14 13 28 24 12 13 28 hvcurveto
          176 -846 rmoveto
          -111 643 rlineto
          -157 hlineto
          -291 -643 rlineto
          130 hlineto
          28 90 24 56 107 2 122 -2 9 -63 6 -83 rlineto
          -30 248 rmoveto
          -86 -1 -82 2 119 270 rlineto
          9 hlineto
          endchar
        </CharString>
        <CharString name="Aringacute">
          69 21 -21 144.5 98 400.5 -20 98 55 hstem
          270 54 82 54 vstem
          275 796 rmoveto
          13 -6 72 14 71 14 80 18 rlinecurve
          5 11 -21 81 -11 5 -76 -30 -69 -25 -76 -25 rlinecurve
          290 -853 rmoveto
          -118 615 rlineto
          16 17 9 24 30 vvcurveto
          55 -32 35 -61 -63 -34 -35 -59 -25 6 -21 11 -15 vhcurveto
          -293 -621 rlineto
          130 hlineto
          27 88 24 55 108 3 121 -3 10 -63 6 -80 rlineto
          -56 721 rmoveto
          29 13 -15 -25 -27 -15 -11 -26 -27 -14 12 28 25 12 13 28 hvcurveto
          25 -478 rmoveto
          -85 -1 -84 1 119 265 rlineto
          9 hlineto
          endchar
        </CharString>
        <CharString name="Atilde">
          55 21 -21 147 100.5 271.5 124 hstem
          -19 559 vstem
          228 720 rmoveto
          12 hlineto
          27 24 17 25 20 hhcurveto
          26 83 -30 -6 46 hvcurveto
          12 5 70 88 rlineto
          11 vlineto
          -39 38 rlineto
          -11 hlineto
          -27 -25 -17 -24 -20 hhcurveto
          -26 -82 29 6 -47 hvcurveto
          -12 -4 -70 -88 rlineto
          -11 vlineto
          351 -759 rmoveto
          -111 643 rlineto
          -157 hlineto
          -291 -643 rlineto
          130 hlineto
          28 90 24 56 107 2 122 -2 9 -63 6 -83 rlineto
          -30 248 rmoveto
          -86 -1 -82 2 119 270 rlineto
          9 hlineto
          endchar
        </CharString>
        <CharString name="B">
          37 -5 95 -69 -21 277 92.5 179.5 95 hstemhm
          395 134 -130 137 hintmask 10111000
          421 334 rmoveto
          hintmask 01110100
          75 32 40 61 76 vvcurveto
          94 -75 47 -116 vhcurveto
          -216 -1 -49 -451 -31 -192 rlineto
          1 hlineto
          hintmask 10111000
          -3 50 86 -2 36 hhcurveto
          211 96 71 133 68 -32 40 -76 27 hvcurveto
          -199 37 rmoveto
          25 178 rlineto
          50 hlineto
          hintmask 10110100
          76 26 -20 -49 -62 -29 -35 -58 -15 hvcurveto
          hintmask 10111000
          -58 -278 rmoveto
          -16 -26 2 2 -25 hvcurveto
          11 110 10 72 108 2 rlineto
          52 -10 27 -24 -46 vvcurveto
          -68 -51 -40 -90 vhcurveto
          endchar
        </CharString>
        <CharString name="C">
          -21 -9 111 441 108 hstem
          37 140 vstem
          376 651 rmoveto
          -216 -123 -147 -245 -171 91 -97 165 55 46 11 24 53 hvcurveto
          25 113 -11 7 rlineto
          -28 -45 -56 -16 -48 hhcurveto
          -88 -47 60 118 172 63 91 122 50 46 -18 -28 35 hvcurveto
          11 4 37 112 rlineto
          24 -44 -58 14 -63 hhcurveto
          endchar
        </CharString>
        <CharString name="C.ss01">
          -87 0 48 -48 100 306 99 -48 48 hstemhm
          37 125 hintmask 00000000
          hintmask 10101000
          296 406 rmoveto
          40 38 -13 -21 26 hvcurveto
          11 4 rlineto
          hintmask 10011000
          26 81 rlineto
          129 hlineto
          7 48 rlineto
          -636 hlineto
          -6 -48 rlineto
          221 hlineto
          -74 -48 -41 -86 -116 vvcurveto
          -70 20 -54 40 -35 vhcurveto
          -217 hlineto
          -6 -48 rlineto
          636 hlineto
          6 48 rlineto
          -143 hlineto
          hintmask 01011000
          17 77 -10 6 rlineto
          -19 -33 -46 -12 -36 hhcurveto
          -68 -35 42 84 hvcurveto
          hintmask 10101000
          122 44 58 90 vhcurveto
          endchar
        </CharString>
        <CharString name="Cacute">
          -21 -9 111 441 108 hstem
          37 141 vstem
          459 884 rmoveto
          -12 3 -70 -41 -65 -35 -72 -36 rlinecurve
          21 -54 13 -4 70 24 68 24 76 30 rlinecurve
          4 12 rlineto
          -116 -156 rmoveto
          -216 -123 -147 -245 -171 91 -97 165 55 46 11 24 54 hvcurveto
          24 113 -11 7 rlineto
          -28 -45 -56 -16 -48 hhcurveto
          -88 -46 60 118 172 62 91 122 51 45 -18 -28 35 hvcurveto
          11 4 37 112 rlineto
          24 -44 -58 14 -63 hhcurveto
          endchar
        </CharString>
        <CharString name="Ccaron">
          -21 -9 111 441 108 hstem
          37 141 vstem
          487 874 rmoveto
          -14 hlineto
          -40 -21 -40 -21 -38 -22 -34 22 -32 21 -34 21 rrcurveto
          -12 hlineto
          -31 -52 45 -33 42 -34 38 -36 rlinecurve
          27 hlineto
          42 36 47 34 51 33 rrcurveto
          -128 -171 rmoveto
          -216 -123 -147 -245 -171 91 -97 165 55 46 11 24 54 hvcurveto
          24 113 -11 7 rlineto
          -28 -45 -56 -16 -48 hhcurveto
          -88 -46 60 118 172 62 91 122 51 45 -18 -28 35 hvcurveto
          11 4 37 112 rlineto
          24 -44 -58 14 -63 hhcurveto
          endchar
        </CharString>
        <CharString name="Ccedilla">
          -21 -200 56 136 110 441 108 hstem
          37 141 135 76 vstem
          376 651 rmoveto
          -216 -123 -147 -245 -160 80 -95 145 -12 hvcurveto
          -15 -66 49 -28 rlineto
          10 -5 7 -5 -10 vvcurveto
          -14 -10 -8 -15 -20 -20 12 18 -18 vhcurveto
          -6 -2 -10 -55 rlineto
          -16 21 26 -13 35 hhcurveto
          57 36 32 43 23 -10 19 -31 17 hvcurveto
          -34 19 10 39 42 4 39 11 43 19 rlinecurve
          24 113 -11 7 rlineto
          -28 -45 -56 -16 -48 hhcurveto
          -88 -46 60 118 172 62 91 122 51 45 -18 -28 35 hvcurveto
          11 4 37 112 rlineto
          24 -44 -58 14 -63 hhcurveto
          endchar
        </CharString>
        <CharString name="Ccircumflex">
          -21 -9 111 441 108 hstem
          37 141 vstem
          231 727 rmoveto
          13 hlineto
          39 21 41 21 39 22 33 -22 32 -21 34 -21 rrcurveto
          13 hlineto
          30 52 -45 33 -42 34 -37 36 rlinecurve
          -28 hlineto
          -42 -36 -47 -34 -51 -33 rrcurveto
          163 -128 rmoveto
          -216 -123 -147 -245 -171 91 -97 165 55 46 11 24 54 hvcurveto
          24 113 -11 7 rlineto
          -28 -45 -56 -16 -48 hhcurveto
          -88 -46 60 118 172 62 91 122 51 45 -18 -28 35 hvcurveto
          11 4 37 112 rlineto
          24 -44 -58 14 -63 hhcurveto
          endchar
        </CharString>
        <CharString name="Cdotaccent">
          -21 -9 111 441 108 82 139 hstem
          37 141 113 136 vstem
          362 872 rmoveto
          -44 -27 -28 -44 -42 24 -25 42 43 27 28 44 42 -24 25 -41 hvcurveto
          14 -221 rmoveto
          -216 -123 -147 -245 -171 91 -97 165 55 46 11 24 54 hvcurveto
          24 113 -11 7 rlineto
          -28 -45 -56 -16 -48 hhcurveto
          -88 -46 60 118 172 62 91 122 51 45 -18 -28 35 hvcurveto
          11 4 37 112 rlineto
          24 -44 -58 14 -63 hhcurveto
          endchar
        </CharString>
        <CharString name="D">
          113 -7 102 -74 -21 542 105 hstemhm
          489 139 hintmask 10110000
          129 643 rmoveto
          -49 -451 rlineto
          hintmask 01110000
          -31 -192 rlineto
          hintmask 10110000
          -4 64 112 -3 49 hhcurveto
          230 124 154 249 161 -93 90 -162 hvcurveto
          -70 -552 rmoveto
          -20 -53 3 5 -39 hvcurveto
          9 101 48 334 rlineto
          2 35 54 2 20 hhcurveto
          88 44 -52 -115 -192 -70 -88 -116 hvcurveto
          endchar
        </CharString>
        <CharString name="D.ss01">
          25 0 48 -48 92 312 101 -48 48 hstemhm
          397 125 hintmask 10011000
          679 457 rmoveto
          6 48 rlineto
          -748 hlineto
          -6 -48 rlineto
          176 hlineto
          -33 -305 -16 -104 rlineto
          -178 hlineto
          -6 -48 rlineto
          748 hlineto
          6 48 rlineto
          -223 hlineto
          76 50 41 90 118 vvcurveto
          67 -21 51 -40 33 vhcurveto
          -278 -294 rmoveto
          hintmask 01101000
          34 237 rlineto
          3 27 38 1 16 hhcurveto
          66 33 -35 -84 -137 -51 -56 -84 -17 -40 3 3 -28 hvcurveto
          endchar
        </CharString>
        <CharString name="Dcaron">
          113 -7 102 -74 -21 542 105 hstemhm
          488 140 hintmask 10110000
          363 719 rmoveto
          42 36 47 34 51 33 -17 52 rcurveline
          -14 hlineto
          -40 -21 -40 -21 -38 -22 -34 22 -32 21 -34 21 rrcurveto
          -12 hlineto
          -31 -52 45 -33 42 -34 38 -36 rlinecurve
          -207 -76 rmoveto
          -49 -451 rlineto
          hintmask 01110000
          -31 -192 rlineto
          hintmask 10110000
          -4 63 113 -3 49 hhcurveto
          230 124 154 249 161 -94 90 -161 hvcurveto
          -70 -552 rmoveto
          -20 -53 3 5 -39 hvcurveto
          9 101 48 334 rlineto
          2 35 54 2 20 hhcurveto
          88 43 -52 -115 -192 -70 -88 -115 hvcurveto
          endchar
        </CharString>
        <CharString name="Dcroat">
          113 -7 102 -74 -21 542 105 109 82 hstemhm
          488 140 hintmask 10111000
          218 756 rmoveto
          280 hlineto
          7 73 -9 9 rlineto
          -280 hlineto
          -7 -73 rlineto
          -80 -122 rmoveto
          -49 -451 rlineto
          hintmask 01111000
          -31 -192 rlineto
          hintmask 10111000
          -4 63 113 -3 49 hhcurveto
          230 124 154 249 161 -94 90 -161 hvcurveto
          -70 -552 rmoveto
          -20 -53 3 5 -39 hvcurveto
          9 101 48 334 rlineto
          2 35 54 2 20 hhcurveto
          88 43 -52 -115 -192 -70 -88 -115 hvcurveto
          endchar
        </CharString>
        <CharString name="Delta">
          55 0 101 418 124 hstem
          -20 559 vstem
          539 hmoveto
          -112 643 rlineto
          -156 hlineto
          -291 -643 rlineto
          346 519 rmoveto
          9 hlineto
          62 -418 rlineto
          -253 hlineto
          endchar
        </CharString>
        <CharString name="E">
          -31 0 106.5 168 104 -7.5 8.5 159 104.5 -10 10 hstemhm
          48 483 hintmask 11010100
          248 538 rmoveto
          112 1 149 -5 rlineto
          hintmask 11001100
          22 99 -6 10 rlineto
          hintmask 11010100
          -396 hlineto
          -50 -451 -31 -192 rlineto
          393 hlineto
          20 99 -5 10 -154 -5 -111 1 10 99 10 70 99 1 110 -3 rlineto
          hintmask 10110100
          22 99 -7 10 rlineto
          hintmask 11010100
          -102 -3 -107 1 rlineto
          endchar
        </CharString>
        <CharString name="Eacute">
          -31 0 104.5 -5.5 7.5 168 104 -7.5 8.5 159 104.5 -10 10 hstemhm
          48 483 hintmask 10101010
          242 721 rmoveto
          13 -4 70 24 68 24 76 30 rlinecurve
          4 12 -33 77 -12 3 -70 -41 -65 -35 -72 -36 rlinecurve
          26 -237 rmoveto
          114 1 149 -5 rlineto
          hintmask 10100110
          21 99 -6 10 rlineto
          hintmask 10101010
          -396 hlineto
          -50 -451 -31 -192 rlineto
          392 hlineto
          hintmask 01101010
          21 99 -6 10 rlineto
          hintmask 10101010
          -153 -5 -112 1 10 99 10 70 101 1 110 -3 rlineto
          hintmask 10011010
          21 99 -7 10 rlineto
          hintmask 10101010
          -102 -3 -108 1 rlineto
          endchar
        </CharString>
        <CharString name="Ebreve">
          -31 0 104.5 -5.5 7.5 168 104 -7.5 8.5 159 104.5 -10 10 78 90 hstemhm
          48 483 hintmask 10101011
          336 721 rmoveto
          70 52 37 68 31 hvcurveto
          -25 41 rlineto
          -19 hlineto
          -36 -21 -38 -20 -46 hhcurveto
          -47 -35 20 36 -13 hvcurveto
          -19 hlineto
          -35 -41 rlineto
          -68 17 52 -37 76 hhcurveto
          -89 -183 rmoveto
          114 1 149 -5 rlineto
          hintmask 10100111
          21 99 -6 10 rlineto
          hintmask 10101011
          -396 hlineto
          -50 -451 -31 -192 rlineto
          392 hlineto
          hintmask 01101011
          21 99 -6 10 rlineto
          hintmask 10101011
          -153 -5 -112 1 10 99 10 70 101 1 110 -3 rlineto
          hintmask 10011011
          21 99 -7 10 rlineto
          hintmask 10101011
          -102 -3 -108 1 rlineto
          endchar
        </CharString>
        <CharString name="Ecaron">
          -31 0 104.5 -5.5 7.5 168 104 -7.5 8.5 159 104.5 -10 10 hstemhm
          48 483 hintmask 10101010
          345 719 rmoveto
          42 36 47 34 51 33 -17 52 rcurveline
          -14 hlineto
          -40 -21 -40 -21 -38 -22 -34 22 -32 21 -34 21 rrcurveto
          -12 hlineto
          -31 -52 45 -33 42 -34 38 -36 rlinecurve
          -71 -181 rmoveto
          114 1 149 -5 rlineto
          hintmask 10100110
          21 99 -6 10 rlineto
          hintmask 10101010
          -396 hlineto
          -50 -451 -31 -192 rlineto
          392 hlineto
          hintmask 01101010
          21 99 -6 10 rlineto
          hintmask 10101010
          -153 -5 -112 1 10 99 10 70 101 1 110 -3 rlineto
          hintmask 10011010
          21 99 -7 10 rlineto
          hintmask 10101010
          -102 -3 -108 1 rlineto
          endchar
        </CharString>
        <CharString name="Ecircumflex">
          -31 0 104.5 -5.5 7.5 168 104 -7.5 8.5 159 104.5 -10 10 hstemhm
          48 483 hintmask 10101010
          213 727 rmoveto
          13 hlineto
          39 21 41 21 39 22 33 -22 32 -21 34 -21 rrcurveto
          13 hlineto
          30 52 -45 33 -42 34 -37 36 rlinecurve
          -28 hlineto
          -42 -36 -47 -34 -51 -33 rrcurveto
          52 -241 rmoveto
          114 1 149 -5 rlineto
          hintmask 10100110
          21 99 -6 10 rlineto
          hintmask 10101010
          -396 hlineto
          -50 -451 -31 -192 rlineto
          392 hlineto
          hintmask 01101010
          21 99 -6 10 rlineto
          hintmask 10101010
          -153 -5 -112 1 10 99 10 70 101 1 110 -3 rlineto
          hintmask 10011010
          21 99 -7 10 rlineto
          hintmask 10101010
          -102 -3 -108 1 rlineto
          endchar
        </CharString>
        <CharString name="Ecircumflexacute">
          -31 0 104.5 -5.5 7.5 168 104 -7.5 8.5 159 104.5 -10 10 hstemhm
          48 493 hintmask 10101010
          438 832 rmoveto
          9 hlineto
          94 121 -3 10 -64 29 -10 -4 -70 -123 rlineto
          -187 -157 rmoveto
          13 hlineto
          39 21 41 21 38 22 34 -22 31 -21 35 -21 rrcurveto
          13 hlineto
          30 52 -45 33 -43 34 -37 36 rlinecurve
          -27 hlineto
          -42 -36 -47 -34 -51 -33 rrcurveto
          336 -117 rmoveto
          -396 hlineto
          -50 -451 -31 -192 rlineto
          392 hlineto
          hintmask 01101010
          21 99 -6 10 rlineto
          hintmask 10101010
          -153 -5 -112 1 10 99 10 70 101 1 110 -3 rlineto
          hintmask 10011010
          21 99 -7 10 rlineto
          hintmask 10101010
          -102 -3 -108 1 22 159 114 1 149 -5 rlineto
          hintmask 10100110
          21 99 rlineto
          endchar
        </CharString>
        <CharString name="Ecircumflexdotbelow">
          -31 -195 139 56 104.5 -5.5 7.5 168 104 -7.5 8.5 159 104.5 -10 10 hstemhm
          199 136 hintmask 11010101
          213 727 rmoveto
          13 hlineto
          39 21 41 21 39 22 33 -22 32 -21 34 -21 rrcurveto
          13 hlineto
          30 52 -45 33 -42 34 -37 36 rlinecurve
          -28 hlineto
          -42 -36 -47 -34 -51 -33 rrcurveto
          52 -241 rmoveto
          114 1 149 -5 rlineto
          hintmask 11010011
          21 99 -6 10 rlineto
          hintmask 11010101
          -396 hlineto
          -50 -451 -31 -192 rlineto
          392 hlineto
          hintmask 10110101
          21 99 -6 10 rlineto
          hintmask 11010101
          -153 -5 -112 1 10 99 10 70 101 1 110 -3 rlineto
          hintmask 11001101
          21 99 -7 10 rlineto
          hintmask 11010101
          -102 -3 -108 1 rlineto
          45 -435 rmoveto
          -44 -27 -28 -44 -42 23 -25 43 43 27 28 45 41 -24 25 -41 hvcurveto
          endchar
        </CharString>
        <CharString name="Ecircumflexgrave">
          -31 0 104.5 -5.5 7.5 168 104 -7.5 8.5 159 104.5 -10 10 hstemhm
          48 483 hintmask 10101010
          443 832 rmoveto
          9 hlineto
          44 33 -70 123 -9 4 -66 -29 -2 -10 rlineto
          -142 -246 rmoveto
          13 hlineto
          39 21 41 21 38 22 34 -22 31 -21 35 -21 rrcurveto
          13 hlineto
          30 52 -45 33 -43 34 -37 36 rlinecurve
          -27 hlineto
          -42 -36 -47 -34 -51 -33 rrcurveto
          58 -221 rmoveto
          114 1 149 -5 rlineto
          hintmask 10100110
          21 99 -6 10 rlineto
          hintmask 10101010
          -396 hlineto
          -50 -451 -31 -192 rlineto
          392 hlineto
          hintmask 01101010
          21 99 -6 10 rlineto
          hintmask 10101010
          -153 -5 -112 1 10 99 10 70 101 1 110 -3 rlineto
          hintmask 10011010
          21 99 -7 10 rlineto
          hintmask 10101010
          -102 -3 -108 1 rlineto
          endchar
        </CharString>
        <CharString name="Ecircumflexhookabove">
          -31 0 104.5 -5.5 7.5 168 104 -7.5 8.5 159 104.5 -10 10 336 57 hstemhm
          444 66 hintmask 10101011
          417 979 rmoveto
          15 12 -7 -14 -18 -19 -27 -30 -22 hvcurveto
          39 -63 45 27 -21 36 rlineto
          38 34 14 20 24 vvcurveto
          40 -33 27 -42 -34 -37 -18 -29 -28 vhcurveto
          21 -34 rlineto
          15 19 23 9 18 hhcurveto
          -211 -271 rmoveto
          13 hlineto
          39 21 41 21 39 22 33 -22 32 -21 34 -21 rrcurveto
          13 hlineto
          30 52 -45 33 -42 34 -37 36 rlinecurve
          -28 hlineto
          -42 -36 -47 -34 -51 -33 rrcurveto
          59 -222 rmoveto
          114 1 149 -5 rlineto
          hintmask 10100111
          21 99 -6 10 rlineto
          hintmask 10101011
          -396 hlineto
          -50 -451 -31 -192 rlineto
          392 hlineto
          hintmask 01101011
          21 99 -6 10 rlineto
          hintmask 10101011
          -153 -5 -112 1 10 99 10 70 101 1 110 -3 rlineto
          hintmask 10011011
          21 99 -7 10 rlineto
          hintmask 10101011
          -102 -3 -108 1 rlineto
          endchar
        </CharString>
        <CharString name="Ecircumflextilde">
          -31 0 104.5 -5.5 7.5 168 104 -7.5 8.5 159 104.5 -10 10 hstemhm
          48 483 hintmask 10101010
          443 832 rmoveto
          9 hlineto
          44 33 -70 123 -9 4 -66 -29 -2 -10 rlineto
          -142 -246 rmoveto
          13 hlineto
          39 21 41 21 38 22 34 -22 31 -21 35 -21 rrcurveto
          13 hlineto
          30 52 -45 33 -43 34 -37 36 rlinecurve
          -27 hlineto
          -42 -36 -47 -34 -51 -33 rrcurveto
          58 -221 rmoveto
          114 1 149 -5 rlineto
          hintmask 10100110
          21 99 -6 10 rlineto
          hintmask 10101010
          -396 hlineto
          -50 -451 -31 -192 rlineto
          392 hlineto
          hintmask 01101010
          21 99 -6 10 rlineto
          hintmask 10101010
          -153 -5 -112 1 10 99 10 70 101 1 110 -3 rlineto
          hintmask 10011010
          21 99 -7 10 rlineto
          hintmask 10101010
          -102 -3 -108 1 rlineto
          endchar
        </CharString>
        <CharString name="Edieresis">
          -31 0 104.5 -5.5 7.5 168 104 -7.5 8.5 159 104.5 -10 10 90 126 hstemhm
          191 123 52 122 hintmask 1010101110000000
          251 733 rmoveto
          39 24 25 41 37 -22 23 -36 -40 -25 -25 -40 -39 21 -22 39 hvcurveto
          174 -1 rmoveto
          39 24 26 40 37 -21 23 -37 -40 -24 -25 -40 -39 21 -22 38 hvcurveto
          -178 -194 rmoveto
          114 1 149 -5 rlineto
          hintmask 1010011110000000
          21 99 -6 10 rlineto
          hintmask 1010101110000000
          -396 hlineto
          -50 -451 -31 -192 rlineto
          392 hlineto
          hintmask 0110101110000000
          21 99 -6 10 rlineto
          hintmask 1010101110000000
          -153 -5 -112 1 10 99 10 70 101 1 110 -3 rlineto
          hintmask 1001101110000000
          21 99 -7 10 rlineto
          hintmask 1010101110000000
          -102 -3 -108 1 rlineto
          endchar
        </CharString>
        <CharString name="Edotaccent">
          -31 0 104.5 -5.5 7.5 168 104 -7.5 8.5 159 104.5 -10 10 90 139 hstemhm
          272 136 hintmask 10101011
          338 733 rmoveto
          43 27 28 44 42 -24 25 -41 -44 -27 -28 -44 -42 24 -25 42 hvcurveto
          -91 -195 rmoveto
          114 1 149 -5 rlineto
          hintmask 10100111
          21 99 -6 10 rlineto
          hintmask 10101011
          -396 hlineto
          -50 -451 -31 -192 rlineto
          392 hlineto
          hintmask 01101011
          21 99 -6 10 rlineto
          hintmask 10101011
          -153 -5 -112 1 10 99 10 70 101 1 110 -3 rlineto
          hintmask 10011011
          21 99 -7 10 rlineto
          hintmask 10101011
          -102 -3 -108 1 rlineto
          endchar
        </CharString>
        <CharString name="Edotbelow">
          -31 -195 139 56 104.5 -5.5 7.5 168 104 -7.5 8.5 159 104.5 -10 10 hstemhm
          199 136 hintmask 11010101
          247 538 rmoveto
          114 1 149 -5 rlineto
          hintmask 11010011
          21 99 -6 10 rlineto
          hintmask 11010101
          -396 hlineto
          -50 -451 -31 -192 rlineto
          392 hlineto
          hintmask 10110101
          21 99 -6 10 rlineto
          hintmask 11010101
          -153 -5 -112 1 10 99 10 70 101 1 110 -3 rlineto
          hintmask 11001101
          21 99 -7 10 rlineto
          hintmask 11010101
          -102 -3 -108 1 rlineto
          45 -435 rmoveto
          -44 -27 -28 -44 -42 23 -25 43 43 27 28 45 41 -24 25 -41 hvcurveto
          endchar
        </CharString>
        <CharString name="Egrave">
          -31 0 104.5 -5.5 7.5 168 104 -7.5 8.5 159 104.5 -10 10 hstemhm
          48 483 hintmask 10101010
          445 722 rmoveto
          21 55 -72 36 -66 35 -69 41 rlinecurve
          -12 -3 -33 -77 4 -12 76 -30 68 -24 70 -25 rlinecurve
          -185 -180 rmoveto
          114 1 149 -5 rlineto
          hintmask 10100110
          21 99 -6 10 rlineto
          hintmask 10101010
          -396 hlineto
          -50 -451 -31 -192 rlineto
          392 hlineto
          hintmask 01101010
          21 99 -6 10 rlineto
          hintmask 10101010
          -153 -5 -112 1 10 99 10 70 101 1 110 -3 rlineto
          hintmask 10011010
          21 99 -7 10 rlineto
          hintmask 10101010
          -102 -3 -108 1 rlineto
          endchar
        </CharString>
        <CharString name="Ehookabove">
          -31 0 104.5 -5.5 7.5 168 104 -7.5 8.5 159 104.5 -10 10 214 61 hstemhm
          331 70 hintmask 10101011
          303 857 rmoveto
          16 12 -7 -15 -18 -19 -28 -32 -24 hvcurveto
          41 -65 47 27 -22 38 rlineto
          40 35 15 21 27 vvcurveto
          41 -34 29 -45 -36 -39 -19 -31 -29 vhcurveto
          22 -35 rlineto
          16 20 24 8 19 hhcurveto
          -56 -319 rmoveto
          114 1 149 -5 rlineto
          hintmask 10100111
          21 99 -6 10 rlineto
          hintmask 10101011
          -396 hlineto
          -50 -451 -31 -192 rlineto
          392 hlineto
          hintmask 01101011
          21 99 -6 10 rlineto
          hintmask 10101011
          -153 -5 -112 1 10 99 10 70 101 1 110 -3 rlineto
          hintmask 10011011
          21 99 -7 10 rlineto
          hintmask 10101011
          -102 -3 -108 1 rlineto
          endchar
        </CharString>
        <CharString name="Emacron">
          -31 0 104.5 -5.5 7.5 168 104 -7.5 8.5 159 104.5 -10 10 113 82 hstemhm
          48 483 hintmask 10101011
          201 756 rmoveto
          280 hlineto
          7 73 -9 9 rlineto
          -280 hlineto
          -7 -73 rlineto
          55 -227 rmoveto
          114 1 149 -5 rlineto
          hintmask 10100111
          21 99 -6 10 rlineto
          hintmask 10101011
          -396 hlineto
          -50 -451 -31 -192 rlineto
          392 hlineto
          hintmask 01101011
          21 99 -6 10 rlineto
          hintmask 10101011
          -153 -5 -112 1 10 99 10 70 101 1 110 -3 rlineto
          hintmask 10011011
          21 99 -7 10 rlineto
          hintmask 10101011
          -102 -3 -108 1 rlineto
          endchar
        </CharString>
        <CharString name="Eng">
          157 21 -21 441 202 0 -20 23 -20 hstemhm
          49 606 hintmask 10011000
          592 198 rmoveto
          63 448 -124 -8 -48 -426 rlineto
          -9 hlineto
          hintmask 10101000
          -202 431 rlineto
          -143 hlineto
          -49 -453 -31 -190 rlineto
          121 hlineto
          23 221 rlineto
          hintmask 11001000
          27 220 rlineto
          9 hlineto
          209 -440 -19 -34 -36 -26 -55 -28 rlinecurve
          -2 -13 32 -70 150 56 56 60 15 110 rlinecurve
          endchar
        </CharString>
        <CharString name="Eogonek">
          -31 -197 74 123 104.5 -5.5 7.5 168 104 -7.5 8.5 159 104.5 -10 10 hstemhm
          261 72 hintmask 11010101
          247 538 rmoveto
          114 1 149 -5 rlineto
          hintmask 11010011
          21 99 -6 10 rlineto
          hintmask 11010101
          -396 hlineto
          -50 -451 -31 -192 rlineto
          262 hlineto
          -20 -28 rlineto
          -20 -28 -9 -28 -26 vvcurveto
          -49 35 -38 55 36 31 16 34 36 vhcurveto
          -11 54 rlineto
          -7 hlineto
          -19 -22 -23 -11 -20 hhcurveto
          -26 -12 15 22 14 6 16 10 17 hvcurveto
          26 39 rlineto
          65 hlineto
          hintmask 10110101
          21 99 -6 10 rlineto
          hintmask 11010101
          -153 -5 -112 1 10 99 10 70 101 1 110 -3 rlineto
          hintmask 11001101
          21 99 -7 10 rlineto
          hintmask 11010101
          -102 -3 -108 1 rlineto
          endchar
        </CharString>
        <CharString name="Eth">
          140 -7 102 -74 -21 276 88 178 105 hstemhm
          111.5 120.5 284 139 hintmask 10111100
          156 643 rmoveto
          -30 -279 rlineto
          -89 hlineto
          -11 -79 5 -9 rlineto
          85 hlineto
          -9 -84 rlineto
          hintmask 01111100
          -31 -192 rlineto
          hintmask 10111100
          -4 63 113 -3 49 hhcurveto
          230 124 154 249 161 -94 90 -161 hvcurveto
          -70 -552 rmoveto
          -20 -53 3 5 -39 hvcurveto
          9 101 10 72 rlineto
          128 hlineto
          10 79 -5 9 rlineto
          -120 hlineto
          24 174 rlineto
          2 35 55 2 20 hhcurveto
          88 44 -52 -115 -192 -70 -88 -116 hvcurveto
          endchar
        </CharString>
        <CharString name="Etilde">
          -31 0 104.5 -5.5 7.5 168 104 -7.5 8.5 159 104.5 -10 10 hstemhm
          48 483 hintmask 10101010
          204 720 rmoveto
          12 hlineto
          27 24 17 25 20 hhcurveto
          26 83 -30 -6 46 hvcurveto
          12 5 70 88 rlineto
          11 vlineto
          -39 38 rlineto
          -11 hlineto
          -27 -25 -17 -24 -20 hhcurveto
          -26 -82 29 6 -47 hvcurveto
          -12 -4 -70 -88 rlineto
          -11 vlineto
          82 -221 rmoveto
          114 1 149 -5 rlineto
          hintmask 10100110
          21 99 -6 10 rlineto
          hintmask 10101010
          -396 hlineto
          -50 -451 -31 -192 rlineto
          392 hlineto
          hintmask 01101010
          21 99 -6 10 rlineto
          hintmask 10101010
          -153 -5 -112 1 10 99 10 70 101 1 110 -3 rlineto
          hintmask 10011010
          21 99 -7 10 rlineto
          hintmask 10101010
          -102 -3 -108 1 rlineto
          endchar
        </CharString>
        <CharString name="Euro">
          -53 -7 90 76 64 49 64 83 90 hstem
          4 480 vstem
          355 509 rmoveto
          -126 -86 -62 -111 -41 hvcurveto
          -74 hlineto
          -11 -58 4 -6 rlineto
          340 hlineto
          12 58 -6 6 rlineto
          -151 hlineto
          56 24 42 27 60 hhcurveto
          36 40 -11 -19 27 hvcurveto
          9 4 30 87 rlineto
          18 -35 -47 11 -47 hhcurveto
          -53 -426 rmoveto
          -56 -36 26 50 -12 hvcurveto
          149 hlineto
          11 58 -4 6 rlineto
          -339 hlineto
          -11 -58 4 -6 rlineto
          70 hlineto
          -108 11 71 -58 127 hhcurveto
          39 42 8 19 42 hvcurveto
          19 86 -9 7 rlineto
          -19 -35 -48 -11 -35 hhcurveto
          endchar
        </CharString>
        <CharString name="F">
          -84 21 -21 257.5 103 -7.5 8.5 174.5 107 -104.5 104.5 -10 10 hstemhm
          48 459 hintmask 00000000
          hintmask 10101010
          248 538 rmoveto
          90 1 rlineto
          hintmask 10110010
          147 -6 rlineto
          hintmask 11000110
          22 100 -6 10 rlineto
          -372 hlineto
          -50 -451 -31 -192 rlineto
          133 hlineto
          20 204 8 53 78 1 115 -3 rlineto
          hintmask 10100110
          21 98 -6 10 -108 -3 -86 1 rlineto
          endchar
        </CharString>
        <CharString name="G">
          57 -9 104 449 107 hstem
          35 138 vstem
          400 651 rmoveto
          -235 -130 -144 -255 -164 92 -97 175 72 61 13 27 77 hvcurveto
          17 156 13 87 -123 -8 -10 -100 -9 -55 rlineto
          -12 -37 -21 -4 -25 hhcurveto
          -100 -44 47 115 208 71 79 128 59 42 -16 -36 58 hvcurveto
          12 1 44 120 rlineto
          26 -56 -65 12 -66 hhcurveto
          endchar
        </CharString>
        <CharString name="Gbreve">
          57 -9 104 449 107 70 90 hstem
          35 137 vstem
          504 867 rmoveto
          -19 hlineto
          -36 -21 -38 -20 -46 hhcurveto
          -47 -35 20 36 -13 hvcurveto
          -19 hlineto
          -35 -41 rlineto
          -68 17 52 -37 76 hhcurveto
          70 52 37 68 31 hvcurveto
          -130 -175 rmoveto
          -234 -130 -144 -255 -164 92 -97 175 71 62 13 27 76 hvcurveto
          18 156 12 87 -122 -8 -10 -100 -9 -55 rlineto
          -12 -37 -21 -4 -26 hhcurveto
          -100 -44 47 115 208 72 79 128 58 43 -16 -36 58 hvcurveto
          12 1 43 120 rlineto
          26 -55 -66 12 -66 hhcurveto
          endchar
        </CharString>
        <CharString name="Gcircumflex">
          57 -9 104 449 107 hstem
          35 137 vstem
          253 727 rmoveto
          13 hlineto
          39 21 41 21 39 22 33 -22 32 -21 34 -21 rrcurveto
          13 hlineto
          30 52 -45 33 -42 34 -37 36 rlinecurve
          -28 hlineto
          -42 -36 -47 -34 -51 -33 rrcurveto
          164 -128 rmoveto
          -234 -130 -144 -255 -164 92 -97 175 71 62 13 27 76 hvcurveto
          18 156 12 87 -122 -8 -10 -100 -9 -55 rlineto
          -12 -37 -21 -4 -26 hhcurveto
          -100 -44 47 115 208 72 79 128 58 43 -16 -36 58 hvcurveto
          12 1 43 120 rlineto
          26 -55 -66 12 -66 hhcurveto
          endchar
        </CharString>
        <CharString name="Gcommaaccent">
          57 -70 -21 82 104 449 107 hstem
          35 137 100 94 vstem
          399 651 rmoveto
          -234 -130 -144 -255 -164 92 -97 175 71 62 13 27 76 hvcurveto
          18 156 12 87 -122 -8 -10 -100 -9 -55 rlineto
          -12 -37 -21 -4 -26 hhcurveto
          -100 -44 47 115 208 72 79 128 58 43 -16 -36 58 hvcurveto
          12 1 43 120 rlineto
          26 -55 -66 12 -66 hhcurveto
          -72 -697 rmoveto
          -30 -8 -27 -12 -26 -16 rrcurveto
          -9 vlineto
          18 -16 10 -17 -21 vvcurveto
          -30 -17 -29 -33 -27 vhcurveto
          1 -9 37 -33 rlineto
          72 51 34 49 52 vvcurveto
          30 -13 24 -26 21 vhcurveto
          endchar
        </CharString>
        <CharString name="Gdieresis">
          57 -9 104 449 107 82 126 hstem
          35 137 59 123 52 122 vstem
          296 859 rmoveto
          -40 -25 -25 -40 -39 21 -22 39 39 24 25 41 37 -22 23 -36 hvcurveto
          174 -1 rmoveto
          -40 -24 -25 -40 -39 21 -22 38 39 24 26 40 37 -21 23 -37 hvcurveto
          -71 -207 rmoveto
          -234 -130 -144 -255 -164 92 -97 175 71 62 13 27 76 hvcurveto
          18 156 12 87 -122 -8 -10 -100 -9 -55 rlineto
          -12 -37 -21 -4 -26 hhcurveto
          -100 -44 47 115 208 72 79 128 58 43 -16 -36 58 hvcurveto
          12 1 43 120 rlineto
          26 -55 -66 12 -66 hhcurveto
          endchar
        </CharString>
        <CharString name="Gdotaccent">
          57 -9 104 449 107 82 139 hstem
          35 137 140 136 vstem
          383 872 rmoveto
          -44 -27 -28 -44 -42 24 -25 42 43 27 28 44 42 -24 25 -41 hvcurveto
          16 -221 rmoveto
          -234 -130 -144 -255 -164 92 -97 175 71 62 13 27 76 hvcurveto
          18 156 12 87 -122 -8 -10 -100 -9 -55 rlineto
          -12 -37 -21 -4 -26 hhcurveto
          -100 -44 47 115 208 72 79 128 58 43 -16 -36 58 hvcurveto
          12 1 43 120 rlineto
          26 -55 -66 12 -66 hhcurveto
          endchar
        </CharString>
        <CharString name="Germandbls">
          123 -9 101 -92 33 -12 -21 546 106 -67 -20 hstemhm
          493 133 hintmask 10010100
          384 652 rmoveto
          -172 -107 -95 -142 -16 hvcurveto
          -24 -225 rlineto
          hintmask 00110100
          -31 -190 rlineto
          132 hlineto
          20 205 29 210 rlineto
          84 11 47 47 88 hhcurveto
          35 31 -8 -17 34 hvcurveto
          -156 -186 2 -20 rlineto
          hintmask 10010100
          138 -60 48 -36 -50 vvcurveto
          -45 -34 -32 -47 -42 -52 26 45 -44 vhcurveto
          -16 -8 rlineto
          hintmask 01010100
          -33 -122 rlineto
          hintmask 10001100
          -27 50 61 -15 55 hhcurveto
          125 110 73 130 86 -53 39 -104 57 hvcurveto
          160 189 -3 20 rlineto
          hintmask 10010100
          41 -81 -73 26 -88 hhcurveto
          endchar
        </CharString>
        <CharString name="Gtilde">
          57 -9 104 449 107 hstem
          35 137 vstem
          554 840 rmoveto
          -39 38 rlineto
          -11 hlineto
          -27 -25 -17 -24 -20 hhcurveto
          -26 -82 29 6 -47 hvcurveto
          -12 -4 -70 -88 rlineto
          -11 vlineto
          39 -39 rlineto
          12 hlineto
          27 24 17 25 20 hhcurveto
          26 83 -30 -6 46 hvcurveto
          12 5 70 88 rlineto
          -155 -178 rmoveto
          -234 -130 -144 -255 -164 92 -97 175 71 62 13 27 76 hvcurveto
          18 156 12 87 -122 -8 -10 -100 -9 -55 rlineto
          -12 -37 -21 -4 -26 hhcurveto
          -100 -44 47 115 208 72 79 128 58 43 -16 -36 58 hvcurveto
          12 1 43 120 rlineto
          26 -55 -66 12 -66 hhcurveto
          endchar
        </CharString>
        <CharString name="H">
          151 21 -21 269.5 107 266.5 -20 hstem
          48 605 vstem
          653 643 rmoveto
          -135 hlineto
          -28 -265 -132 -3 -133 3 37 265 rlineto
          -134 hlineto
          -49 -451 -31 -192 rlineto
          133 hlineto
          19 204 9 63 127 4 142 -3 -8 -76 -31 -192 rlineto
          132 hlineto
          20 204 rlineto
          endchar
        </CharString>
        <CharString name="Hbar">
          181 21 -21 269.5 107 98.5 77 -77 168 hstemhm
          61 656 hintmask 11011000
          712 475 rmoveto
          hintmask 11101000
          5 69 -6 8 rlineto
          -57 hlineto
          hintmask 11011000
          13 91 rlineto
          -135 hlineto
          hintmask 11101000
          -10 -91 rlineto
          -259 hlineto
          hintmask 11011000
          13 91 rlineto
          -134 hlineto
          hintmask 11101000
          -10 -91 rlineto
          -66 hlineto
          hintmask 11011000
          -5 -70 5 -7 rlineto
          58 hlineto
          -31 -283 -31 -192 rlineto
          133 hlineto
          19 204 9 63 127 4 142 -3 -8 -76 -31 -192 rlineto
          132 hlineto
          20 204 38 271 rlineto
          -129 hmoveto
          -10 -97 -132 -3 -133 3 13 97 rlineto
          endchar
        </CharString>
        <CharString name="Hcircumflex">
          151 21 -21 269.5 107 266.5 -20 hstem
          48 605 vstem
          282 727 rmoveto
          13 hlineto
          39 21 41 21 39 22 33 -22 32 -21 34 -21 rrcurveto
          13 hlineto
          30 52 -45 33 -42 34 -37 36 rlinecurve
          -28 hlineto
          -42 -36 -47 -34 -51 -33 rrcurveto
          389 -136 rmoveto
          -135 hlineto
          -28 -265 -132 -3 -133 3 37 265 rlineto
          -134 hlineto
          -49 -451 -31 -192 rlineto
          132 hlineto
          20 204 9 63 127 4 142 -3 -8 -76 -31 -192 rlineto
          132 hlineto
          20 204 rlineto
          endchar
        </CharString>
        <CharString name="I">
          -239 21 -21 643 -20 hstem
          48 214 vstem
          200 204 rmoveto
          62 439 rlineto
          -134 hlineto
          -49 -451 -31 -192 rlineto
          133 hlineto
          endchar
        </CharString>
        <CharString name="I.ss01">
          -257 0 48 409 48 hstem
          -126 528 vstem
          179 161 rmoveto
          42 296 rlineto
          176 hlineto
          5 48 rlineto
          -465 hlineto
          -6 -48 rlineto
          168 hlineto
          -33 -307 -16 -102 rlineto
          -170 hlineto
          -6 -48 rlineto
          466 hlineto
          6 48 rlineto
          -177 hlineto
          endchar
        </CharString>
        <CharString name="IJ">
          89 21 -21 545 98 hstem
          399 121 vstem
          128 643 rmoveto
          -49 -451 -31 -192 rlineto
          132 hlineto
          20 204 62 439 rlineto
          324 hmoveto
          -239 hlineto
          -17 -90 8 -9 103 2 -37 -346 -10 -77 -9 -68 -36 -36 -85 -42 rlinecurve
          -1 -13 32 -70 150 56 56 61 15 109 rlinecurve
          8 92 rlineto
          endchar
        </CharString>
        <CharString name="Iacute">
          -239 21 -21 643 -20 hstem
          48 299 vstem
          314 884 rmoveto
          -12 3 -70 -41 -65 -35 -72 -36 rlinecurve
          21 -54 13 -4 70 24 68 24 76 30 rlinecurve
          4 12 rlineto
          -147 -603 rmoveto
          62 439 rlineto
          -134 hlineto
          -49 -451 -31 -192 rlineto
          132 hlineto
          endchar
        </CharString>
        <CharString name="Iacute_J.loclNLD">
          89 21 -21 545 98 hstem
          399 121 vstem
          116 721 rmoveto
          13 -4 70 24 68 24 76 30 rlinecurve
          4 12 -33 77 -12 3 -70 -41 -65 -35 -72 -36 rlinecurve
          538 32 rmoveto
          -33 77 -12 3 -70 -41 -65 -35 -72 -36 rlinecurve
          21 -54 13 -4 70 24 68 24 76 30 rlinecurve
          -501 -152 rmoveto
          -49 -451 -31 -192 rlineto
          132 hlineto
          20 204 62 439 rlineto
          324 hmoveto
          -239 hlineto
          -17 -90 8 -9 103 2 -37 -346 -10 -77 -9 -68 -36 -36 -85 -42 rlinecurve
          -1 -13 32 -70 150 56 56 61 15 109 rlinecurve
          8 92 rlineto
          endchar
        </CharString>
        <CharString name="Ibreve">
          -239 21 -21 643 -20 98 90 hstem
          48 314 vstem
          337 867 rmoveto
          -19 hlineto
          -36 -21 -38 -20 -46 hhcurveto
          -47 -35 20 36 -13 hvcurveto
          -19 hlineto
          -35 -41 rlineto
          -68 17 52 -37 76 hhcurveto
          70 52 37 68 31 hvcurveto
          -162 -622 rmoveto
          62 439 rlineto
          -134 hlineto
          -49 -451 -31 -192 rlineto
          132 hlineto
          endchar
        </CharString>
        <CharString name="Icaron">
          -239 21 -21 643 -20 hstem
          48 310 vstem
          341 874 rmoveto
          -14 hlineto
          -40 -21 -40 -21 -38 -22 -34 22 -32 21 -34 21 rrcurveto
          -12 hlineto
          -31 -52 45 -33 42 -34 38 -36 rlinecurve
          27 hlineto
          42 36 47 34 51 33 rrcurveto
          -158 -618 rmoveto
          62 439 rlineto
          -134 hlineto
          -49 -451 -31 -192 rlineto
          132 hlineto
          endchar
        </CharString>
        <CharString name="Icircumflex">
          -239 21 -21 643 -20 hstem
          48 312 vstem
          86 727 rmoveto
          13 hlineto
          39 21 41 21 39 22 33 -22 32 -21 34 -21 rrcurveto
          13 hlineto
          30 52 -45 33 -42 34 -37 36 rlinecurve
          -28 hlineto
          -42 -36 -47 -34 -51 -33 rrcurveto
          132 -575 rmoveto
          62 439 rlineto
          -134 hlineto
          -49 -451 -31 -192 rlineto
          132 hlineto
          endchar
        </CharString>
        <CharString name="Idieresis">
          -239 21 -21 643 -20 109 126 hstemhm
          76 123 28 123 hintmask 11110000
          140 858 rmoveto
          -40 -24 -25 -40 -39 21 -22 39 38 25 26 40 37 -22 23 -37 hvcurveto
          hintmask 11111000
          152 hmoveto
          -41 -24 -25 -40 -39 21 -22 39 38 25 26 40 37 -22 23 -36 hvcurveto
          -92 -654 rmoveto
          62 439 rlineto
          -134 hlineto
          -49 -451 -31 -192 rlineto
          132 hlineto
          endchar
        </CharString>
        <CharString name="Idotaccent">
          -239 21 -21 643 -20 110 139 hstem
          145 136 vstem
          216 872 rmoveto
          -44 -27 -28 -44 -42 24 -25 42 43 27 28 44 42 -24 25 -41 hvcurveto
          -16 -668 rmoveto
          62 439 rlineto
          -134 hlineto
          -49 -451 -31 -192 rlineto
          132 hlineto
          endchar
        </CharString>
        <CharString name="Idotbelow">
          -239 -195 139 77 -21 643 -20 hstem
          37 136 vstem
          200 204 rmoveto
          62 439 rlineto
          -134 hlineto
          -49 -451 -31 -192 rlineto
          132 hlineto
          -72 -56 rmoveto
          -44 -27 -28 -44 -42 23 -25 43 43 27 28 45 41 -24 25 -41 hvcurveto
          endchar
        </CharString>
        <CharString name="Igrave">
          -239 21 -21 643 -20 hstem
          48 292 vstem
          121 886 rmoveto
          -33 -77 4 -12 76 -30 68 -24 70 -25 rlinecurve
          13 4 21 55 -72 36 -66 35 -69 41 rlinecurve
          67 -685 rmoveto
          62 439 rlineto
          -134 hlineto
          -49 -451 -31 -192 rlineto
          132 hlineto
          endchar
        </CharString>
        <CharString name="Ihookabove">
          -239 21 -21 643 -20 234 61 hstem
          204 70 vstem
          195 918 rmoveto
          -36 -39 -19 -31 -29 hvcurveto
          22 -35 rlineto
          16 20 24 8 19 hhcurveto
          16 12 -7 -15 -18 -19 -28 -32 -24 hvcurveto
          41 -65 47 27 -22 38 rlineto
          40 35 15 21 27 vvcurveto
          41 -34 29 -45 vhcurveto
          5 -714 rmoveto
          62 439 rlineto
          -134 hlineto
          -49 -451 -31 -192 rlineto
          132 hlineto
          endchar
        </CharString>
        <CharString name="Imacron">
          -239 21 -21 643 -20 133 82 hstem
          48 285 vstem
          333 829 rmoveto
          -9 9 rlineto
          -224 hlineto
          -7 -73 9 -9 rlineto
          225 hlineto
          -127 -552 rmoveto
          62 439 rlineto
          -134 hlineto
          -49 -451 -31 -192 rlineto
          132 hlineto
          endchar
        </CharString>
        <CharString name="Iogonek">
          -238 -197 74 144 -21 643 -20 hstem
          -8 72 vstem
          262 643 rmoveto
          -134 hlineto
          -49 -451 -31 -192 rlineto
          -43 -55 -13 -27 -31 vvcurveto
          -50 34 -34 50 36 30 18 30 33 vhcurveto
          -13 56 rlineto
          -7 hlineto
          -20 -19 -22 -10 -19 hhcurveto
          -20 -11 11 18 19 10 23 43 52 hvcurveto
          63 hlineto
          20 204 rlineto
          endchar
        </CharString>
        <CharString name="Itilde">
          -239 21 -21 643 -20 hstem
          48 319 vstem
          367 837 rmoveto
          -39 38 rlineto
          -11 hlineto
          -26 -20 -15 -24 -19 hhcurveto
          -21 -67 29 6 -41 hvcurveto
          -11 -5 -63 -87 rlineto
          -11 vlineto
          38 -38 rlineto
          12 hlineto
          26 20 15 24 19 hhcurveto
          21 67 -29 -6 41 hvcurveto
          11 5 63 87 rlineto
          -167 -622 rmoveto
          62 439 rlineto
          -134 hlineto
          -49 -451 -31 -192 rlineto
          132 hlineto
          endchar
        </CharString>
        <CharString name="J">
          -200 545 98 hstem
          110 121 vstem
          297 643 rmoveto
          -239 hlineto
          -17 -90 8 -9 103 2 -37 -346 -10 -77 -9 -68 -36 -36 -85 -42 rlinecurve
          -1 -13 32 -70 150 56 56 61 15 109 rlinecurve
          8 92 rlineto
          endchar
        </CharString>
        <CharString name="Jcircumflex">
          -200 545 98 hstem
          111 121 vstem
          205 882 rmoveto
          -42 -36 -47 -34 -51 -33 18 -52 rcurveline
          13 hlineto
          39 21 41 21 39 22 33 -22 32 -21 34 -21 rrcurveto
          13 hlineto
          30 52 -45 33 -42 34 -37 36 rlinecurve
          65 -239 rmoveto
          -240 hlineto
          -17 -90 8 -9 104 2 -37 -346 -10 -77 -9 -68 -36 -36 -85 -42 rlinecurve
          -1 -13 32 -70 150 56 56 61 15 109 rlinecurve
          8 92 rlineto
          endchar
        </CharString>
        <CharString name="K">
          41 11 -21 31 -21 643 -20 hstemhm
          48 562 hintmask 01110000
          610 643 rmoveto
          -142 hlineto
          -44 -61 -204 -237 42 298 rlineto
          -134 hlineto
          -49 -451 -31 -192 rlineto
          132 hlineto
          20 204 18 126 rlineto
          hintmask 10110000
          57 -113 64 -111 64 -108 13 -8 rcurveline
          45 5 43 7 44 11 4 15 rcurveline
          -71 98 -69 103 -60 106 rrcurveto
          endchar
        </CharString>
        <CharString name="Kcommaaccent">
          41 -70 -21 102 -21 31 -21 643 -20 hstemhm
          250 94 hintmask 10111000
          610 643 rmoveto
          -142 hlineto
          -45 -61 -203 -235 42 296 rlineto
          -133 hlineto
          -49 -451 -32 -192 rlineto
          132 hlineto
          20 204 18 126 rlineto
          hintmask 11011000
          57 -113 63 -111 64 -108 14 -8 rcurveline
          44 5 43 7 45 11 4 15 rcurveline
          -72 98 -68 103 -61 106 rrcurveto
          -46 -381 rmoveto
          -30 -8 -27 -12 -26 -16 rrcurveto
          -9 vlineto
          18 -16 10 -17 -21 vvcurveto
          -30 -17 -29 -33 -27 vhcurveto
          1 -9 37 -33 rlineto
          72 51 34 49 52 vvcurveto
          30 -13 24 -26 21 vhcurveto
          endchar
        </CharString>
        <CharString name="L">
          -107 0 109 -10 10 534 -20 hstemhm
          45 359 hintmask 00000000
          hintmask 01110000
          404 99 rmoveto
          -6 10 rlineto
          hintmask 10110000
          -210 hlineto
          9 95 62 439 rlineto
          -134 hlineto
          -49 -451 -31 -192 rlineto
          338 hlineto
          endchar
        </CharString>
        <CharString name="L.ss01">
          -154 0 48 409 48 hstem
          -127 633 vstem
          178 169 rmoveto
          42 288 rlineto
          280 hlineto
          6 48 rlineto
          -571 hlineto
          -6 -48 rlineto
          170 hlineto
          -33 -300 -17 -109 rlineto
          -171 hlineto
          -5 -48 rlineto
          570 hlineto
          6 48 rlineto
          -119 hlineto
          8 55 rlineto
          -168 hlineto
          endchar
        </CharString>
        <CharString name="Lacute">
          -107 0 109 -10 10 534 -20 hstemhm
          45 359 hintmask 10110000
          112 721 rmoveto
          13 -4 70 24 68 24 76 30 rlinecurve
          4 12 -33 77 -12 3 -70 -41 -65 -35 -72 -36 rlinecurve
          hintmask 01110000
          313 -676 rmoveto
          -6 10 rlineto
          hintmask 10110000
          -210 hlineto
          9 95 62 439 rlineto
          -134 hlineto
          -49 -451 -31 -192 rlineto
          338 hlineto
          endchar
        </CharString>
        <CharString name="Lcaron">
          -89 0 109 -10 10 473 8 0 -20 73 -20 hstemhm
          45 425 hintmask 10011100
          398 109 rmoveto
          -210 hlineto
          9 95 62 439 rlineto
          -134 hlineto
          -49 -451 -31 -192 rlineto
          338 hlineto
          hintmask 01101100
          21 99 rlineto
          66 483 rmoveto
          -7 8 -92 -5 -24 -203 8 -7 59 9 rlineto
          endchar
        </CharString>
        <CharString name="Lcommaaccent">
          -107 -70 -21 91 109 -10 10 534 -20 hstemhm
          163 94 hintmask 00000000
          hintmask 10111000
          404 99 rmoveto
          -6 10 rlineto
          hintmask 11011000
          -210 hlineto
          9 95 62 439 rlineto
          -134 hlineto
          -49 -451 -31 -192 rlineto
          338 hlineto
          -165 -46 rmoveto
          -30 -8 -27 -12 -26 -16 rrcurveto
          -9 vlineto
          18 -16 10 -17 -21 vvcurveto
          -30 -17 -29 -33 -27 vhcurveto
          1 -9 37 -33 rlineto
          72 51 34 49 52 vvcurveto
          30 -13 24 -26 21 vhcurveto
          endchar
        </CharString>
        <CharString name="Ldot">
          -86 0 109 -10 10 209 139 186 -20 hstemhm
          304 136 hintmask 10111000
          402 109 rmoveto
          -210 hlineto
          9 95 62 439 rlineto
          -134 hlineto
          -49 -451 -31 -192 rlineto
          338 hlineto
          hintmask 01111000
          21 99 rlineto
          -33 358 rmoveto
          -44 -27 -28 -44 -42 23 -25 43 43 27 28 45 41 -24 25 -41 hvcurveto
          endchar
        </CharString>
        <CharString name="Lslash">
          -98 0 109 -10 10 361 -20 193 -20 hstemhm
          3 409 -325 113.5 hintmask 00000000
          hintmask 01111000
          412 99 rmoveto
          -6 10 rlineto
          hintmask 10110100
          -210 hlineto
          9 95 16 110 147 73 -15 77 -12 6 -106 -53 32 226 rlineto
          -134 hlineto
          -32 -292 -98 -49 14 -77 11 -6 62 31 -6 -58 -31 -192 rlineto
          338 hlineto
          endchar
        </CharString>
        <CharString name="M">
          248 21 -21 68 171 209 195 hstem
          603 110 vstem
          701 hmoveto
          24 643 rlineto
          -150 hlineto
          -39 -94 -143 -310 rlineto
          -9 hlineto
          -60 309 -14 95 rlineto
          -151 hlineto
          -144 -643 rlineto
          111 hlineto
          39 207 53 241 rlineto
          10 hlineto
          80 -380 rlineto
          103 hlineto
          187 380 rlineto
          9 hlineto
          -8 -253 -15 -195 rlineto
          endchar
        </CharString>
        <CharString name="M.ss01">
          138 0 48 282 175 -48 48 hstemhm
          489.5 94.5 hintmask 10110000
          591 457 rmoveto
          201 hlineto
          6 48 rlineto
          -861 hlineto
          -6 -48 rlineto
          200 hlineto
          -93 -409 rlineto
          -158 hlineto
          -6 -48 rlineto
          861 hlineto
          6 48 rlineto
          -164 hlineto
          -131 409 rmoveto
          -15 -32 -95 -188 rlineto
          -7 hlineto
          -45 189 -6 31 rlineto
          198 -409 rmoveto
          -341 hlineto
          23 131 rlineto
          hintmask 11010000
          34 151 rlineto
          7 hlineto
          64 -242 rlineto
          89 hlineto
          133 242 rlineto
          7 hlineto
          -5 -160 rlineto
          endchar
        </CharString>
        <CharString name="N">
          150 0 202 -181 -21 441 202 0 -20 23 -20 hstemhm
          49 605 hintmask 01001100
          590 198 rmoveto
          64 448 -123 -8 rlineto
          hintmask 10010100
          -51 -436 rlineto
          -9 hlineto
          -200 441 rlineto
          -142 hlineto
          -50 -453 -30 -190 rlineto
          121 hlineto
          22 221 rlineto
          hintmask 01100100
          28 220 rlineto
          9 hlineto
          200 -441 rlineto
          142 hlineto
          endchar
        </CharString>
        <CharString name="Nacute">
          150 0 202 -181 -21 441 202 0 -20 23 -20 hstemhm
          49 605 hintmask 01001100
          510 884 rmoveto
          -12 3 -70 -41 -65 -35 -72 -36 rlinecurve
          21 -54 13 -4 70 24 68 24 76 30 rlinecurve
          4 12 rlineto
          47 -609 rmoveto
          64 448 -123 -8 rlineto
          hintmask 10010100
          -51 -436 rlineto
          -9 hlineto
          -200 441 rlineto
          -141 hlineto
          -50 -453 -31 -190 rlineto
          121 hlineto
          22 221 rlineto
          hintmask 01100100
          29 220 rlineto
          9 hlineto
          199 -441 rlineto
          142 hlineto
          endchar
        </CharString>
        <CharString name="Ncaron">
          150 0 202 -181 -21 441 202 0 -20 23 -20 hstemhm
          49 605 hintmask 01001100
          538 874 rmoveto
          -14 hlineto
          -40 -21 -40 -21 -38 -22 -34 22 -32 21 -34 21 rrcurveto
          -12 hlineto
          -31 -52 45 -33 42 -34 38 -36 rlinecurve
          27 hlineto
          42 36 47 34 51 33 rrcurveto
          35 -624 rmoveto
          64 448 -123 -8 rlineto
          hintmask 10010100
          -51 -436 rlineto
          -9 hlineto
          -200 441 rlineto
          -141 hlineto
          -50 -453 -31 -190 rlineto
          121 hlineto
          22 221 rlineto
          hintmask 01100100
          29 220 rlineto
          9 hlineto
          199 -441 rlineto
          142 hlineto
          endchar
        </CharString>
        <CharString name="Ncommaaccent">
          150 -70 -21 91 202 -181 -21 441 202 0 -20 23 -20 hstemhm
          269 94 hintmask 10100110
          590 198 rmoveto
          64 448 -123 -8 rlineto
          hintmask 11001010
          -51 -436 rlineto
          -9 hlineto
          -200 441 rlineto
          -141 hlineto
          -50 -453 -31 -190 rlineto
          121 hlineto
          22 221 rlineto
          hintmask 10110010
          29 220 rlineto
          9 hlineto
          199 -441 rlineto
          142 hlineto
          -247 -46 rmoveto
          -30 -8 -27 -12 -26 -16 rrcurveto
          -9 vlineto
          18 -16 10 -17 -21 vvcurveto
          -30 -17 -29 -33 -27 vhcurveto
          1 -9 37 -33 rlineto
          72 51 34 49 52 vvcurveto
          30 -13 24 -26 21 vhcurveto
          endchar
        </CharString>
        <CharString name="Ntilde">
          150 0 202 -181 -21 441 202 0 -20 23 -20 hstemhm
          49 605 hintmask 01001100
          584 840 rmoveto
          -39 38 rlineto
          -11 hlineto
          -27 -25 -17 -24 -20 hhcurveto
          -26 -82 29 6 -47 hvcurveto
          -12 -4 -70 -88 rlineto
          -11 vlineto
          39 -39 rlineto
          12 hlineto
          27 24 17 25 20 hhcurveto
          26 83 -30 -6 46 hvcurveto
          12 5 70 88 rlineto
          6 -631 rmoveto
          64 448 -123 -8 rlineto
          hintmask 10010100
          -51 -436 rlineto
          -9 hlineto
          -200 441 rlineto
          -141 hlineto
          -50 -453 -31 -190 rlineto
          121 hlineto
          22 221 rlineto
          hintmask 01100100
          29 220 rlineto
          9 hlineto
          199 -441 rlineto
          142 hlineto
          endchar
        </CharString>
        <CharString name="O">
          103 -10 102 453 107 hstem
          37 137 305 140 vstem
          369 652 rmoveto
          -215 -117 -153 -236 -178 94 -95 155 214 119 158 236 177 -94 91 -156 hvcurveto
          -16 -107 rmoveto
          90 36 -52 -120 -200 -63 -81 -117 -89 -36 53 121 199 62 80 117 hvcurveto
          endchar
        </CharString>
        <CharString name="OE">
          319 -12 102 -90 106.5 -7.5 7.5 168 104 -7.5 8.5 159.5 104 -95 107 -22 10 hstemhm
          36 138 hintmask 0000000000000000
          hintmask 1001001010000000
          397 655 rmoveto
          -223 -138 -150 -244 -172 92 -101 166 hvcurveto
          hintmask 0101010010000000
          69 72 14 -2 59 hvcurveto
          297 hlineto
          hintmask 0011010010000000
          21 99 -7 10 rlineto
          hintmask 0101010010000000
          -158 -5 -107 1 11 97 8 72 98 1 113 -3 rlineto
          hintmask 0100110010000000
          22 99 -6 10 rlineto
          hintmask 0101010010000000
          -107 -3 -103 1 20 160 rlineto
          117 hlineto
          146 -5 rlineto
          hintmask 0101000110000000
          22 99 -7 10 rlineto
          hintmask 0101010010000000
          -300 hlineto
          hintmask 1001001010000000
          -56 -53 12 -68 hhcurveto
          -25 -107 rmoveto
          40 32 -6 -8 11 hvcurveto
          8 -5 1 -12 -2 -25 -38 -347 rcurveline
          -3 -24 -7 -12 -16 -7 rrcurveto
          -7 -14 -31 -5 -35 hhcurveto
          -99 -45 57 118 199 67 84 131 hvcurveto
          endchar
        </CharString>
        <CharString name="Oacute">
          103 -10 102 453 107 hstem
          37 137 306 139 vstem
          486 884 rmoveto
          -12 3 -70 -41 -65 -35 -72 -36 rlinecurve
          21 -54 13 -4 70 24 68 24 76 30 rlinecurve
          4 12 rlineto
          -150 -155 rmoveto
          -214 -118 -153 -236 -178 94 -95 155 215 118 158 236 177 -94 91 -156 hvcurveto
          -15 -107 rmoveto
          89 37 -52 -120 -200 -64 -81 -117 -89 -36 53 121 199 62 80 118 hvcurveto
          endchar
        </CharString>
        <CharString name="Obreve">
          103 -10 102 453 107 69 90 hstem
          37 137 306 139 vstem
          509 867 rmoveto
          -19 hlineto
          -36 -21 -38 -20 -46 hhcurveto
          -47 -35 20 36 -13 hvcurveto
          -19 hlineto
          -35 -41 rlineto
          -68 17 52 -37 76 hhcurveto
          70 52 37 68 31 hvcurveto
          -165 -174 rmoveto
          -214 -118 -153 -236 -178 94 -95 155 215 118 158 236 177 -94 91 -156 hvcurveto
          -15 -107 rmoveto
          89 37 -52 -120 -200 -64 -81 -117 -89 -36 53 121 199 62 80 118 hvcurveto
          endchar
        </CharString>
        <CharString name="Ocaron">
          103 -10 102 453 107 hstem
          37 137 306 139 vstem
          513 874 rmoveto
          -14 hlineto
          -40 -21 -40 -21 -38 -22 -34 22 -32 21 -34 21 rrcurveto
          -12 hlineto
          -31 -52 45 -33 42 -34 38 -36 rlinecurve
          27 hlineto
          42 36 47 34 51 33 rrcurveto
          -161 -170 rmoveto
          -214 -118 -153 -236 -178 94 -95 155 215 118 158 236 177 -94 91 -156 hvcurveto
          -15 -107 rmoveto
          89 37 -52 -120 -200 -64 -81 -117 -89 -36 53 121 199 62 80 118 hvcurveto
          endchar
        </CharString>
        <CharString name="Ocircumflex">
          103 -10 102 453 107 hstem
          37 137 306 139 vstem
          258 727 rmoveto
          13 hlineto
          39 21 41 21 39 22 33 -22 32 -21 34 -21 rrcurveto
          13 hlineto
          30 52 -45 33 -42 34 -37 36 rlinecurve
          -28 hlineto
          -42 -36 -47 -34 -51 -33 rrcurveto
          129 -127 rmoveto
          -214 -118 -153 -236 -178 94 -95 155 215 118 158 236 177 -94 91 -156 hvcurveto
          -15 -107 rmoveto
          89 37 -52 -120 -200 -64 -81 -117 -89 -36 53 121 199 62 80 118 hvcurveto
          endchar
        </CharString>
        <CharString name="Ocircumflexacute">
          103 -10 102 453 107 hstem
          37 137 306 139 vstem
          584 963 rmoveto
          -64 29 -10 -4 -70 -123 44 -33 rlineto
          9 hlineto
          94 121 rlineto
          -212 -90 rmoveto
          -42 -36 -47 -34 -51 -33 18 -52 rcurveline
          13 hlineto
          39 21 41 21 38 22 34 -22 31 -21 35 -21 rrcurveto
          13 hlineto
          30 52 -45 33 -43 34 -37 36 rlinecurve
          -33 -211 rmoveto
          -214 -118 -153 -236 -178 94 -95 155 215 118 158 236 177 -94 91 -156 hvcurveto
          -15 -107 rmoveto
          89 37 -52 -120 -200 -64 -81 -117 -89 -36 53 121 199 62 80 118 hvcurveto
          endchar
        </CharString>
        <CharString name="Ocircumflexdotbelow">
          103 -195 139 46 102 453 107 hstem
          37 137 58 136 112 139 vstem
          259 727 rmoveto
          13 hlineto
          39 21 41 21 39 22 33 -22 32 -21 34 -21 rrcurveto
          13 hlineto
          30 52 -45 33 -42 34 -37 36 rlinecurve
          -28 hlineto
          -42 -36 -47 -34 -51 -33 rrcurveto
          128 -127 rmoveto
          -214 -118 -153 -236 -178 94 -95 155 215 118 158 236 177 -94 91 -156 hvcurveto
          -15 -107 rmoveto
          89 37 -52 -120 -200 -64 -81 -117 -89 -36 53 121 199 62 80 118 hvcurveto
          -51 -601 rmoveto
          -44 -27 -28 -44 -42 23 -25 43 43 27 28 45 41 -24 25 -41 hvcurveto
          endchar
        </CharString>
        <CharString name="Ocircumflexgrave">
          103 -10 102 453 107 hstem
          37 137 306 139 vstem
          472 988 rmoveto
          -9 4 -66 -29 -2 -10 94 -121 rlineto
          9 hlineto
          44 33 rlineto
          -167 -3 rmoveto
          -42 -36 -47 -34 -51 -33 18 -52 rcurveline
          13 hlineto
          39 21 41 21 38 22 34 -22 31 -21 35 -21 rrcurveto
          13 hlineto
          30 52 -45 33 -43 34 -37 36 rlinecurve
          -33 -210 rmoveto
          -214 -118 -153 -236 -178 94 -95 155 215 118 158 236 177 -94 91 -156 hvcurveto
          -15 -107 rmoveto
          89 37 -52 -120 -200 -64 -81 -117 -89 -36 53 121 199 62 80 118 hvcurveto
          endchar
        </CharString>
        <CharString name="Ocircumflexhookabove">
          103 -10 102 453 107 327 57 hstemhm
          37 137 306 139 -129 66 hintmask 00000000
          hintmask 11110100
          481 1036 rmoveto
          -34 -37 -18 -29 -28 hvcurveto
          21 -34 rlineto
          15 19 23 9 18 hhcurveto
          15 12 -7 -14 -18 -19 -27 -30 -22 hvcurveto
          39 -63 45 27 -21 36 rlineto
          38 34 14 20 24 vvcurveto
          40 -33 27 -42 vhcurveto
          -107 -173 rmoveto
          -42 -36 -47 -34 -51 -33 18 -52 rcurveline
          13 hlineto
          39 21 41 21 39 22 33 -22 32 -21 34 -21 rrcurveto
          13 hlineto
          30 52 -45 33 -42 34 -37 36 rlinecurve
          hintmask 11011000
          -33 -211 rmoveto
          -214 -118 -153 -236 -178 94 -95 155 215 118 158 236 177 -94 91 -156 hvcurveto
          -15 -107 rmoveto
          89 37 -52 -120 -200 -64 -81 -117 -89 -36 53 121 199 62 80 118 hvcurveto
          endchar
        </CharString>
        <CharString name="Ocircumflextilde">
          103 -10 102 453 107 hstem
          37 137 306 139 vstem
          580 981 rmoveto
          -35 36 rlineto
          -11 hlineto
          -26 -23 -16 -23 -18 hhcurveto
          -24 -76 28 6 -43 hvcurveto
          -12 -5 -64 -81 rlineto
          -11 vlineto
          36 -36 rlineto
          10 hlineto
          25 22 17 23 18 hhcurveto
          25 76 -28 -6 43 hvcurveto
          11 5 64 83 rlineto
          -197 -108 rmoveto
          -42 -35 -46 -34 -52 -33 18 -53 rcurveline
          13 hlineto
          39 22 41 20 39 22 33 -22 32 -20 34 -22 rrcurveto
          13 hlineto
          30 53 -45 33 -42 34 -37 35 rlinecurve
          -42 -211 rmoveto
          -214 -118 -153 -236 -178 94 -95 155 215 118 158 236 177 -94 91 -156 hvcurveto
          -15 -107 rmoveto
          89 37 -52 -120 -200 -64 -81 -117 -89 -36 53 121 199 62 80 118 hvcurveto
          endchar
        </CharString>
        <CharString name="Odieresis">
          103 -10 102 453 107 81 126 hstemhm
          37 137 62 123 52 122 -53 139 hintmask 11111010
          301 859 rmoveto
          -40 -25 -25 -40 -39 21 -22 39 39 24 25 41 37 -22 23 -36 hvcurveto
          hintmask 11111100
          174 -1 rmoveto
          -40 -24 -25 -40 -39 21 -22 38 39 24 26 40 37 -21 23 -37 hvcurveto
          hintmask 11111010
          -106 -206 rmoveto
          -214 -118 -153 -236 -178 94 -95 155 215 118 158 236 177 -94 91 -156 hvcurveto
          -15 -107 rmoveto
          89 37 -52 -120 -200 -64 -81 -117 -89 -36 53 121 199 62 80 118 hvcurveto
          endchar
        </CharString>
        <CharString name="Odotbelow">
          103 -195 139 46 102 453 107 hstem
          37 137 58 136 112 139 vstem
          369 652 rmoveto
          -214 -118 -153 -236 -178 94 -95 155 215 118 158 236 177 -94 91 -156 hvcurveto
          -15 -107 rmoveto
          89 37 -52 -120 -200 -64 -81 -117 -89 -36 53 121 199 62 80 118 hvcurveto
          -51 -601 rmoveto
          -44 -27 -28 -44 -42 23 -25 43 43 27 28 45 41 -24 25 -41 hvcurveto
          endchar
        </CharString>
        <CharString name="Ograve">
          103 -10 102 453 107 hstem
          37 137 306 139 vstem
          293 886 rmoveto
          -33 -77 4 -12 76 -30 68 -24 70 -25 rlinecurve
          13 4 21 55 -72 36 -66 35 -69 41 rlinecurve
          64 -237 rmoveto
          -214 -118 -153 -236 -178 94 -95 155 215 118 158 236 177 -94 91 -156 hvcurveto
          -15 -107 rmoveto
          89 37 -52 -120 -200 -64 -81 -117 -89 -36 53 121 199 62 80 118 hvcurveto
          endchar
        </CharString>
        <CharString name="Ohm">
          206 0 99 -84 -21 25 -21 548 106 hstemhm
          96 136 305 139 hintmask 10011100
          415 652 rmoveto
          -206 -113 -145 -172 -82 25 -84 55 -65 hvcurveto
          -2 -5 rlineto
          -59 hlineto
          -88 7 rlineto
          hintmask 00111100
          -28 -101 7 -9 rlineto
          hintmask 10011100
          95 4 rlineto
          160 hlineto
          36 -2 7 5 10 85 rlineto
          -54 58 -28 85 90 vvcurveto
          139 61 86 112 98 34 -66 -90 -105 -47 -110 -104 -87 vhcurveto
          -10 -85 5 -5 37 2 rlineto
          137 hlineto
          hintmask 01011100
          111 -6 rlineto
          hintmask 10011100
          28 106 -6 8 -82 -9 rlineto
          -76 hlineto
          -2 5 rlineto
          100 92 48 109 103 vvcurveto
          140 -87 104 -174 vhcurveto
          endchar
        </CharString>
        <CharString name="Ohookabove">
          103 -10 102 453 107 205 61 hstem
          37 137 203 70 33 139 vstem
          368 918 rmoveto
          -36 -39 -19 -31 -29 hvcurveto
          22 -35 rlineto
          16 20 24 8 19 hhcurveto
          16 12 -7 -15 -18 -19 -28 -32 -24 hvcurveto
          41 -65 47 27 -22 38 rlineto
          40 35 15 21 27 vvcurveto
          41 -34 29 -45 vhcurveto
          1 -266 rmoveto
          -214 -118 -153 -236 -178 94 -95 155 215 118 158 236 177 -94 91 -156 hvcurveto
          -15 -107 rmoveto
          89 37 -52 -120 -200 -64 -81 -117 -89 -36 53 121 199 62 80 118 hvcurveto
          endchar
        </CharString>
        <CharString name="Ohorn">
          107 -10 102 453 78 -78 107 hstemhm
          37 137 306 138 -18 102 hintmask 00000000
          hintmask 11010100
          646 775 rmoveto
          -21 -25 -12 -13 -19 hvcurveto
          -4 -10 rlineto
          15 -16 8 -22 -21 vvcurveto
          -38 -28 -20 -37 vhcurveto
          hintmask 10111000
          -43 -40 29 -89 hhcurveto
          -196 -130 -152 -228 -189 89 -93 159 210 123 162 228 77 -14 57 -33 47 hvcurveto
          hintmask 10110100
          73 10 58 50 74 vvcurveto
          hintmask 11010100
          48 -24 32 -32 vhcurveto
          hintmask 10111000
          -293 -230 rmoveto
          95 32 -55 -124 -189 -64 -85 -115 -96 -31 56 126 187 63 84 116 hvcurveto
          endchar
        </CharString>
        <CharString name="Ohornacute">
          107 -10 102 453 78 -78 107 hstemhm
          37 137 306 138 -18 102 hintmask 10111000
          486 884 rmoveto
          -12 3 -70 -41 -65 -35 -72 -36 rlinecurve
          21 -54 13 -4 70 24 68 24 76 30 rlinecurve
          4 12 rlineto
          hintmask 11010100
          127 -32 rmoveto
          -20 -25 -12 -13 -20 hvcurveto
          -3 -10 rlineto
          15 -16 7 -22 -21 vvcurveto
          -38 -28 -20 -36 vhcurveto
          hintmask 10111000
          -44 -39 29 -89 hhcurveto
          -196 -131 -152 -228 -189 90 -93 159 209 123 162 228 77 -14 57 -32 47 hvcurveto
          hintmask 10110100
          73 10 57 50 74 vvcurveto
          hintmask 11010100
          48 -24 32 -32 vhcurveto
          hintmask 10111000
          -293 -230 rmoveto
          95 32 -55 -124 -189 -64 -85 -115 -96 -31 56 126 187 63 84 116 hvcurveto
          endchar
        </CharString>
        <CharString name="Ohorndotbelow">
          107 -195 139 46 102 453 78 -78 107 hstemhm
          37 137 58 136 112 138 -18 102 hintmask 00000000
          hintmask 11101001
          646 775 rmoveto
          -20 -25 -12 -13 -20 hvcurveto
          -3 -10 rlineto
          15 -16 7 -22 -21 vvcurveto
          -38 -28 -20 -36 vhcurveto
          hintmask 11011010
          -44 -39 29 -89 hhcurveto
          -196 -131 -152 -228 -189 90 -93 159 209 123 162 228 77 -14 57 -32 47 hvcurveto
          hintmask 11011001
          73 10 57 50 74 vvcurveto
          hintmask 11101001
          48 -24 32 -32 vhcurveto
          hintmask 11011110
          -293 -230 rmoveto
          95 32 -55 -124 -189 -64 -85 -115 -96 -31 56 126 187 63 84 116 hvcurveto
          -50 -601 rmoveto
          -44 -27 -28 -44 -42 23 -25 43 43 27 28 45 41 -24 25 -41 hvcurveto
          endchar
        </CharString>
        <CharString name="Ohorngrave">
          107 -10 102 453 78 -78 107 hstemhm
          37 137 306 138 -18 102 hintmask 10111000
          293 886 rmoveto
          -33 -77 4 -12 76 -30 68 -24 70 -25 rlinecurve
          13 4 21 55 -72 36 -66 35 -69 41 rlinecurve
          hintmask 11010100
          341 -114 rmoveto
          -20 -25 -12 -13 -20 hvcurveto
          -3 -10 rlineto
          15 -16 7 -22 -21 vvcurveto
          -38 -28 -20 -36 vhcurveto
          hintmask 10111000
          -44 -39 29 -89 hhcurveto
          -196 -131 -152 -228 -189 90 -93 159 209 123 162 228 77 -14 57 -32 47 hvcurveto
          hintmask 10110100
          73 10 57 50 74 vvcurveto
          hintmask 11010100
          48 -24 32 -32 vhcurveto
          hintmask 10111000
          -293 -230 rmoveto
          95 32 -55 -124 -189 -64 -85 -115 -96 -31 56 126 187 63 84 116 hvcurveto
          endchar
        </CharString>
        <CharString name="Ohornhookabove">
          107 -10 102 453 78 -78 107 205 61 hstemhm
          37 137 203 70 33 138 -18 102 hintmask 10111110
          368 918 rmoveto
          -36 -39 -19 -31 -29 hvcurveto
          22 -35 rlineto
          16 20 24 8 19 hhcurveto
          16 12 -7 -15 -18 -19 -28 -32 -24 hvcurveto
          41 -65 47 27 -22 38 rlineto
          40 35 15 21 27 vvcurveto
          41 -34 29 -45 vhcurveto
          hintmask 11011101
          278 -143 rmoveto
          -20 -25 -12 -13 -20 hvcurveto
          -3 -10 rlineto
          15 -16 7 -22 -21 vvcurveto
          -38 -28 -20 -36 vhcurveto
          hintmask 10111110
          -44 -39 29 -89 hhcurveto
          -196 -131 -152 -228 -189 90 -93 159 209 123 162 228 77 -14 57 -32 47 hvcurveto
          hintmask 10111101
          73 10 57 50 74 vvcurveto
          hintmask 11011101
          48 -24 32 -32 vhcurveto
          hintmask 10111110
          -293 -230 rmoveto
          95 32 -55 -124 -189 -64 -85 -115 -96 -31 56 126 187 63 84 116 hvcurveto
          endchar
        </CharString>
        <CharString name="Ohorntilde">
          107 -10 102 453 78 -78 107 hstemhm
          37 137 306 138 -18 102 hintmask 10111000
          559 840 rmoveto
          -39 38 rlineto
          -11 hlineto
          -27 -25 -17 -24 -20 hhcurveto
          -26 -82 29 6 -47 hvcurveto
          -12 -4 -70 -88 rlineto
          -11 vlineto
          39 -39 rlineto
          12 hlineto
          27 24 17 25 20 hhcurveto
          26 83 -30 -6 46 hvcurveto
          12 5 70 88 rlineto
          hintmask 11010100
          87 -54 rmoveto
          -20 -25 -12 -13 -20 hvcurveto
          -3 -10 rlineto
          15 -16 7 -22 -21 vvcurveto
          -38 -28 -20 -36 vhcurveto
          hintmask 10111000
          -44 -39 29 -89 hhcurveto
          -196 -131 -152 -228 -189 90 -93 159 209 123 162 228 77 -14 57 -32 47 hvcurveto
          hintmask 10110100
          73 10 57 50 74 vvcurveto
          hintmask 11010100
          48 -24 32 -32 vhcurveto
          hintmask 10111000
          -293 -230 rmoveto
          95 32 -55 -124 -189 -64 -85 -115 -96 -31 56 126 187 63 84 116 hvcurveto
          endchar
        </CharString>
        <CharString name="Ohungarumlaut">
          103 -10 102 453 107 hstem
          37 137 306 139 vstem
          262 715 rmoveto
          11 3 43 37 41 38 40 40 rlinecurve
          -1 11 -60 40 -10 -3 -33 -45 -36 -43 -36 -45 rlinecurve
          195 -33 rmoveto
          11 3 42 37 42 38 40 40 rlinecurve
          -1 11 -60 40 -10 -3 -34 -45 -35 -43 -36 -45 rlinecurve
          -6 -96 rmoveto
          -214 -118 -153 -236 -178 94 -95 155 215 118 158 236 177 -94 91 -156 hvcurveto
          -15 -107 rmoveto
          89 37 -52 -120 -200 -64 -81 -117 -89 -36 53 121 199 62 80 118 hvcurveto
          endchar
        </CharString>
        <CharString name="Omacron">
          103 -10 102 453 107 104 82 hstem
          37 137 306 139 vstem
          533 829 rmoveto
          -9 9 rlineto
          -280 hlineto
          -7 -73 9 -9 rlineto
          280 hlineto
          -157 -104 rmoveto
          -214 -118 -153 -236 -178 94 -95 155 215 118 158 236 177 -94 91 -156 hvcurveto
          -15 -107 rmoveto
          89 37 -52 -120 -200 -64 -81 -117 -89 -36 53 121 199 62 80 118 hvcurveto
          endchar
        </CharString>
        <CharString name="Omega">
          206 0 99 -84 -21 25 -21 548 106 hstemhm
          95 136 305 139 hintmask 10011100
          414 652 rmoveto
          -206 -113 -145 -172 -82 25 -84 55 -65 hvcurveto
          -2 -5 rlineto
          -59 hlineto
          -87 7 rlineto
          hintmask 00111100
          -29 -101 7 -9 rlineto
          hintmask 10011100
          95 4 rlineto
          160 hlineto
          36 -2 7 5 10 85 rlineto
          -54 58 -28 85 90 vvcurveto
          139 61 86 112 98 34 -66 -90 -105 -47 -110 -104 -87 vhcurveto
          -10 -85 5 -5 37 2 rlineto
          137 hlineto
          hintmask 01011100
          111 -6 rlineto
          hintmask 10011100
          28 106 -6 8 -82 -9 rlineto
          -76 hlineto
          -2 5 rlineto
          100 92 48 109 103 vvcurveto
          140 -86 104 -175 vhcurveto
          endchar
        </CharString>
        <CharString name="Oogonek">
          103 -197 74 113 102 453 107 hstem
          37 137 138 72 96 139 vstem
          442 25 rmoveto
          116 59 61 130 170 vvcurveto
          177 -94 91 -156 -214 -118 -153 -236 -178 94 -95 155 26 24 2 5 22 vhcurveto
          -17 -25 rlineto
          -20 -28 -9 -28 -26 vvcurveto
          -49 35 -38 55 36 31 16 34 36 vhcurveto
          -11 54 rlineto
          -7 hlineto
          -19 -22 -23 -11 -20 hhcurveto
          -26 -12 15 22 14 6 16 10 17 hvcurveto
          -226 305 rmoveto
          199 62 80 118 89 37 -52 -120 -200 -64 -81 -117 -89 -36 53 121 vhcurveto
          endchar
        </CharString>
        <CharString name="Oslash">
          103 -65 -21 76 102 453 107 -57 -20 hstemhm
          37 137 306 139 hintmask 11101100
          599 692 rmoveto
          -6 14 -67 30 -59 -99 rlineto
          10 -29 -33 5 -36 hhcurveto
          -214 -118 -153 -236 -99 29 -73 53 -46 hvcurveto
          -71 -120 4 -11 69 -31 71 121 rlineto
          -9 28 32 -5 34 hhcurveto
          215 118 158 236 hvcurveto
          hintmask 11011100
          96 -28 71 -50 44 vhcurveto
          -242 -503 rmoveto
          -89 -36 53 121 hvcurveto
          hintmask 11101100
          199 62 80 118 89 37 -52 -120 vhcurveto
          hintmask 11011100
          -200 -64 -81 -117 vhcurveto
          endchar
        </CharString>
        <CharString name="Oslashacute">
          103 -65 -21 76 102 453 107 -57 -20 hstemhm
          37 137 306 139 hintmask 11101100
          276 723 rmoveto
          13 -4 70 24 68 24 76 30 rlinecurve
          4 12 -33 77 -12 3 -70 -41 -65 -35 -72 -36 rlinecurve
          344 -85 rmoveto
          -6 14 -67 30 -59 -99 rlineto
          10 -29 -33 5 -36 hhcurveto
          -214 -118 -153 -236 -99 29 -73 53 -46 hvcurveto
          -71 -120 4 -11 69 -31 71 121 rlineto
          -9 28 32 -5 34 hhcurveto
          215 118 158 236 hvcurveto
          hintmask 11011100
          96 -28 71 -50 44 vhcurveto
          -242 -503 rmoveto
          -89 -36 53 121 hvcurveto
          hintmask 11101100
          199 62 80 118 89 37 -52 -120 vhcurveto
          hintmask 11011100
          -200 -64 -81 -117 vhcurveto
          endchar
        </CharString>
        <CharString name="Otilde">
          103 -10 102 453 107 hstem
          37 137 306 139 vstem
          559 840 rmoveto
          -39 38 rlineto
          -11 hlineto
          -27 -25 -17 -24 -20 hhcurveto
          -26 -82 29 6 -47 hvcurveto
          -12 -4 -70 -88 rlineto
          -11 vlineto
          39 -39 rlineto
          12 hlineto
          27 24 17 25 20 hhcurveto
          26 83 -30 -6 46 hvcurveto
          12 5 70 88 rlineto
          -190 -177 rmoveto
          -214 -118 -153 -236 -178 94 -95 155 215 118 158 236 177 -94 91 -156 hvcurveto
          -15 -107 rmoveto
          89 37 -52 -120 -200 -64 -81 -117 -89 -36 53 121 199 62 80 118 hvcurveto
          endchar
        </CharString>
        <CharString name="P">
          12 21 -21 207 99.5 239 98.5 hstem
          412 138 vstem
          129 643 rmoveto
          -49 -451 -31 -192 rlineto
          132 hlineto
          20 204 rlineto
          3 67 vlineto
          173 109 112 154 114 -74 57 -117 hvcurveto
          -143 -336 rmoveto
          33 236 66 3 rlineto
          69 -4 28 -31 -60 vvcurveto
          -77 -39 -54 -63 -16 vhcurveto
          endchar
        </CharString>
        <CharString name="Q">
          104 -10 102 453 107 hstem
          37 137 305 140 vstem
          684 -98 rmoveto
          -95 23 -88 38 -79 53 rrcurveto
          127 54 70 134 180 vvcurveto
          177 -93 91 -156 -215 -118 -153 -236 -178 93 -95 155 vhcurveto
          11 hlineto
          88 -84 108 -64 119 -43 10 5 rcurveline
          26 23 21 27 20 34 rrcurveto
          -514 378 rmoveto
          199 62 80 117 90 36 -52 -120 -200 -63 -81 -117 -89 -36 53 121 vhcurveto
          endchar
        </CharString>
        <CharString name="R">
          46 11 -21 31 -21 219 100 226.5 98.5 hstemhm
          412 139 hintmask 01111000
          551 481 rmoveto
          105 -72 58 -118 vhcurveto
          -232 -1 -50 -451 -31 -192 rlineto
          133 hlineto
          19 204 2 15 rlineto
          93 hlineto
          hintmask 10111000
          27 -74 30 -74 31 -71 12 -10 rcurveline
          46 3 43 9 44 14 3 15 rcurveline
          -45 73 -41 74 -37 76 rrcurveto
          hintmask 01111000
          89 48 54 82 97 vvcurveto
          -334 -160 rmoveto
          32 223 66 3 rlineto
          64 -3 33 -28 -57 vvcurveto
          -72 -32 -47 -68 -23 vhcurveto
          endchar
        </CharString>
        <CharString name="Racute">
          46 11 -21 31 -21 219 100 226.5 98.5 hstemhm
          412 140 hintmask 01111000
          270 700 rmoveto
          12 -1 64 37 61 38 68 44 rlinecurve
          3 12 -47 70 -13 1 -59 -54 -57 -48 -64 -50 rlinecurve
          314 -268 rmoveto
          105 -73 58 -118 vhcurveto
          -232 -1 -50 -451 -31 -192 rlineto
          132 hlineto
          20 204 2 15 rlineto
          93 hlineto
          hintmask 10111000
          27 -74 30 -74 31 -71 12 -10 rcurveline
          45 3 44 9 43 14 3 15 rcurveline
          -44 73 -41 74 -37 76 rrcurveto
          hintmask 01111000
          90 48 54 82 97 vvcurveto
          -335 -160 rmoveto
          31 223 67 3 rlineto
          65 -3 32 -28 -57 vvcurveto
          -72 -32 -47 -67 -23 vhcurveto
          endchar
        </CharString>
        <CharString name="Rcaron">
          46 11 -21 31 -21 219 100 226.5 98.5 hstemhm
          412 140 hintmask 01111000
          357 703 rmoveto
          55 52 51 49 47 40 -26 49 rcurveline
          -14 hlineto
          -44 -33 -42 -31 -34 -29 -26 29 -32 31 -37 33 rrcurveto
          -13 hlineto
          -38 -49 43 -45 45 -49 37 -47 rlinecurve
          223 -222 rmoveto
          105 -73 58 -118 vhcurveto
          -232 -1 -50 -451 -31 -192 rlineto
          132 hlineto
          20 204 2 15 rlineto
          93 hlineto
          hintmask 10111000
          27 -74 30 -74 31 -71 12 -10 rcurveline
          45 3 44 9 43 14 3 15 rcurveline
          -44 73 -41 74 -37 76 rrcurveto
          hintmask 01111000
          90 48 54 82 97 vvcurveto
          -335 -160 rmoveto
          31 223 67 3 rlineto
          65 -3 32 -28 -57 vvcurveto
          -72 -32 -47 -67 -23 vhcurveto
          endchar
        </CharString>
        <CharString name="Rcommaaccent">
          46 -70 -21 102 -21 31 -21 219 100 226.5 98.5 hstemhm
          216 94 102 140 hintmask 10111110
          552 481 rmoveto
          105 -73 58 -118 vhcurveto
          -232 -1 -50 -451 -31 -192 rlineto
          132 hlineto
          20 204 2 15 rlineto
          93 hlineto
          hintmask 11011110
          27 -74 30 -74 31 -71 12 -10 rcurveline
          45 3 44 9 43 14 3 15 rcurveline
          -44 73 -41 74 -37 76 rrcurveto
          hintmask 10111110
          90 48 54 82 97 vvcurveto
          -335 -160 rmoveto
          31 223 67 3 rlineto
          65 -3 32 -28 -57 vvcurveto
          -72 -32 -47 -67 -23 vhcurveto
          -42 -363 rmoveto
          -30 -8 -27 -12 -26 -16 rrcurveto
          -9 vlineto
          18 -16 10 -17 -21 vvcurveto
          -30 -17 -29 -33 -27 vhcurveto
          1 -9 37 -33 rlineto
          72 51 34 49 52 vvcurveto
          30 -13 24 -26 21 vhcurveto
          endchar
        </CharString>
        <CharString name="S">
          -43 -9 101 456 104 hstem
          74 132 109 135 vstem
          321 652 rmoveto
          -142 -105 -90 -116 hvcurveto
          -175 241 0 -103 vvcurveto
          -41 -36 -35 -62 -47 -64 22 49 -50 vhcurveto
          -15 -8 -32 -122 rlineto
          -28 59 68 -14 61 hhcurveto
          148 105 93 114 hvcurveto
          172 -244 8 97 vvcurveto
          38 36 35 57 40 48 -19 -32 41 vhcurveto
          20 8 35 114 rlineto
          24 -58 -59 9 -45 hhcurveto
          endchar
        </CharString>
        <CharString name="Sacute">
          -43 -9 101 456 104 hstem
          75 131 109 135 vstem
          389 900 rmoveto
          -13 1 -59 -54 -57 -48 -64 -50 rlinecurve
          32 -49 12 -1 64 37 61 38 68 44 rlinecurve
          3 12 rlineto
          -115 -178 rmoveto
          -142 -104 -90 -116 hvcurveto
          -175 240 0 -103 vvcurveto
          -41 -36 -35 -62 -47 -64 22 49 -49 vhcurveto
          -15 -8 -33 -122 rlineto
          -28 59 69 -14 60 hhcurveto
          149 104 93 114 hvcurveto
          172 -244 8 97 vvcurveto
          38 36 35 57 40 48 -19 -32 41 vhcurveto
          21 8 34 114 rlineto
          24 -58 -59 9 -45 hhcurveto
          endchar
        </CharString>
        <CharString name="Scaron">
          -43 -9 101 456 104 hstem
          75 131 109 135 vstem
          443 893 rmoveto
          -14 hlineto
          -44 -33 -42 -31 -34 -29 -26 29 -32 31 -37 33 rrcurveto
          -13 hlineto
          -38 -49 43 -45 45 -49 37 -47 rlinecurve
          28 hlineto
          55 52 51 49 47 40 rrcurveto
          -148 -192 rmoveto
          -142 -104 -90 -116 hvcurveto
          -175 240 0 -103 vvcurveto
          -41 -36 -35 -62 -47 -64 22 49 -49 vhcurveto
          -15 -8 -33 -122 rlineto
          -28 59 69 -14 60 hhcurveto
          149 104 93 114 hvcurveto
          172 -244 8 97 vvcurveto
          38 36 35 57 40 48 -19 -32 41 vhcurveto
          21 8 34 114 rlineto
          24 -58 -59 9 -45 hhcurveto
          endchar
        </CharString>
        <CharString name="Scedilla">
          -43 -200 56 136 100 -79 -21 556 104 hstemhm
          75 131 10 76 23 135 hintmask 10111010
          206 475 rmoveto
          38 36 35 57 40 48 -19 -32 41 vhcurveto
          21 8 34 114 rlineto
          24 -58 -59 9 -45 hhcurveto
          -142 -104 -90 -116 hvcurveto
          hintmask 11011010
          -175 240 0 -103 vvcurveto
          -41 -36 -35 -62 -47 -64 22 49 -49 vhcurveto
          -15 -8 -33 -122 rlineto
          hintmask 10111110
          49 -23 55 -14 52 -4 -15 -66 rcurveline
          49 -28 rlineto
          10 -5 7 -5 -10 vvcurveto
          -14 -10 -8 -15 -20 -20 12 18 -18 vhcurveto
          -6 -2 -10 -55 rlineto
          -16 21 26 -13 35 hhcurveto
          57 36 32 43 23 -10 19 -31 17 hvcurveto
          -34 19 10 39 rlineto
          hintmask 10111010
          133 12 90 88 106 172 -244 8 97 vvcurveto
          endchar
        </CharString>
        <CharString name="Scircumflex">
          -43 -9 101 456 104 hstem
          75 131 109 135 vstem
          189 705 rmoveto
          13 hlineto
          45 33 41 31 33 29 26 -29 33 -31 37 -33 rrcurveto
          13 hlineto
          39 49 -43 44 -44 50 -36 47 rlinecurve
          -28 hlineto
          -56 -52 -52 -49 -47 -40 rrcurveto
          158 -102 rmoveto
          -142 -104 -90 -116 hvcurveto
          -175 240 0 -103 vvcurveto
          -41 -36 -35 -62 -47 -64 22 49 -49 vhcurveto
          -15 -8 -33 -122 rlineto
          -28 59 69 -14 60 hhcurveto
          149 104 93 114 hvcurveto
          172 -244 8 97 vvcurveto
          38 36 35 57 40 48 -19 -32 41 vhcurveto
          21 8 34 114 rlineto
          24 -58 -59 9 -45 hhcurveto
          endchar
        </CharString>
        <CharString name="Scommaaccent">
          -43 -70 -21 82 101 456 104 hstemhm
          75 131 -34 94 49 135 hintmask 11110100
          321 652 rmoveto
          -142 -104 -90 -116 hvcurveto
          -175 240 0 -103 vvcurveto
          -41 -36 -35 -62 -47 -64 22 49 -49 vhcurveto
          -15 -8 -33 -122 rlineto
          -28 59 69 -14 60 hhcurveto
          149 104 93 114 hvcurveto
          172 -244 8 97 vvcurveto
          38 36 35 57 40 48 -19 -32 41 vhcurveto
          21 8 34 114 rlineto
          24 -58 -59 9 -45 hhcurveto
          hintmask 11101100
          -94 -698 rmoveto
          -30 -8 -27 -12 -26 -16 rrcurveto
          -9 vlineto
          18 -16 10 -17 -21 vvcurveto
          -30 -17 -29 -33 -27 vhcurveto
          1 -9 37 -33 rlineto
          72 51 34 49 52 vvcurveto
          30 -13 24 -26 21 vhcurveto
          endchar
        </CharString>
        <CharString name="T">
          -39 21 -21 541 102 -10 10 hstemhm
          54 471 hintmask 00000000
          hintmask 10110000
          525 633 rmoveto
          -6 10 rlineto
          hintmask 11010000
          -443 hlineto
          -22 -98 7 -10 121 6 rlineto
          39 hlineto
          -38 -349 -32 -192 rlineto
          132 hlineto
          20 204 47 337 rlineto
          38 hlineto
          117 -6 rlineto
          endchar
        </CharString>
        <CharString name="Tbar">
          -39 21 -21 269 72 200 102 -10 10 hstemhm
          54 471 -338 119.5 hintmask 11101000
          349 541 rmoveto
          39 hlineto
          116 -6 rlineto
          hintmask 11011000
          21 98 -6 10 rlineto
          hintmask 11101000
          -444 hlineto
          -21 -98 7 -10 rlineto
          hintmask 11100100
          120 6 rlineto
          40 hlineto
          -22 -200 rlineto
          -96 hlineto
          -5 -64 8 -8 rlineto
          85 hlineto
          -8 -77 -32 -192 rlineto
          132 hlineto
          19 204 9 65 rlineto
          103 hlineto
          6 63 -9 9 rlineto
          -90 hlineto
          endchar
        </CharString>
        <CharString name="Tcaron">
          -39 21 -21 541 102 -10 10 hstemhm
          54 471 hintmask 11010000
          315 703 rmoveto
          55 52 51 49 47 40 -26 49 rcurveline
          -14 hlineto
          -44 -33 -42 -31 -34 -29 -26 29 -32 31 -37 33 rrcurveto
          -13 hlineto
          -38 -49 43 -45 45 -49 37 -47 rlinecurve
          hintmask 10110000
          238 -70 rmoveto
          -6 10 rlineto
          hintmask 11010000
          -444 hlineto
          -21 -98 7 -10 120 6 rlineto
          40 hlineto
          -38 -349 -32 -192 rlineto
          132 hlineto
          19 204 47 337 rlineto
          39 hlineto
          116 -6 rlineto
          endchar
        </CharString>
        <CharString name="Tcedilla">
          -39 -193 52 162 -21 541 102 -10 10 hstemhm
          232 73 hintmask 00000000
          hintmask 11011000
          525 633 rmoveto
          -6 10 rlineto
          hintmask 11101000
          -444 hlineto
          -21 -98 7 -10 120 6 rlineto
          40 hlineto
          -38 -349 -32 -192 rlineto
          37 hlineto
          -16 -71 46 -27 rlineto
          9 -6 5 -5 -11 vvcurveto
          -13 -8 -8 -14 -19 -18 11 18 -17 vhcurveto
          -6 -2 -9 -52 rlineto
          -14 20 25 -13 31 hhcurveto
          53 35 30 41 23 -11 17 -28 17 hvcurveto
          -31 19 10 46 rlineto
          38 hlineto
          19 204 47 337 rlineto
          39 hlineto
          116 -6 rlineto
          endchar
        </CharString>
        <CharString name="Tcommaaccent">
          -39 -70 -21 112 -21 541 102 -10 10 hstemhm
          174 94 hintmask 00000000
          hintmask 11011000
          525 633 rmoveto
          -6 10 rlineto
          hintmask 11101000
          -444 hlineto
          -21 -98 7 -10 120 6 rlineto
          40 hlineto
          -38 -349 -32 -192 rlineto
          132 hlineto
          19 204 47 337 rlineto
          39 hlineto
          116 -6 rlineto
          -275 -581 rmoveto
          -30 -8 -27 -12 -26 -16 rrcurveto
          -9 vlineto
          18 -16 10 -17 -21 vvcurveto
          -30 -17 -29 -33 -27 vhcurveto
          1 -9 37 -33 rlineto
          72 51 34 49 52 vvcurveto
          30 -13 24 -26 21 vhcurveto
          endchar
        </CharString>
        <CharString name="Thorn">
          19 21 -21 108 99 236 99 101 -20 hstem
          406 137 vstem
          249 542 rmoveto
          14 101 rlineto
          -134 hlineto
          -50 -451 -30 -192 rlineto
          133 hlineto
          10 108 rlineto
          71 hlineto
          171 109 111 153 113 -74 57 -116 hvcurveto
          -151 -333 rmoveto
          33 232 75 4 rlineto
          69 -4 27 -30 -59 vvcurveto
          -77 -38 -54 -64 -16 vhcurveto
          endchar
        </CharString>
        <CharString name="U">
          94 -9 109 543 -20 hstem
          58 127 vstem
          568 317 rmoveto
          45 326 rlineto
          -133 hlineto
          -44 -405 rlineto
          -94 -11 -47 -44 -85 hhcurveto
          -73 -35 34 73 12 1 12 2 14 hvcurveto
          55 398 rlineto
          -132 hlineto
          -36 -323 -13 -93 rlineto
          -3 -17 -1 -17 -15 vvcurveto
          -121 86 -66 139 163 94 88 154 17 vhcurveto
          endchar
        </CharString>
        <CharString name="Uacute">
          94 -9 109 543 -20 hstem
          58 127 vstem
          482 884 rmoveto
          -12 3 -70 -41 -65 -35 -72 -36 rlinecurve
          21 -54 13 -4 70 24 68 24 76 30 rlinecurve
          4 12 rlineto
          53 -490 rmoveto
          45 326 rlineto
          -133 hlineto
          -44 -405 rlineto
          -94 -11 -47 -44 -85 hhcurveto
          -73 -35 34 73 12 1 12 1 14 hvcurveto
          55 398 rlineto
          -131 hlineto
          -36 -323 -13 -93 rlineto
          -3 -17 -1 -17 -15 vvcurveto
          -121 85 -66 140 163 94 88 154 17 vhcurveto
          endchar
        </CharString>
        <CharString name="Ubreve">
          94 -9 109 543 -20 86 91 hstem
          58 127 vstem
          504 877 rmoveto
          -19 hlineto
          -51 -22 -38 -26 -49 hhcurveto
          -48 -33 26 51 -10 hvcurveto
          -19 hlineto
          -35 -44 rlineto
          -67 9 38 -57 92 hhcurveto
          81 52 55 69 25 hvcurveto
          40 -516 rmoveto
          45 326 rlineto
          -133 hlineto
          -44 -405 rlineto
          -94 -11 -47 -44 -85 hhcurveto
          -73 -35 34 73 12 1 12 1 14 hvcurveto
          55 398 rlineto
          -131 hlineto
          -36 -323 -13 -93 rlineto
          -3 -17 -1 -17 -15 vvcurveto
          -121 85 -66 140 163 94 88 154 17 vhcurveto
          endchar
        </CharString>
        <CharString name="Ucaron">
          94 -9 109 543 -20 hstem
          58 127 vstem
          509 893 rmoveto
          -14 hlineto
          -44 -33 -42 -31 -34 -29 -26 29 -32 31 -37 33 rrcurveto
          -13 hlineto
          -38 -49 43 -45 45 -49 37 -47 rlinecurve
          28 hlineto
          55 52 51 49 47 40 rrcurveto
          33 -527 rmoveto
          45 326 rlineto
          -133 hlineto
          -44 -405 rlineto
          -94 -11 -47 -44 -85 hhcurveto
          -73 -35 34 73 12 1 12 1 14 hvcurveto
          55 398 rlineto
          -131 hlineto
          -36 -323 -13 -93 rlineto
          -3 -17 -1 -17 -15 vvcurveto
          -121 85 -66 140 163 94 88 154 17 vhcurveto
          endchar
        </CharString>
        <CharString name="Ucircumflex">
          94 -9 109 543 -20 hstem
          58 127 vstem
          254 727 rmoveto
          13 hlineto
          39 21 41 21 39 22 33 -22 32 -21 34 -21 rrcurveto
          13 hlineto
          30 52 -45 33 -42 34 -37 36 rlinecurve
          -28 hlineto
          -42 -36 -47 -34 -51 -33 rrcurveto
          332 -462 rmoveto
          45 326 rlineto
          -133 hlineto
          -44 -405 rlineto
          -94 -11 -47 -44 -85 hhcurveto
          -73 -35 34 73 12 1 12 1 14 hvcurveto
          55 398 rlineto
          -131 hlineto
          -36 -323 -13 -93 rlineto
          -3 -17 -1 -17 -15 vvcurveto
          -121 85 -66 140 163 94 88 154 17 vhcurveto
          endchar
        </CharString>
        <CharString name="Udieresis">
          94 -9 109 543 -20 110 126 hstem
          58 127 47 123 52 122 vstem
          297 859 rmoveto
          -40 -25 -25 -40 -39 21 -22 39 39 24 25 41 37 -22 23 -36 hvcurveto
          174 -1 rmoveto
          -40 -24 -25 -40 -39 21 -22 38 39 24 26 40 37 -21 23 -37 hvcurveto
          97 -541 rmoveto
          45 326 rlineto
          -133 hlineto
          -44 -405 rlineto
          -94 -11 -47 -44 -85 hhcurveto
          -73 -35 34 73 12 1 12 1 14 hvcurveto
          55 398 rlineto
          -131 hlineto
          -36 -323 -13 -93 rlineto
          -3 -17 -1 -17 -15 vvcurveto
          -121 85 -66 140 163 94 88 154 17 vhcurveto
          endchar
        </CharString>
        <CharString name="Udieresisacute">
          94 -9 109 543 -20 92 122 hstem
          58 127 48 120 53 120 vstem
          495 1016 rmoveto
          -11 5 -75 -28 -70 -23 -78 -23 rlinecurve
          12 -57 12 -6 73 11 71 12 80 16 rlinecurve
          6 12 rlineto
          -219 -98 rmoveto
          -39 -24 -25 -38 -37 21 -22 37 39 23 25 39 37 -21 21 -36 hvcurveto
          173 hmoveto
          -39 -24 -25 -38 -37 21 -22 37 39 23 25 39 37 -21 21 -36 hvcurveto
          99 -520 rmoveto
          45 326 rlineto
          -133 hlineto
          -44 -405 rlineto
          -94 -11 -47 -44 -85 hhcurveto
          -73 -35 34 73 12 1 12 1 14 hvcurveto
          55 398 rlineto
          -131 hlineto
          -36 -323 -13 -93 rlineto
          -3 -17 -1 -17 -15 vvcurveto
          -121 85 -66 140 163 94 88 154 17 vhcurveto
          endchar
        </CharString>
        <CharString name="Udieresiscaron">
          94 -9 109 543 -20 92 122 hstem
          58 127 52 121 52 120 vstem
          522 1007 rmoveto
          -13 hlineto
          -40 -22 -40 -20 -39 -22 -33 22 -33 20 -33 22 rrcurveto
          -13 hlineto
          -30 -53 44 -33 43 -34 37 -35 rlinecurve
          28 hlineto
          41 35 47 34 52 33 rrcurveto
          -240 -117 rmoveto
          -39 -24 -25 -38 -37 22 -22 37 38 24 25 39 37 -22 21 -36 hvcurveto
          173 hmoveto
          -39 -24 -25 -38 -37 21 -22 37 39 23 25 39 37 -21 21 -36 hvcurveto
          95 -520 rmoveto
          45 326 rlineto
          -133 hlineto
          -44 -405 rlineto
          -94 -11 -47 -44 -85 hhcurveto
          -73 -35 34 73 12 1 12 1 14 hvcurveto
          55 398 rlineto
          -131 hlineto
          -36 -323 -13 -93 rlineto
          -3 -17 -1 -17 -15 vvcurveto
          -121 85 -66 140 163 94 88 154 17 vhcurveto
          endchar
        </CharString>
        <CharString name="Udieresisgrave">
          94 -9 109 543 -20 92 122 hstem
          58 127 41 121 52 121 vstem
          298 1016 rmoveto
          -30 -81 6 -12 77 -16 70 -12 71 -11 rlinecurve
          13 6 18 57 -73 23 -69 23 -71 28 rlinecurve
          -17 -184 rmoveto
          -41 -26 -26 -40 -36 20 -20 35 41 25 27 40 35 -20 20 -34 hvcurveto
          172 hmoveto
          -40 -26 -26 -40 -36 19 -20 36 40 26 27 40 35 -20 20 -35 hvcurveto
          103 -520 rmoveto
          45 326 rlineto
          -133 hlineto
          -44 -405 rlineto
          -94 -11 -47 -44 -85 hhcurveto
          -73 -35 34 73 12 1 12 1 14 hvcurveto
          55 398 rlineto
          -131 hlineto
          -36 -323 -13 -93 rlineto
          -3 -17 -1 -17 -15 vvcurveto
          -121 85 -66 140 163 94 88 154 17 vhcurveto
          endchar
        </CharString>
        <CharString name="Udieresismacron">
          94 -9 109 543 -20 92 122 58 82 hstem
          58 127 57 120 53 120 vstem
          547 968 rmoveto
          -9 9 rlineto
          -278 hlineto
          -7 -73 10 -9 rlineto
          277 hlineto
          -235 -58 rmoveto
          -39 -24 -25 -38 -37 21 -22 37 39 23 25 39 37 -21 21 -36 hvcurveto
          173 hmoveto
          -39 -24 -25 -38 -37 21 -22 37 39 23 25 39 37 -21 21 -36 hvcurveto
          90 -520 rmoveto
          45 326 rlineto
          -133 hlineto
          -44 -405 rlineto
          -94 -11 -47 -44 -85 hhcurveto
          -73 -35 34 73 12 1 12 1 14 hvcurveto
          55 398 rlineto
          -131 hlineto
          -36 -323 -13 -93 rlineto
          -3 -17 -1 -17 -15 vvcurveto
          -121 85 -66 140 163 94 88 154 17 vhcurveto
          endchar
        </CharString>
        <CharString name="Udotbelow">
          94 -195 139 47 109 543 -20 hstemhm
          58 127 26 136 hintmask 11110000
          568 317 rmoveto
          45 326 rlineto
          -133 hlineto
          -44 -405 rlineto
          -94 -11 -47 -44 -85 hhcurveto
          -73 -35 34 73 12 1 12 1 14 hvcurveto
          55 398 rlineto
          -131 hlineto
          -36 -323 -13 -93 rlineto
          -3 -17 -1 -17 -15 vvcurveto
          -121 85 -66 140 163 94 88 154 17 vhcurveto
          hintmask 11111000
          -275 -289 rmoveto
          -44 -27 -28 -44 -42 23 -25 43 43 27 28 45 41 -24 25 -41 hvcurveto
          endchar
        </CharString>
        <CharString name="Ugrave">
          94 -9 109 543 -20 hstem
          58 127 vstem
          289 886 rmoveto
          -33 -77 4 -12 76 -30 68 -24 70 -25 rlinecurve
          13 4 21 55 -72 36 -66 35 -69 41 rlinecurve
          267 -572 rmoveto
          45 326 rlineto
          -133 hlineto
          -44 -405 rlineto
          -94 -11 -47 -44 -85 hhcurveto
          -73 -35 34 73 12 1 12 1 14 hvcurveto
          55 398 rlineto
          -131 hlineto
          -36 -323 -13 -93 rlineto
          -3 -17 -1 -17 -15 vvcurveto
          -121 85 -66 140 163 94 88 154 17 vhcurveto
          endchar
        </CharString>
        <CharString name="Uhookabove">
          94 -9 109 543 -20 234 61 hstem
          58 127 187 70 vstem
          363 918 rmoveto
          -36 -39 -19 -31 -29 hvcurveto
          22 -35 rlineto
          16 20 24 8 19 hhcurveto
          16 12 -7 -15 -18 -19 -28 -32 -24 hvcurveto
          41 -65 47 27 -22 38 rlineto
          40 35 15 21 27 vvcurveto
          41 -34 29 -45 vhcurveto
          205 -601 rmoveto
          45 326 rlineto
          -133 hlineto
          -44 -405 rlineto
          -94 -11 -47 -44 -85 hhcurveto
          -73 -35 34 73 12 1 12 1 14 hvcurveto
          55 398 rlineto
          -131 hlineto
          -36 -323 -13 -93 rlineto
          -3 -17 -1 -17 -15 vvcurveto
          -121 85 -66 140 163 94 88 154 17 vhcurveto
          endchar
        </CharString>
        <CharString name="Uhorn">
          103 -9 109 543 -20 hstem
          58 127 403 100 vstem
          688 704 rmoveto
          49 -31 35 -34 -20 -22 -11 -14 -20 vhcurveto
          -3 -10 rlineto
          20 -19 10 -19 -22 vvcurveto
          -33 -19 -17 -41 vhcurveto
          -48 hlineto
          -44 -405 rlineto
          -94 -11 -47 -44 -85 hhcurveto
          -73 -35 34 73 12 1 12 1 14 hvcurveto
          55 398 rlineto
          -131 hlineto
          -36 -323 -13 -93 rlineto
          -3 -17 -1 -17 -15 vvcurveto
          -121 85 -66 140 163 94 88 154 17 vhcurveto
          11 84 38 277 rlineto
          51 22 31 41 47 vvcurveto
          endchar
        </CharString>
        <CharString name="Uhornacute">
          103 -9 109 543 -20 hstem
          58 127 403 100 vstem
          270 721 rmoveto
          13 -4 70 24 68 24 76 30 rlinecurve
          4 12 -33 77 -12 3 -70 -41 -65 -35 -72 -36 rlinecurve
          439 -71 rmoveto
          49 -31 35 -34 -20 -22 -11 -14 -20 vhcurveto
          -3 -10 rlineto
          20 -19 10 -19 -22 vvcurveto
          -33 -19 -17 -41 vhcurveto
          -48 hlineto
          -44 -405 rlineto
          -94 -11 -47 -44 -85 hhcurveto
          -73 -35 34 73 12 1 12 1 14 hvcurveto
          55 398 rlineto
          -131 hlineto
          -36 -323 -13 -93 rlineto
          -3 -17 -1 -17 -15 vvcurveto
          -121 85 -66 140 163 94 88 154 17 vhcurveto
          11 84 38 277 rlineto
          51 22 31 41 47 vvcurveto
          endchar
        </CharString>
        <CharString name="Uhorndotbelow">
          103 -195 139 47 109 543 -20 hstemhm
          58 127 28 136 239 100 hintmask 11110100
          688 704 rmoveto
          49 -31 35 -34 -20 -22 -11 -14 -20 vhcurveto
          -3 -10 rlineto
          20 -19 10 -19 -22 vvcurveto
          -33 -19 -17 -41 vhcurveto
          -48 hlineto
          -44 -405 rlineto
          -94 -11 -47 -44 -85 hhcurveto
          -73 -35 34 73 12 1 12 1 14 hvcurveto
          55 398 rlineto
          -131 hlineto
          -36 -323 -13 -93 rlineto
          -3 -17 -1 -17 -15 vvcurveto
          -121 85 -66 140 163 94 88 154 17 vhcurveto
          11 84 38 277 rlineto
          51 22 31 41 47 vvcurveto
          hintmask 11111100
          -404 -760 rmoveto
          -44 -27 -28 -44 -42 23 -25 43 43 27 28 45 41 -24 25 -41 hvcurveto
          endchar
        </CharString>
        <CharString name="Uhorngrave">
          103 -9 109 543 -20 hstem
          58 127 403 100 vstem
          472 722 rmoveto
          21 55 -72 36 -66 35 -69 41 rlinecurve
          -12 -3 -33 -77 4 -12 76 -30 68 -24 70 -25 rlinecurve
          229 -14 rmoveto
          49 -31 35 -34 -20 -22 -11 -14 -20 vhcurveto
          -3 -10 rlineto
          20 -19 10 -19 -22 vvcurveto
          -33 -19 -17 -41 vhcurveto
          -48 hlineto
          -44 -405 rlineto
          -94 -11 -47 -44 -85 hhcurveto
          -73 -35 34 73 12 1 12 1 14 hvcurveto
          55 398 rlineto
          -131 hlineto
          -36 -323 -13 -93 rlineto
          -3 -17 -1 -17 -15 vvcurveto
          -121 85 -66 140 163 94 88 154 17 vhcurveto
          11 84 38 277 rlineto
          51 22 31 41 47 vvcurveto
          endchar
        </CharString>
        <CharString name="Uhornhookabove">
          103 -9 109 543 -20 234 61 hstem
          58 127 173 70 160 100 vstem
          330 857 rmoveto
          16 12 -7 -15 -18 -19 -28 -32 -24 hvcurveto
          41 -65 47 27 -22 38 rlineto
          40 35 15 21 27 vvcurveto
          41 -34 29 -45 -36 -39 -19 -31 -29 vhcurveto
          22 -35 rlineto
          16 20 24 8 19 hhcurveto
          358 -153 rmoveto
          49 -31 35 -34 -20 -22 -11 -14 -20 vhcurveto
          -3 -10 rlineto
          20 -19 10 -19 -22 vvcurveto
          -33 -19 -17 -41 vhcurveto
          -48 hlineto
          -44 -405 rlineto
          -94 -11 -47 -44 -85 hhcurveto
          -73 -35 34 73 12 1 12 1 14 hvcurveto
          55 398 rlineto
          -131 hlineto
          -36 -323 -13 -93 rlineto
          -3 -17 -1 -17 -15 vvcurveto
          -121 85 -66 140 163 94 88 154 17 vhcurveto
          11 84 38 277 rlineto
          51 22 31 41 47 vvcurveto
          endchar
        </CharString>
        <CharString name="Uhorntilde">
          103 -9 109 543 -20 hstem
          58 127 403 100 vstem
          231 720 rmoveto
          12 hlineto
          27 24 17 25 20 hhcurveto
          26 83 -30 -6 46 hvcurveto
          12 5 70 88 rlineto
          11 vlineto
          -39 38 rlineto
          -11 hlineto
          -27 -25 -17 -24 -20 hhcurveto
          -26 -82 29 6 -47 hvcurveto
          -12 -4 -70 -88 rlineto
          -11 vlineto
          496 -55 rmoveto
          49 -31 35 -34 -20 -22 -11 -14 -20 vhcurveto
          -3 -10 rlineto
          20 -19 10 -19 -22 vvcurveto
          -33 -19 -17 -41 vhcurveto
          -48 hlineto
          -44 -405 rlineto
          -94 -11 -47 -44 -85 hhcurveto
          -73 -35 34 73 12 1 12 1 14 hvcurveto
          55 398 rlineto
          -131 hlineto
          -36 -323 -13 -93 rlineto
          -3 -17 -1 -17 -15 vvcurveto
          -121 85 -66 140 163 94 88 154 17 vhcurveto
          11 84 38 277 rlineto
          51 22 31 41 47 vvcurveto
          endchar
        </CharString>
        <CharString name="Uhungarumlaut">
          94 -9 109 543 -20 hstem
          58 127 vstem
          258 715 rmoveto
          11 3 43 37 41 38 40 40 rlinecurve
          -1 11 -60 40 -10 -3 -33 -45 -36 -43 -36 -45 rlinecurve
          195 -33 rmoveto
          11 3 42 37 42 38 40 40 rlinecurve
          -1 11 -60 40 -10 -3 -34 -45 -35 -43 -36 -45 rlinecurve
          197 -431 rmoveto
          45 326 rlineto
          -133 hlineto
          -44 -405 rlineto
          -94 -11 -47 -44 -85 hhcurveto
          -73 -35 34 73 12 1 12 1 14 hvcurveto
          55 398 rlineto
          -131 hlineto
          -36 -323 -13 -93 rlineto
          -3 -17 -1 -17 -15 vvcurveto
          -121 85 -66 140 163 94 88 154 17 vhcurveto
          endchar
        </CharString>
        <CharString name="Umacron">
          94 -9 109 543 -20 133 82 hstem
          58 127 vstem
          529 829 rmoveto
          -9 9 rlineto
          -280 hlineto
          -7 -73 9 -9 rlineto
          280 hlineto
          46 -439 rmoveto
          45 326 rlineto
          -133 hlineto
          -44 -405 rlineto
          -94 -11 -47 -44 -85 hhcurveto
          -73 -35 34 73 12 1 12 1 14 hvcurveto
          55 398 rlineto
          -131 hlineto
          -36 -323 -13 -93 rlineto
          -3 -17 -1 -17 -15 vvcurveto
          -121 85 -66 140 163 94 88 154 17 vhcurveto
          endchar
        </CharString>
        <CharString name="Uogonek">
          93 -197 73 115 109 543 -20 hstem
          58 127 131 70 vstem
          613 643 rmoveto
          -133 hlineto
          -44 -405 rlineto
          -94 -11 -47 -44 -85 hhcurveto
          -73 -35 34 73 12 1 12 1 14 hvcurveto
          55 398 rlineto
          -131 hlineto
          -36 -323 -13 -93 rlineto
          -3 -17 -1 -17 -15 vvcurveto
          -121 85 -66 140 29 27 3 5 25 vhcurveto
          -22 -32 rlineto
          -18 -27 -8 -25 -25 vvcurveto
          -50 34 -37 53 36 30 17 33 36 vhcurveto
          -12 53 rlineto
          -7 hlineto
          -20 -21 -24 -10 -20 hhcurveto
          -24 -11 13 20 14 6 17 11 17 hvcurveto
          48 79 60 40 36 67 10 90 rlinecurve
          11 84 rlineto
          endchar
        </CharString>
        <CharString name="Uring">
          94 -9 109 543 -20 90 55 78 56 hstem
          58 127 102 54 82 54 vstem
          384 902 rmoveto
          -63 -34 -35 -60 -61 35 -33 57 59 39 35 63 56 -32 35 -61 hvcurveto
          -3 -56 rmoveto
          29 13 -15 -25 -26 -15 -12 -26 -27 -14 13 28 24 12 13 28 hvcurveto
          187 -529 rmoveto
          45 326 rlineto
          -133 hlineto
          -44 -405 rlineto
          -94 -11 -47 -44 -85 hhcurveto
          -73 -35 34 73 12 1 12 1 14 hvcurveto
          55 398 rlineto
          -131 hlineto
          -36 -323 -13 -93 rlineto
          -3 -17 -1 -17 -15 vvcurveto
          -121 85 -66 140 163 94 88 154 17 vhcurveto
          endchar
        </CharString>
        <CharString name="Utilde">
          94 -9 109 543 -20 hstem
          58 127 vstem
          555 840 rmoveto
          -39 38 rlineto
          -11 hlineto
          -27 -25 -17 -24 -20 hhcurveto
          -26 -82 29 6 -47 hvcurveto
          -12 -4 -70 -88 rlineto
          -11 vlineto
          39 -39 rlineto
          12 hlineto
          27 24 17 25 20 hhcurveto
          26 83 -30 -6 46 hvcurveto
          12 5 70 88 rlineto
          13 -512 rmoveto
          45 326 rlineto
          -133 hlineto
          -44 -405 rlineto
          -94 -11 -47 -44 -85 hhcurveto
          -73 -35 34 73 12 1 12 1 14 hvcurveto
          55 398 rlineto
          -131 hlineto
          -36 -323 -13 -93 rlineto
          -3 -17 -1 -17 -15 vvcurveto
          -121 85 -66 140 163 94 88 154 17 vhcurveto
          endchar
        </CharString>
        <CharString name="V">
          42 0 124 519 -20 hstem
          60 559 vstem
          330 hmoveto
          289 643 rlineto
          -129 hlineto
          -29 -90 -188 -429 rlineto
          -8 hlineto
          -65 436 -6 83 rlineto
          -134 hlineto
          113 -643 rlineto
          endchar
        </CharString>
        <CharString name="V.ss01">
          -26 0 48 -48 116 341 48 hstemhm
          -126 760 hintmask 10110000
          501 457 rmoveto
          127 hlineto
          6 48 rlineto
          -697 hlineto
          -6 -48 rlineto
          137 hlineto
          76 -409 rlineto
          -264 hlineto
          -6 -48 rlineto
          697 hlineto
          7 48 rlineto
          -267 hlineto
          79 409 rmoveto
          -11 -38 rlineto
          hintmask 01110000
          -138 -303 rlineto
          -8 hlineto
          -48 310 -2 31 rlineto
          endchar
        </CharString>
        <CharString name="W">
          349 0 137 506 -20 hstem
          70 854 vstem
          638 hmoveto
          286 643 rlineto
          -123 hlineto
          -26 -85 -178 -421 rlineto
          -9 hlineto
          -61 415 -3 91 rlineto
          -135 hlineto
          25 -156 -149 -350 rlineto
          -8 hlineto
          -58 428 rlineto
          78 -129 vlineto
          94 -643 rlineto
          141 hlineto
          132 312 rlineto
          9 hlineto
          54 -312 rlineto
          endchar
        </CharString>
        <CharString name="Wacute">
          349 0 137 506 -20 hstem
          70 854 vstem
          588 884 rmoveto
          -12 3 -70 -41 -65 -35 -72 -36 rlinecurve
          21 -54 13 -4 70 24 68 24 76 30 rlinecurve
          4 12 rlineto
          18 -807 rmoveto
          285 643 rlineto
          -122 hlineto
          -27 -85 -178 -421 rlineto
          -9 hlineto
          -61 415 -3 91 rlineto
          -135 hlineto
          25 -156 -149 -350 rlineto
          -8 hlineto
          -58 428 rlineto
          78 -129 vlineto
          95 -643 rlineto
          140 hlineto
          132 312 rlineto
          9 hlineto
          54 -312 rlineto
          endchar
        </CharString>
        <CharString name="Wcircumflex">
          349 0 137 506 -20 hstem
          70 854 vstem
          360 727 rmoveto
          13 hlineto
          39 21 41 21 39 22 33 -22 32 -21 34 -21 rrcurveto
          13 hlineto
          30 52 -45 33 -42 34 -37 36 rlinecurve
          -28 hlineto
          -42 -36 -47 -34 -51 -33 rrcurveto
          297 -779 rmoveto
          285 643 rlineto
          -122 hlineto
          -27 -85 -178 -421 rlineto
          -9 hlineto
          -61 415 -3 91 rlineto
          -135 hlineto
          25 -156 -149 -350 rlineto
          -8 hlineto
          -58 428 rlineto
          78 -129 vlineto
          95 -643 rlineto
          140 hlineto
          132 312 rlineto
          9 hlineto
          54 -312 rlineto
          endchar
        </CharString>
        <CharString name="Wdieresis">
          349 0 137 506 -20 110 126 hstem
          338 123 52 122 vstem
          403 859 rmoveto
          -40 -25 -25 -40 -39 21 -22 39 39 24 25 41 37 -22 23 -36 hvcurveto
          174 -1 rmoveto
          -40 -24 -25 -40 -39 21 -22 38 39 24 26 40 37 -21 23 -37 hvcurveto
          62 -858 rmoveto
          285 643 rlineto
          -122 hlineto
          -27 -85 -178 -421 rlineto
          -9 hlineto
          -61 415 -3 91 rlineto
          -135 hlineto
          25 -156 -149 -350 rlineto
          -8 hlineto
          -58 428 rlineto
          78 -129 vlineto
          95 -643 rlineto
          140 hlineto
          132 312 rlineto
          9 hlineto
          54 -312 rlineto
          endchar
        </CharString>
        <CharString name="Wgrave">
          349 0 137 506 -20 hstem
          70 854 vstem
          395 886 rmoveto
          -33 -77 4 -12 76 -30 68 -24 70 -25 rlinecurve
          13 4 21 55 -72 36 -66 35 -69 41 rlinecurve
          232 -889 rmoveto
          285 643 rlineto
          -122 hlineto
          -27 -85 -178 -421 rlineto
          -9 hlineto
          -61 415 -3 91 rlineto
          -135 hlineto
          25 -156 -149 -350 rlineto
          -8 hlineto
          -58 428 rlineto
          78 -129 vlineto
          95 -643 rlineto
          140 hlineto
          132 312 rlineto
          9 hlineto
          54 -312 rlineto
          endchar
        </CharString>
        <CharString name="X">
          65 21 -21 643 -20 hstem
          -14 634 vstem
          393 330 rmoveto
          227 313 rlineto
          -139 hlineto
          -35 -58 -122 -166 -78 161 -21 63 rlineto
          -155 hlineto
          154 -318 -238 -325 rlineto
          135 hlineto
          35 56 135 177 83 -169 21 -64 rlineto
          154 hlineto
          endchar
        </CharString>
        <CharString name="X.ss01">
          -8 0 48 409 48 hstem
          -126 778 vstem
          338 263 rmoveto
          149 194 rlineto
          159 hlineto
          6 48 rlineto
          -715 hlineto
          -6 -48 rlineto
          156 hlineto
          109 -205 -160 -204 rlineto
          -156 hlineto
          -6 -48 rlineto
          715 hlineto
          6 48 rlineto
          -148 hlineto
          -231 409 rmoveto
          158 hlineto
          -10 -18 -84 -107 -56 102 rlineto
          95 -386 rmoveto
          -173 hlineto
          12 20 94 113 58 -108 rlineto
          endchar
        </CharString>
        <CharString name="Y">
          15 21 -21 643 -20 hstemhm
          200 120.5 hintmask 00000000
          hintmask 11100000
          324 220 rmoveto
          272 423 rlineto
          -138 hlineto
          -24 -47 -148 -244 rlineto
          -9 hlineto
          -76 248 -8 43 rlineto
          -137 hlineto
          146 -422 -4 -41 -30 -180 rlineto
          132 hlineto
          17 180 rlineto
          endchar
        </CharString>
        <CharString name="Yacute">
          15 21 -21 643 -20 hstem
          56 540 vstem
          245 721 rmoveto
          13 -4 70 24 68 24 76 30 rlinecurve
          4 12 -33 77 -12 3 -70 -41 -65 -35 -72 -36 rlinecurve
          99 -557 rmoveto
          273 425 rlineto
          -137 hlineto
          -24 -47 -148 -244 rlineto
          -10 hlineto
          -76 248 -8 43 rlineto
          -137 hlineto
          146 -422 -4 -41 -30 -180 rlineto
          132 hlineto
          17 180 rlineto
          endchar
        </CharString>
        <CharString name="Ycircumflex">
          15 21 -21 643 -20 hstem
          56 540 vstem
          215 727 rmoveto
          13 hlineto
          39 21 41 21 39 22 33 -22 32 -21 34 -21 rrcurveto
          13 hlineto
          30 52 -45 33 -42 34 -37 36 rlinecurve
          -28 hlineto
          -42 -36 -47 -34 -51 -33 rrcurveto
          126 -561 rmoveto
          273 425 rlineto
          -137 hlineto
          -24 -47 -148 -244 rlineto
          -10 hlineto
          -76 248 -8 43 rlineto
          -137 hlineto
          146 -422 -4 -41 -30 -180 rlineto
          132 hlineto
          17 180 rlineto
          endchar
        </CharString>
        <CharString name="Ydieresis">
          15 21 -21 643 -20 110 126 hstem
          193 123 52 122 vstem
          253 733 rmoveto
          39 24 25 41 37 -22 23 -36 -40 -25 -25 -40 -39 21 -22 39 hvcurveto
          174 -1 rmoveto
          39 24 26 40 37 -21 23 -37 -40 -24 -25 -40 -39 21 -22 38 hvcurveto
          -104 -514 rmoveto
          273 425 rlineto
          -137 hlineto
          -24 -47 -148 -244 rlineto
          -10 hlineto
          -76 248 -8 43 rlineto
          -137 hlineto
          146 -422 -4 -41 -30 -180 rlineto
          132 hlineto
          17 180 rlineto
          endchar
        </CharString>
        <CharString name="Ydotbelow">
          15 -195 139 77 -21 643 -20 hstemhm
          156 136 -92 120 hintmask 00000000
          hintmask 11101000
          323 218 rmoveto
          273 425 rlineto
          -137 hlineto
          -24 -47 -148 -244 rlineto
          -10 hlineto
          -76 248 -8 43 rlineto
          -137 hlineto
          146 -422 -4 -41 -30 -180 rlineto
          132 hlineto
          17 180 rlineto
          hintmask 11110000
          -90 -236 rmoveto
          -44 -27 -28 -44 -42 23 -25 43 43 27 28 45 41 -24 25 -41 hvcurveto
          endchar
        </CharString>
        <CharString name="Ygrave">
          15 21 -21 643 -20 hstem
          56 540 vstem
          447 722 rmoveto
          21 55 -72 36 -66 35 -69 41 rlinecurve
          -12 -3 -33 -77 4 -12 76 -30 68 -24 70 -25 rlinecurve
          -111 -500 rmoveto
          273 425 rlineto
          -137 hlineto
          -24 -47 -148 -244 rlineto
          -10 hlineto
          -76 248 -8 43 rlineto
          -137 hlineto
          146 -422 -4 -41 -30 -180 rlineto
          132 hlineto
          17 180 rlineto
          endchar
        </CharString>
        <CharString name="Yhookabove">
          15 21 -21 643 -20 234 61 hstem
          333 70 vstem
          305 857 rmoveto
          16 12 -7 -15 -18 -19 -28 -32 -24 hvcurveto
          41 -65 47 27 -22 38 rlineto
          40 35 15 21 27 vvcurveto
          41 -34 29 -45 -36 -39 -19 -31 -29 vhcurveto
          22 -35 rlineto
          16 20 24 8 19 hhcurveto
          18 -639 rmoveto
          273 425 rlineto
          -137 hlineto
          -24 -47 -148 -244 rlineto
          -10 hlineto
          -76 248 -8 43 rlineto
          -137 hlineto
          146 -422 -4 -41 -30 -180 rlineto
          132 hlineto
          17 180 rlineto
          endchar
        </CharString>
        <CharString name="Ytilde">
          15 21 -21 643 -20 hstem
          56 540 vstem
          206 720 rmoveto
          12 hlineto
          27 24 17 25 20 hhcurveto
          26 83 -30 -6 46 hvcurveto
          12 5 70 88 rlineto
          11 vlineto
          -39 38 rlineto
          -11 hlineto
          -27 -25 -17 -24 -20 hhcurveto
          -26 -82 29 6 -47 hvcurveto
          -12 -4 -70 -88 rlineto
          -11 vlineto
          156 -541 rmoveto
          273 425 rlineto
          -137 hlineto
          -24 -47 -148 -244 rlineto
          -10 hlineto
          -76 248 -8 43 rlineto
          -137 hlineto
          146 -422 -4 -41 -30 -180 rlineto
          132 hlineto
          17 180 rlineto
          endchar
        </CharString>
        <CharString name="Z">
          4 0 101 -83 -21 545 101 hstemhm
          1 548 hintmask 10110000
          537 548 rmoveto
          12 96 -60 -1 rlineto
          -266 hlineto
          -126 2 -24 -105 5 -7 107 9 rlineto
          198 hlineto
          hintmask 01110000
          -370 -451 -12 -95 rlineto
          hintmask 10110000
          76 4 rlineto
          249 hlineto
          hintmask 01110000
          141 -3 rlineto
          hintmask 10110000
          23 105 -4 7 -106 -8 rlineto
          -210 hlineto
          endchar
        </CharString>
        <CharString name="Zacute">
          4 0 101 -83 -21 545 101 hstemhm
          1 548 hintmask 10110000
          398 884 rmoveto
          -12 3 -70 -41 -65 -35 -72 -36 rlinecurve
          21 -54 13 -4 70 24 68 24 76 30 rlinecurve
          4 12 rlineto
          106 -259 rmoveto
          12 96 -60 -1 rlineto
          -266 hlineto
          -126 2 -24 -105 5 -7 107 9 rlineto
          198 hlineto
          hintmask 01110000
          -370 -451 -12 -95 rlineto
          hintmask 10110000
          76 4 rlineto
          249 hlineto
          hintmask 01110000
          141 -3 rlineto
          hintmask 10110000
          23 105 -4 7 -106 -8 rlineto
          -210 hlineto
          endchar
        </CharString>
        <CharString name="Zcaron">
          4 0 101 -83 -21 545 101 hstemhm
          1 548 hintmask 10110000
          425 874 rmoveto
          -14 hlineto
          -40 -21 -40 -21 -38 -22 -34 22 -32 21 -34 21 rrcurveto
          -12 hlineto
          -31 -52 45 -33 42 -34 38 -36 rlinecurve
          27 hlineto
          42 36 47 34 51 33 rrcurveto
          95 -274 rmoveto
          12 96 -60 -1 rlineto
          -266 hlineto
          -126 2 -24 -105 5 -7 107 9 rlineto
          198 hlineto
          hintmask 01110000
          -370 -451 -12 -95 rlineto
          hintmask 10110000
          76 4 rlineto
          249 hlineto
          hintmask 01110000
          141 -3 rlineto
          hintmask 10110000
          23 105 -4 7 -106 -8 rlineto
          -210 hlineto
          endchar
        </CharString>
        <CharString name="Zdotaccent">
          4 0 101 -83 -21 545 101 90 139 hstemhm
          229 136 hintmask 10111000
          300 872 rmoveto
          -44 -27 -28 -44 -42 24 -25 42 43 27 28 44 42 -24 25 -41 hvcurveto
          237 -324 rmoveto
          12 96 -60 -1 rlineto
          -266 hlineto
          -126 2 -24 -105 5 -7 107 9 rlineto
          198 hlineto
          hintmask 01111000
          -370 -451 -12 -95 rlineto
          hintmask 10111000
          76 4 rlineto
          249 hlineto
          hintmask 01111000
          141 -3 rlineto
          hintmask 10111000
          23 105 -4 7 -106 -8 rlineto
          -210 hlineto
          endchar
        </CharString>
        <CharString name="a">
          -11 21 -21 104 91.5 197.5 112 hstem
          -12 476 vstem
          464 hmoveto
          -95 505 rlineto
          -144 hlineto
          -237 -505 rlineto
          119 hlineto
          25 78 12 25 88 2 101 -2 5 -32 3 -71 rlineto
          -24 196 rmoveto
          -66 -1 -65 1 90 197 rlineto
          8 hlineto
          endchar
        </CharString>
        <CharString name="a.sups">
          -205 323 77 185 61 0 -20 hstemhm
          51 79 hintmask 00000000
          hintmask 10110000
          333 645 rmoveto
          -8 5 -53 -12 -56 8 rlineto
          -5 hlineto
          -109 -27 -51 -96 -93 vvcurveto
          -54 16 -34 57 -19 vhcurveto
          13 hlineto
          31 31 26 41 24 46 rrcurveto
          9 hlineto
          -15 -116 84 6 4 73 rlineto
          -152 -4 rmoveto
          -8 -10 17 46 hvcurveto
          hintmask 01010000
          70 24 51 45 1 vhcurveto
          45 -9 -1 -9 -3 -25 rlineto
          hintmask 10110000
          -93 -43 -36 -49 -13 hhcurveto
          endchar
        </CharString>
        <CharString name="aacute">
          -11 21 -21 104 91.5 197.5 112 hstem
          -11 476 vstem
          224 561 rmoveto
          12 -1 64 37 61 38 68 44 rlinecurve
          3 12 -47 70 -13 1 -59 -54 -57 -48 -64 -50 rlinecurve
          273 -610 rmoveto
          -95 505 rlineto
          -144 hlineto
          -237 -505 rlineto
          119 hlineto
          25 78 12 25 86 2 103 -2 5 -32 3 -71 rlineto
          -24 196 rmoveto
          -68 -1 -63 1 90 197 rlineto
          8 hlineto
          endchar
        </CharString>
        <CharString name="abreve">
          -11 21 -21 104 91.5 197.5 112 65 91 hstem
          -11 476 vstem
          300 570 rmoveto
          81 52 55 69 25 hvcurveto
          -24 44 rlineto
          -19 hlineto
          -51 -22 -38 -26 -49 hhcurveto
          -48 -33 26 51 -10 hvcurveto
          -19 hlineto
          -35 -44 rlineto
          -67 9 38 -57 92 hhcurveto
          165 -570 rmoveto
          -95 505 rlineto
          -144 hlineto
          -237 -505 rlineto
          119 hlineto
          25 78 12 25 86 2 103 -2 5 -32 3 -71 rlineto
          -24 196 rmoveto
          -68 -1 -63 1 90 197 rlineto
          8 hlineto
          endchar
        </CharString>
        <CharString name="abreveacute">
          -11 21 -21 104 91.5 197.5 112 57 90 15 41 0 -20 hstemhm
          -11 476 hintmask 11110110
          304 697 rmoveto
          11 2 38 35 37 36 36 36 rlinecurve
          -2 11 -59 39 -10 -2 -30 -43 -30 -41 -31 -41 rlinecurve
          46 -167 rmoveto
          70 52 37 68 31 hvcurveto
          -25 41 rlineto
          -18 hlineto
          -36 -22 -37 -20 -47 hhcurveto
          -47 -34 20 36 -13 hvcurveto
          -19 hlineto
          hintmask 11111010
          -36 -41 rlineto
          hintmask 11110110
          -68 17 52 -37 76 hhcurveto
          155 -562 rmoveto
          -95 505 rlineto
          -144 hlineto
          -237 -505 rlineto
          119 hlineto
          25 78 12 25 86 2 103 -2 5 -32 3 -71 rlineto
          -24 196 rmoveto
          -68 -1 -63 1 90 197 rlineto
          8 hlineto
          endchar
        </CharString>
        <CharString name="abrevedotbelow">
          -11 -195 139 77 -21 104 91.5 197.5 112 65 91 hstem
          158 136 vstem
          300 570 rmoveto
          81 52 55 69 25 hvcurveto
          -24 44 rlineto
          -19 hlineto
          -51 -22 -38 -26 -49 hhcurveto
          -48 -33 26 51 -10 hvcurveto
          -19 hlineto
          -35 -44 rlineto
          -67 9 38 -57 92 hhcurveto
          165 -570 rmoveto
          -95 505 rlineto
          -144 hlineto
          -237 -505 rlineto
          119 hlineto
          25 78 12 25 86 2 103 -2 5 -32 3 -71 rlineto
          -24 196 rmoveto
          -68 -1 -63 1 90 197 rlineto
          8 hlineto
          -56 -449 rmoveto
          -44 -27 -28 -44 -42 23 -25 43 43 27 28 45 41 -24 25 -41 hvcurveto
          endchar
        </CharString>
        <CharString name="abrevegrave">
          -11 21 -21 104 91.5 197.5 112 56 90 15 41 0 -20 hstemhm
          -11 476 hintmask 11110110
          325 697 rmoveto
          41 32 -32 41 -30 41 -30 43 rlinecurve
          -10 2 -60 -39 -1 -11 36 -36 37 -36 38 -35 rlinecurve
          -3 -138 rmoveto
          70 52 37 68 31 hvcurveto
          -25 41 rlineto
          -19 hlineto
          -35 -21 -38 -21 -46 hhcurveto
          -47 -35 20 36 -13 hvcurveto
          -19 hlineto
          hintmask 11111010
          -35 -41 rlineto
          hintmask 11110110
          -68 17 52 -37 76 hhcurveto
          154 -561 rmoveto
          -95 505 rlineto
          -144 hlineto
          -237 -505 rlineto
          119 hlineto
          25 78 12 25 86 2 103 -2 5 -32 3 -71 rlineto
          -24 196 rmoveto
          -68 -1 -63 1 90 197 rlineto
          8 hlineto
          endchar
        </CharString>
        <CharString name="abrevehookabove">
          -11 21 -21 104 91.5 197.5 112 57 91 14 42 0 -20 161 61 hstemhm
          321 70 hintmask 11110111
          293 850 rmoveto
          16 12 -7 -15 -19 -19 -27 -33 -24 hvcurveto
          42 -66 47 28 -23 38 rlineto
          41 35 15 21 27 vvcurveto
          41 -35 29 -44 -37 -38 -20 -31 -29 vhcurveto
          22 -35 rlineto
          16 19 25 9 19 hhcurveto
          17 -288 rmoveto
          70 52 38 67 31 hvcurveto
          -25 42 rlineto
          -18 hlineto
          -36 -22 -37 -20 -47 hhcurveto
          -47 -34 19 37 -13 hvcurveto
          -19 hlineto
          hintmask 11111011
          -36 -42 rlineto
          hintmask 11110111
          -67 17 52 -38 76 hhcurveto
          155 -562 rmoveto
          -95 505 rlineto
          -144 hlineto
          -237 -505 rlineto
          119 hlineto
          25 78 12 25 86 2 103 -2 5 -32 3 -71 rlineto
          -24 196 rmoveto
          -68 -1 -63 1 90 197 rlineto
          8 hlineto
          endchar
        </CharString>
        <CharString name="abrevetilde">
          -11 21 -21 104 91.5 197.5 112 56 86 14 40 0 -20 hstemhm
          -11 507 hintmask 11110110
          496 844 rmoveto
          -35 36 rlineto
          -11 hlineto
          -26 -23 -16 -23 -19 hhcurveto
          -23 -76 28 6 -43 hvcurveto
          -12 -5 -64 -81 rlineto
          -11 vlineto
          36 -36 rlineto
          10 hlineto
          25 22 17 23 18 hhcurveto
          25 75 -28 -6 43 hvcurveto
          12 5 64 83 rlineto
          -70 -133 rmoveto
          -18 hlineto
          -35 -20 -36 -19 -45 hhcurveto
          -44 -33 19 35 -13 hvcurveto
          -18 hlineto
          hintmask 11111010
          -34 -40 rlineto
          hintmask 11110110
          -64 17 49 -36 72 hhcurveto
          67 50 36 64 30 hvcurveto
          -80 -156 rmoveto
          -144 hlineto
          -237 -505 rlineto
          119 hlineto
          25 78 12 25 86 2 103 -2 5 -32 3 -71 rlineto
          123 hlineto
          -147 196 rmoveto
          -68 -1 -63 1 90 197 rlineto
          8 hlineto
          endchar
        </CharString>
        <CharString name="acaron">
          -11 21 -21 104 91.5 197.5 112 200 -20 hstem
          -11 476 vstem
          312 564 rmoveto
          55 52 51 49 47 40 -26 49 rcurveline
          -14 hlineto
          -44 -33 -42 -31 -34 -29 -26 29 -32 31 -37 33 rrcurveto
          -13 hlineto
          -38 -49 43 -45 45 -49 37 -47 rlinecurve
          86 -59 rmoveto
          -144 hlineto
          -237 -505 rlineto
          119 hlineto
          25 78 12 25 86 2 103 -2 5 -32 3 -71 rlineto
          123 hlineto
          -147 196 rmoveto
          -68 -1 -63 1 90 197 rlineto
          8 hlineto
          endchar
        </CharString>
        <CharString name="acircumflex">
          -11 21 -21 104 91.5 197.5 112 hstem
          -11 476 vstem
          184 566 rmoveto
          13 hlineto
          45 33 41 31 33 29 26 -29 33 -31 37 -33 rrcurveto
          13 hlineto
          39 49 -43 44 -44 50 -36 47 rlinecurve
          -28 hlineto
          -56 -52 -52 -49 -47 -40 rrcurveto
          307 -615 rmoveto
          -95 505 rlineto
          -144 hlineto
          -237 -505 rlineto
          119 hlineto
          25 78 12 25 86 2 103 -2 5 -32 3 -71 rlineto
          -24 196 rmoveto
          -68 -1 -63 1 90 197 rlineto
          8 hlineto
          endchar
        </CharString>
        <CharString name="acircumflexacute">
          -11 21 -21 104 91.5 197.5 112 hstem
          -11 524 vstem
          410 693 rmoveto
          9 hlineto
          94 121 -3 10 -64 29 -10 -4 -70 -123 rlineto
          -187 -157 rmoveto
          13 hlineto
          39 21 41 21 38 22 34 -22 31 -21 35 -21 rrcurveto
          13 hlineto
          30 52 -45 33 -43 34 -37 36 rlinecurve
          -27 hlineto
          -42 -36 -47 -34 -51 -33 rrcurveto
          209 -116 rmoveto
          -144 hlineto
          -237 -505 rlineto
          119 hlineto
          25 78 12 25 86 2 103 -2 5 -32 3 -71 rlineto
          123 hlineto
          -147 196 rmoveto
          -68 -1 -63 1 90 197 rlineto
          8 hlineto
          endchar
        </CharString>
        <CharString name="acircumflexdotbelow">
          -11 -195 139 77 -21 104 91.5 197.5 112 hstem
          158 136 vstem
          184 566 rmoveto
          13 hlineto
          45 33 41 31 33 29 26 -29 33 -31 37 -33 rrcurveto
          13 hlineto
          39 49 -43 44 -44 50 -36 47 rlinecurve
          -28 hlineto
          -56 -52 -52 -49 -47 -40 rrcurveto
          307 -615 rmoveto
          -95 505 rlineto
          -144 hlineto
          -237 -505 rlineto
          119 hlineto
          25 78 12 25 86 2 103 -2 5 -32 3 -71 rlineto
          -24 196 rmoveto
          -68 -1 -63 1 90 197 rlineto
          8 hlineto
          -56 -449 rmoveto
          -44 -27 -28 -44 -42 23 -25 43 43 27 28 45 41 -24 25 -41 hvcurveto
          endchar
        </CharString>
        <CharString name="acircumflexgrave">
          -11 21 -21 104 91.5 197.5 112 hstem
          -11 479 vstem
          415 693 rmoveto
          9 hlineto
          44 33 -70 123 -9 4 -66 -29 -2 -10 rlineto
          -142 -246 rmoveto
          13 hlineto
          39 21 41 21 38 22 34 -22 31 -21 35 -21 rrcurveto
          13 hlineto
          30 52 -45 33 -43 34 -37 36 rlinecurve
          -27 hlineto
          -42 -36 -47 -34 -51 -33 rrcurveto
          209 -115 rmoveto
          -144 hlineto
          -237 -505 rlineto
          119 hlineto
          25 78 12 25 86 2 103 -2 5 -32 3 -71 rlineto
          123 hlineto
          -147 196 rmoveto
          -68 -1 -63 1 90 197 rlineto
          8 hlineto
          endchar
        </CharString>
        <CharString name="acircumflexhookabove">
          -11 21 -21 104 91.5 197.5 112 335 57 hstem
          416 66 vstem
          389 840 rmoveto
          15 12 -7 -14 -18 -19 -27 -30 -22 hvcurveto
          39 -63 45 27 -21 36 rlineto
          38 34 14 20 24 vvcurveto
          40 -33 27 -42 -34 -37 -18 -29 -28 vhcurveto
          21 -34 rlineto
          15 19 23 9 18 hhcurveto
          -211 -271 rmoveto
          13 hlineto
          39 21 41 21 39 22 33 -22 32 -21 34 -21 rrcurveto
          13 hlineto
          30 52 -45 33 -42 34 -37 36 rlinecurve
          -28 hlineto
          -42 -36 -47 -34 -51 -33 rrcurveto
          210 -116 rmoveto
          -144 hlineto
          -237 -505 rlineto
          119 hlineto
          25 78 12 25 86 2 103 -2 5 -32 3 -71 rlineto
          123 hlineto
          -147 196 rmoveto
          -68 -1 -63 1 90 197 rlineto
          8 hlineto
          endchar
        </CharString>
        <CharString name="acircumflextilde">
          -11 21 -21 104 91.5 197.5 112 hstem
          -11 517 vstem
          506 842 rmoveto
          -35 36 rlineto
          -11 hlineto
          -26 -23 -16 -23 -18 hhcurveto
          -24 -76 28 6 -43 hvcurveto
          -12 -5 -64 -81 rlineto
          -11 vlineto
          36 -36 rlineto
          10 hlineto
          25 22 17 23 18 hhcurveto
          25 76 -28 -6 43 hvcurveto
          11 5 64 83 rlineto
          -187 -199 rmoveto
          33 -22 32 -20 34 -22 rrcurveto
          13 hlineto
          30 53 -45 33 -42 34 -37 35 rlinecurve
          -28 hlineto
          -42 -35 -46 -34 -52 -33 18 -53 rcurveline
          13 hlineto
          39 22 41 20 39 22 rrcurveto
          51 -128 rmoveto
          -144 hlineto
          -237 -505 rlineto
          119 hlineto
          25 78 12 25 86 2 103 -2 5 -32 3 -71 rlineto
          123 hlineto
          -147 196 rmoveto
          -68 -1 -63 1 90 197 rlineto
          8 hlineto
          endchar
        </CharString>
        <CharString name="acute">
          651 -20 hstem
          121 240 vstem
          314 721 rmoveto
          -13 1 -59 -54 -57 -48 -64 -50 rlinecurve
          32 -49 12 -1 64 37 61 38 68 44 rlinecurve
          3 12 rlineto
          endchar
        </CharString>
        <CharString name="acute.cap">
          708 -20 hstem
          115 252 vstem
          334 705 rmoveto
          -12 3 -70 -41 -65 -35 -72 -36 rlinecurve
          21 -54 13 -4 70 24 68 24 76 30 rlinecurve
          4 12 rlineto
          endchar
        </CharString>
        <CharString name="adieresis">
          -11 21 -21 104 91.5 197.5 112 89 126 hstem
          162 123 52 122 vstem
          222 594 rmoveto
          39 24 25 41 37 -22 23 -36 -40 -25 -25 -40 -39 21 -22 39 hvcurveto
          174 -1 rmoveto
          39 24 26 40 37 -21 23 -37 -40 -24 -25 -40 -39 21 -22 38 hvcurveto
          69 -593 rmoveto
          -95 505 rlineto
          -144 hlineto
          -237 -505 rlineto
          119 hlineto
          25 78 12 25 86 2 103 -2 5 -32 3 -71 rlineto
          -24 196 rmoveto
          -68 -1 -63 1 90 197 rlineto
          8 hlineto
          endchar
        </CharString>
        <CharString name="adotbelow">
          -11 -195 139 77 -21 104 91.5 197.5 112 hstem
          158 136 vstem
          465 hmoveto
          -95 505 rlineto
          -144 hlineto
          -237 -505 rlineto
          119 hlineto
          25 78 12 25 86 2 103 -2 5 -32 3 -71 rlineto
          -24 196 rmoveto
          -68 -1 -63 1 90 197 rlineto
          8 hlineto
          -56 -449 rmoveto
          -44 -27 -28 -44 -42 23 -25 43 43 27 28 45 41 -24 25 -41 hvcurveto
          endchar
        </CharString>
        <CharString name="ae">
          167 0 91 324 89 -9 9 hstemhm
          327.5 110 164.5 7 hintmask 11011000
          664 87 rmoveto
          -6 9 -136 -5 rlineto
          -83 hlineto
          -1 101 170 37 2 85 -8 7 -164 -41 -1 135 rlineto
          71 hlineto
          128 -6 rlineto
          hintmask 10111000
          20 86 -6 9 rlineto
          hintmask 11011000
          -366 hlineto
          -316 -504 rlineto
          113 hlineto
          33 75 26 42 189 48 1 -97 -6 -68 rlineto
          322 hlineto
          -318 253 rmoveto
          -121 -31 112 176 rlineto
          8 hlineto
          endchar
        </CharString>
        <CharString name="aeacute">
          167 0 91 324 89 -9 9 hstemhm
          328.5 110 163.5 7.5 hintmask 11011000
          381 561 rmoveto
          12 -1 64 37 61 38 68 44 rlinecurve
          3 12 -47 70 -13 1 -59 -54 -57 -48 -64 -50 rlinecurve
          316 -523 rmoveto
          -6 9 -136 -5 rlineto
          -83 hlineto
          -1 101 170 37 1 85 -8 7 -163 -41 -1 135 rlineto
          71 hlineto
          127 -6 rlineto
          hintmask 10111000
          20 86 -6 9 rlineto
          hintmask 11011000
          -365 hlineto
          -316 -504 rlineto
          113 hlineto
          33 75 27 42 188 48 1 -97 -6 -68 rlineto
          322 hlineto
          -318 253 rmoveto
          -121 -31 112 176 rlineto
          8 hlineto
          endchar
        </CharString>
        <CharString name="agrave">
          -11 21 -21 104 91.5 197.5 112 hstem
          -11 476 vstem
          386 561 rmoveto
          32 49 -64 50 -57 48 -60 54 rlinecurve
          -12 -1 -47 -70 3 -12 68 -44 61 -38 64 -37 rlinecurve
          91 -560 rmoveto
          -95 505 rlineto
          -144 hlineto
          -237 -505 rlineto
          119 hlineto
          25 78 12 25 86 2 103 -2 5 -32 3 -71 rlineto
          -24 196 rmoveto
          -68 -1 -63 1 90 197 rlineto
          8 hlineto
          endchar
        </CharString>
        <CharString name="ahookabove">
          -11 21 -21 104 91.5 197.5 112 83 -20 150 61 hstem
          302 70 vstem
          274 718 rmoveto
          16 12 -7 -15 -18 -19 -28 -32 -24 hvcurveto
          41 -65 47 27 -22 38 rlineto
          40 35 15 21 27 vvcurveto
          41 -34 29 -45 -36 -39 -19 -31 -29 vhcurveto
          22 -35 rlineto
          16 20 24 8 19 hhcurveto
          191 -718 rmoveto
          -95 505 rlineto
          -144 hlineto
          -237 -505 rlineto
          119 hlineto
          25 78 12 25 86 2 103 -2 5 -32 3 -71 rlineto
          -24 196 rmoveto
          -68 -1 -63 1 90 197 rlineto
          8 hlineto
          endchar
        </CharString>
        <CharString name="amacron">
          -11 21 -21 104 91.5 197.5 112 112 82 -9 9 hstemhm
          -11 476 hintmask 11110100
          172 617 rmoveto
          280 hlineto
          hintmask 11101100
          7 73 -9 9 rlineto
          hintmask 11110100
          -280 hlineto
          -7 -73 rlineto
          302 -626 rmoveto
          -95 505 rlineto
          -144 hlineto
          -237 -505 rlineto
          119 hlineto
          25 78 12 25 86 2 103 -2 5 -32 3 -71 rlineto
          -24 196 rmoveto
          -68 -1 -63 1 90 197 rlineto
          8 hlineto
          endchar
        </CharString>
        <CharString name="ampersand">
          185 -12 92 113 91 146 83 198 -20 hstem
          31 109 156 80 vstem
          684 284 rmoveto
          -203 hlineto
          -8 -10 rlineto
          -120 -1 -61 -74 -108 hhcurveto
          -76 -51 35 64 -22 hvcurveto
          233 98 247 209 60 142 -9 33 -17 27 -25 23 rrcurveto
          -11 hlineto
          -50 -111 -92 -107 -115 -87 1 12 rcurveline
          54 -42 41 -84 -130 -89 -102 -156 -167 101 -100 162 139 89 74 131 30 vhcurveto
          128 hlineto
          12 81 rlineto
          -445 156 rmoveto
          28 19 -12 -26 2 hvcurveto
          1 -19 -8 -23 -25 -19 -40 -23 -42 -21 -42 -18 rrcurveto
          99 1 40 62 66 hhcurveto
          endchar
        </CharString>
        <CharString name="aogonek">
          -11 -196 74 -53 -21 217 -21 104 91.5 197.5 112 hstemhm
          276 76 -11.5 111 hintmask 00000000
          hintmask 10111100
          450 -90 rmoveto
          -7 hlineto
          -20 -23 -20 -12 -21 hhcurveto
          -16 -11 8 19 20 12 23 51 52 hvcurveto
          50 hlineto
          -95 505 rlineto
          -144 hlineto
          -237 -505 rlineto
          119 hlineto
          25 78 12 25 86 2 rlineto
          hintmask 01111010
          103 -2 5 -32 3 -71 rlineto
          -3 hlineto
          hintmask 01111100
          -50 -59 -13 -30 -33 vvcurveto
          -45 32 -29 46 34 31 17 31 34 vhcurveto
          -135 344 rmoveto
          -68 -1 -63 1 90 197 rlineto
          8 hlineto
          endchar
        </CharString>
        <CharString name="approxequal">
          -47 90 341 hstem
          35 449 vstem
          177 332 rmoveto
          33 114 -44 -8 53 hvcurveto
          14 5 92 91 1 12 -28 43 rlineto
          -12 hlineto
          -30 -34 -25 -26 -20 hhcurveto
          -33 -115 44 9 -53 hvcurveto
          -13 -6 -92 -91 -2 -12 29 -42 rlineto
          13 hlineto
          29 32 25 26 21 hhcurveto
          -22 -186 rmoveto
          32 115 -45 -7 53 hvcurveto
          13 4 92 92 2 11 -29 43 rlineto
          -12 hlineto
          -30 -33 -25 -25 -21 hhcurveto
          -32 -115 43 9 -53 hvcurveto
          -13 -5 -93 -92 -1 -11 29 -43 rlineto
          12 hlineto
          29 33 24 27 22 hhcurveto
          endchar
        </CharString>
        <CharString name="aring">
          -11 21 -21 104 91.5 197.5 112 69 55 78 56 hstem
          217 54 82 54 vstem
          309 574 rmoveto
          59 39 35 63 56 -32 35 -61 -63 -34 -35 -60 -61 35 -33 57 hvcurveto
          2 133 rmoveto
          29 13 -15 -25 -26 -15 -12 -26 -27 -14 13 28 24 12 13 28 hvcurveto
          154 -707 rmoveto
          -95 505 rlineto
          -144 hlineto
          -237 -505 rlineto
          119 hlineto
          25 78 12 25 86 2 103 -2 5 -32 3 -71 rlineto
          -24 196 rmoveto
          -68 -1 -63 1 90 197 rlineto
          8 hlineto
          endchar
        </CharString>
        <CharString name="aringacute">
          -11 21 -21 104 91.5 197.5 112 48 55 78 56 hstem
          215 54 82 54 vstem
          221 762 rmoveto
          12 -6 72 13 71 14 80 18 rlinecurve
          6 11 -21 81 -12 5 -75 -30 -70 -25 -76 -24 rlinecurve
          7 -172 rmoveto
          -61 35 -33 57 60 38 35 63 56 -31 35 -62 -62 -35 -35 -60 vhcurveto
          136 -1 rmoveto
          -26 -15 -12 -26 -26 -15 13 28 24 13 13 27 29 13 -15 -25 vhcurveto
          114 -646 rmoveto
          -95 505 rlineto
          -144 hlineto
          -237 -505 rlineto
          119 hlineto
          25 78 12 25 86 2 103 -2 5 -32 3 -71 rlineto
          -24 196 rmoveto
          -68 -1 -63 1 90 197 rlineto
          8 hlineto
          endchar
        </CharString>
        <CharString name="arrowdown">
          3 14 -21 475 -20 25 -20 hstemhm
          223 84.5 hintmask 10110000
          478 190 rmoveto
          -16 70 rlineto
          -18 hlineto
          -139 -132 rlineto
          hintmask 11010000
          5 340 rlineto
          hintmask 10110000
          -81 5 -9 -9 6 -337 -139 133 rlineto
          -18 hlineto
          -16 -70 203 -197 rlineto
          20 hlineto
          endchar
        </CharString>
        <CharString name="arrowdownleft">
          3 54 74.5 hstem
          94.5 74 vstem
          419 126 rmoveto
          -193 5 245 237 -54 60 -13 1 -233 -242 -5 192 -12 12 -62 -38 5 -283 13 -14 283 -4 38 62 rlineto
          endchar
        </CharString>
        <CharString name="arrowdownright">
          3 50.5 74 hstem
          361.5 74.5 vstem
          438 349 rmoveto
          -62 38 -12 -12 -5 -193 -236 245 -61 -54 -1 -13 242 -233 -192 -5 -12 -12 38 -62 283 5 14 14 rlineto
          endchar
        </CharString>
        <CharString name="arrowleft">
          3 194 85 hstem
          24 480 vstem
          499 191 rmoveto
          5 81 -9 10 -336 -6 132 139 rlineto
          17 vlineto
          -70 17 -197 -204 rlineto
          -19 vlineto
          197 -203 70 17 rlineto
          17 vlineto
          -133 140 rlineto
          endchar
        </CharString>
        <CharString name="arrowright">
          3 195 84 hstem
          26 480 vstem
          506 247 rmoveto
          -197 203 -71 -17 rlineto
          -17 vlineto
          133 -140 -340 6 -5 -81 8 -9 337 6 -133 -139 rlineto
          -18 vlineto
          71 -16 197 203 rlineto
          endchar
        </CharString>
        <CharString name="arrowup">
          3 21 -21 hstem
          224 84 vstem
          478 283 rmoveto
          -203 197 rlineto
          -20 hlineto
          -202 -197 17 -71 rlineto
          17 hlineto
          140 133 -6 -340 81 -5 9 8 -6 337 139 -133 rlineto
          18 hlineto
          endchar
        </CharString>
        <CharString name="arrowupleft">
          3 343.5 74.5 hstem
          93 75.5 vstem
          468 108 rmoveto
          -241 233 191 5 12 13 -38 61 -283 -4 -14 -14 -4 -282 62 -39 13 13 5 192 236 -245 61 55 rlineto
          endchar
        </CharString>
        <CharString name="arrowupright">
          3 347.5 74.5 hstem
          361.5 74.5 vstem
          438 124 rmoveto
          -4 283 -14 13 -282 4 -39 -62 13 -12 192 -5 -244 -236 54 -61 12 -1 233 242 5 -191 13 -13 rlineto
          endchar
        </CharString>
        <CharString name="asciicircum">
          -88 405 91 hstem
          6 407 vstem
          413 146 rmoveto
          -101 350 rlineto
          -105 hlineto
          -13 -7 -188 -350 70 -27 11 5 154 288 rlineto
          8 hlineto
          79 -288 74 17 rlineto
          endchar
        </CharString>
        <CharString name="asciitilde">
          -48 182 154 hstem
          30 427 vstem
          150 238 rmoveto
          33 114 -45 -7 53 hvcurveto
          14 4 92 92 1 12 -28 42 rlineto
          -12 hlineto
          -30 -34 -24 -25 -21 hhcurveto
          -33 -114 43 10 -53 hvcurveto
          -13 -6 -93 -91 -2 -12 30 -43 rlineto
          12 hlineto
          29 32 25 27 21 hhcurveto
          endchar
        </CharString>
        <CharString name="asterisk">
          -145 516 -20 237 8 hstem
          208.5 50.5 vstem
          288 733 rmoveto
          -5 8 rlineto
          -26 -27 -4 -8 -23 hvcurveto
          3 -116 8 -7 41 4 rlineto
          -62 -10 rmoveto
          -102 66 -9 -3 rlineto
          -8 -25 -3 -28 -24 vvcurveto
          106 -32 10 4 rlineto
          83 43 rmoveto
          -4 -10 18 -37 120 10 5 7 -8 25 -13 24 -14 20 rlinecurve
          -95 -105 rmoveto
          -10 1 -30 -27 45 -119 9 -2 21 17 19 17 14 22 rlinecurve
          -127 72 rmoveto
          -37 19 -92 -82 -1 -9 23 -14 25 -13 23 -7 rlinecurve
          60 96 rlineto
          endchar
        </CharString>
        <CharString name="at">
          315 -210 74 150 -21 26 -21 466 -20 108 81 hstemhm
          29 86 103 106 412 85 hintmask 10111111
          821 311 rmoveto
          198 -138 124 -211 -268 -175 -190 -258 -249 174 -144 262 -2 vhcurveto
          36 61 -5 13 rlineto
          -229 -152 123 213 202 136 145 206 5 hvcurveto
          171 5 108 -99 -151 vvcurveto
          -119 -64 -83 -107 -17 vhcurveto
          1 24 48 346 -10 6 -70 -22 -77 20 rlineto
          -5 hlineto
          -159 -37 -75 -145 -127 vvcurveto
          hintmask 11011111
          -79 27 -53 72 -28 vhcurveto
          18 hlineto
          46 47 41 58 35 61 rrcurveto
          12 hlineto
          hintmask 10111111
          -22 -161 rlineto
          239 5 135 110 198 vvcurveto
          -471 -203 rmoveto
          -13 -13 20 66 103 39 77 69 hvcurveto
          63 -21 rlineto
          -5 vlineto
          -3 -20 rlineto
          -148 -63 -59 -72 -20 hhcurveto
          endchar
        </CharString>
        <CharString name="atilde">
          -11 21 -21 104 91.5 197.5 112 196 -20 hstem
          -11 496 vstem
          485 701 rmoveto
          -39 38 rlineto
          -11 hlineto
          -27 -25 -17 -24 -20 hhcurveto
          -26 -82 29 6 -47 hvcurveto
          -12 -4 -70 -88 rlineto
          -11 vlineto
          39 -39 rlineto
          12 hlineto
          27 24 17 25 20 hhcurveto
          26 83 -30 -6 46 hvcurveto
          12 5 70 88 rlineto
          -115 -185 rmoveto
          -144 hlineto
          -237 -505 rlineto
          119 hlineto
          25 78 12 25 86 2 103 -2 5 -32 3 -71 rlineto
          123 hlineto
          -147 196 rmoveto
          -68 -1 -63 1 90 197 rlineto
          8 hlineto
          endchar
        </CharString>
        <CharString name="b">
          -21 -4 86 -61 -21 210 85.5 122.5 87 hstemhm
          333 125 -123 129 hintmask 10111000
          370 261 rmoveto
          hintmask 01110100
          60 25 34 46 58 vvcurveto
          76 -63 39 -99 vhcurveto
          -195 hlineto
          -39 -355 -24 -150 rlineto
          hintmask 10111000
          -2 52 77 -2 35 hhcurveto
          164 86 51 101 61 -32 32 -56 20 hvcurveto
          -172 36 rmoveto
          17 121 rlineto
          hintmask 10110100
          45 hlineto
          53 22 -12 -36 -43 -20 -23 -40 -10 hvcurveto
          hintmask 10111000
          -48 -212 rmoveto
          -14 -21 1 2 -20 hvcurveto
          7 76 7 48 92 2 rlineto
          37 -9 18 -17 -29 vvcurveto
          -49 -41 -25 -65 vhcurveto
          endchar
        </CharString>
        <CharString name="b.sups">
          -204 323 61 261 -20 hstem
          261 79 vstem
          254 645 rmoveto
          -31 -31 -29 -42 -24 -46 rrcurveto
          -8 hlineto
          37 286 -86 -7 -4 -71 -51 -391 77 -12 41 -8 rlineto
          4 hlineto
          106 25 54 95 97 vvcurveto
          56 -19 31 -55 18 vhcurveto
          -122 -249 rmoveto
          4 31 rlineto
          92 44 39 51 12 hhcurveto
          8 10 -16 -48 -68 -24 -54 -45 hvcurveto
          endchar
        </CharString>
        <CharString name="backslash">
          -178 668 12 hstem
          35 304 vstem
          133 680 rmoveto
          -87 hlineto
          -11 -12 207 -783 rlineto
          89 hlineto
          8 11 rlineto
          endchar
        </CharString>
        <CharString name="bar">
          -220 -260 1063 hstem
          45 229 vstem
          274 794 rmoveto
          -8 9 -92 -8 -64 -514 -65 -529 8 -12 90 7 66 543 rlineto
          endchar
        </CharString>
        <CharString name="braceleft">
          -233 -120 79 618 80 hstemhm
          50 105 -62 105 -83 101 hintmask 11001000
          267 657 rmoveto
          -98 -54 -50 -101 hvcurveto
          -35 5 -43 -29 vvcurveto
          hintmask 11010000
          -56 -26 -31 -55 -14 vhcurveto
          -7 -60 rlineto
          41 -11 20 -24 -35 vvcurveto
          hintmask 11100000
          -48 -43 -72 -67 vvcurveto
          -65 42 -36 79 23 20 3 6 22 vhcurveto
          7 9 -3 66 rlineto
          -3 -14 -10 -2 -12 hhcurveto
          -33 -16 17 34 hvcurveto
          hintmask 11010000
          51 43 63 52 vvcurveto
          38 -19 33 -38 19 vhcurveto
          1 5 rlineto
          hintmask 11001000
          53 23 29 41 56 31 -8 42 32 vvcurveto
          54 21 27 43 12 10 -2 -3 12 vhcurveto
          19 66 -4 10 rlineto
          5 -20 -19 4 -23 hhcurveto
          endchar
        </CharString>
        <CharString name="braceright">
          -233 -120 80 618 79 hstemhm
          80 109 -83 105 -62 105 hintmask 11100000
          37 -120 rmoveto
          98 54 49 101 hvcurveto
          36 -5 42 30 vvcurveto
          hintmask 11010000
          56 26 30 55 14 vhcurveto
          7 61 rlineto
          -41 11 -20 24 35 vvcurveto
          hintmask 11001000
          47 43 73 67 vvcurveto
          64 -41 37 -80 -23 -20 -3 -6 -22 vhcurveto
          -7 -10 3 -65 rlineto
          3 14 10 2 12 hhcurveto
          33 16 -18 -34 hvcurveto
          hintmask 11010000
          -50 -43 -64 -51 vvcurveto
          -39 19 -33 38 -18 vhcurveto
          -1 -5 rlineto
          hintmask 11100000
          -53 -23 -29 -41 -56 -31 8 -43 -31 vvcurveto
          -55 -21 -26 -42 -13 -10 2 3 -12 vhcurveto
          -19 -67 4 -9 rlineto
          -6 20 19 -3 23 hhcurveto
          endchar
        </CharString>
        <CharString name="bracketleft">
          -233 648 -20 hstem
          33 306 vstem
          339 641 rmoveto
          -5 7 -209 -10 -39 -377 -53 -378 206 -10 6 7 8 59 -107 13 76 617 110 13 rlineto
          endchar
        </CharString>
        <CharString name="bracketright">
          -233 569 79 0 -20 hstemhm
          -37 306 hintmask 01100000
          -37 -119 rmoveto
          5 -8 209 10 39 378 53 377 -206 10 -7 -7 rlineto
          hintmask 10100000
          -7 -59 106 -13 -75 -617 -110 -13 rlineto
          endchar
        </CharString>
        <CharString name="breve">
          530 91 hstem
          97 297 vstem
          370 698 rmoveto
          -19 hlineto
          -51 -22 -38 -26 -49 hhcurveto
          -48 -33 26 51 -10 hvcurveto
          -19 hlineto
          -35 -44 rlineto
          -67 9 38 -57 92 hhcurveto
          81 52 55 69 25 hvcurveto
          endchar
        </CharString>
        <CharString name="breve.cap">
          542 90 hstemhm
          97 298 hintmask 00000000
          hintmask 11000000
          370 688 rmoveto
          -19 hlineto
          -36 -21 -38 -20 -46 hhcurveto
          -47 -35 20 36 -13 hvcurveto
          -19 hlineto
          -35 -41 rlineto
          -68 17 52 -37 76 hhcurveto
          70 52 37 68 31 hvcurveto
          endchar
        </CharString>
        <CharString name="breveacute">
          522 90 hstem
          94 298 vstem
          353 777 rmoveto
          -59 39 -10 -2 -30 -43 -30 -41 -31 -41 rlinecurve
          40 -32 11 2 38 35 37 36 36 36 rlinecurve
          12 -98 rmoveto
          -18 hlineto
          -36 -22 -37 -20 -47 hhcurveto
          -47 -34 20 36 -13 hvcurveto
          -19 hlineto
          -36 -41 rlineto
          -68 17 52 -37 76 hhcurveto
          70 52 37 68 31 hvcurveto
          endchar
        </CharString>
        <CharString name="brevegrave">
          521 90 hstem
          95 298 vstem
          254 657 rmoveto
          41 32 -32 41 -30 41 -30 43 rlinecurve
          -10 2 -60 -39 -1 -11 36 -36 37 -36 38 -35 rlinecurve
          125 8 rmoveto
          -19 hlineto
          -35 -21 -38 -21 -46 hhcurveto
          -47 -35 20 36 -13 hvcurveto
          -19 hlineto
          -35 -41 rlineto
          -68 17 52 -37 76 hhcurveto
          70 52 37 68 31 hvcurveto
          endchar
        </CharString>
        <CharString name="brevehookabove">
          522 91 197 61 hstem
          250 70 vstem
          241 871 rmoveto
          -37 -38 -20 -31 -29 hvcurveto
          22 -35 rlineto
          16 19 25 9 19 hhcurveto
          16 12 -7 -15 -19 -19 -27 -33 -24 hvcurveto
          42 -66 47 28 -23 38 rlineto
          41 35 15 21 27 vvcurveto
          41 -35 29 -44 vhcurveto
          126 -202 rmoveto
          -18 hlineto
          -36 -22 -37 -20 -47 hhcurveto
          -47 -34 19 37 -13 hvcurveto
          -19 hlineto
          -36 -42 rlineto
          -67 17 52 -38 76 hhcurveto
          70 52 38 67 31 hvcurveto
          endchar
        </CharString>
        <CharString name="brevetilde">
          521 86 hstem
          94 331 vstem
          425 804 rmoveto
          -35 36 rlineto
          -11 hlineto
          -26 -23 -16 -23 -19 hhcurveto
          -23 -76 28 6 -43 hvcurveto
          -12 -5 -64 -81 rlineto
          -11 vlineto
          36 -36 rlineto
          10 hlineto
          25 22 17 23 18 hhcurveto
          25 75 -28 -6 43 hvcurveto
          12 5 64 83 rlineto
          -70 -133 rmoveto
          -18 hlineto
          -35 -20 -36 -19 -45 hhcurveto
          -44 -33 19 35 -13 hvcurveto
          -18 hlineto
          -34 -40 rlineto
          -64 17 49 -36 72 hhcurveto
          67 50 36 64 30 hvcurveto
          endchar
        </CharString>
        <CharString name="brokenbar">
          -220 -260 1063 hstem
          45 229 vstem
          274 794 rmoveto
          -8 9 -93 -8 -51 -421 8 -8 90 11 rlineto
          -28 -228 rmoveto
          -9 11 -89 -10 -49 -398 9 -12 89 7 rlineto
          endchar
        </CharString>
        <CharString name="bullet">
          -244 158 171 hstem
          59 168 vstem
          147 329 rmoveto
          -55 -33 -35 -54 -52 29 -30 52 53 34 34 55 51 -30 31 -50 hvcurveto
          endchar
        </CharString>
        <CharString name="bulletoperator">
          -253 158 171 hstem
          65 168 vstem
          153 329 rmoveto
          -55 -33 -35 -54 -52 29 -30 52 53 34 34 55 51 -30 31 -50 hvcurveto
          endchar
        </CharString>
        <CharString name="c">
          -82 -8 102 317 100 hstem
          33 130 vstem
          320 511 rmoveto
          -183 -104 -113 -186 -140 75 -80 151 39 38 8 16 43 hvcurveto
          22 106 -11 6 rlineto
          -21 -34 -47 -13 -39 hhcurveto
          -73 -34 47 87 123 48 60 90 44 40 -14 -23 27 hvcurveto
          11 5 34 106 rlineto
          17 -36 -51 9 -50 hhcurveto
          endchar
        </CharString>
        <CharString name="c.sups">
          -279 324 69 191 64 hstem
          53 81 vstem
          283 631 rmoveto
          -53 17 rlineto
          -124 -53 -94 -109 -78 28 -34 68 -9 hvcurveto
          12 hlineto
          45 12 30 23 30 50 -28 35 rcurveline
          -11 hlineto
          -39 -23 -18 -12 -17 hhcurveto
          -25 -10 19 47 81 24 44 46 15 11 -7 -16 15 hvcurveto
          19 1 23 61 rlineto
          endchar
        </CharString>
        <CharString name="cacute">
          -82 -8 102 317 100 hstem
          33 130 vstem
          380 761 rmoveto
          -13 1 -59 -54 -57 -48 -64 -50 rlinecurve
          32 -49 12 -1 64 37 61 38 68 44 rlinecurve
          3 12 rlineto
          -107 -180 rmoveto
          -183 -104 -113 -186 -140 75 -80 151 40 37 8 16 43 hvcurveto
          23 106 -11 6 rlineto
          -21 -35 -47 -13 -39 hhcurveto
          -73 -34 47 87 123 49 60 89 44 40 -14 -23 27 hvcurveto
          11 5 34 106 rlineto
          17 -36 -51 9 -50 hhcurveto
          endchar
        </CharString>
        <CharString name="caron">
          524 190 hstem
          95 306 vstem
          375 714 rmoveto
          -14 hlineto
          -44 -33 -42 -31 -34 -29 -26 29 -32 31 -37 33 rrcurveto
          -13 hlineto
          -38 -49 43 -45 45 -49 37 -47 rlinecurve
          28 hlineto
          55 52 51 49 47 40 rrcurveto
          endchar
        </CharString>
        <CharString name="caron.alt">
          510 -20 220 -20 23 -20 hstemhm
          181 123 hintmask 00000000
          hintmask 11010000
          304 710 rmoveto
          -7 8 rlineto
          hintmask 10110000
          -93 -5 -23 -203 8 -7 59 9 rlineto
          endchar
        </CharString>
        <CharString name="caron.cap">
          643 -20 hstem
          99 292 vstem
          374 695 rmoveto
          -14 hlineto
          -40 -21 -40 -21 -38 -22 -34 22 -32 21 -34 21 rrcurveto
          -12 hlineto
          -31 -52 45 -33 42 -34 38 -36 rlinecurve
          27 hlineto
          42 36 47 34 51 33 rrcurveto
          endchar
        </CharString>
        <CharString name="ccaron">
          -82 -8 102 317 100 194 -20 hstem
          33 130 vstem
          434 754 rmoveto
          -14 hlineto
          -44 -33 -42 -31 -34 -29 -26 29 -32 31 -37 33 rrcurveto
          -13 hlineto
          -38 -49 43 -45 45 -49 37 -47 rlinecurve
          28 hlineto
          55 52 51 49 47 40 rrcurveto
          -140 -194 rmoveto
          -183 -104 -113 -186 -140 75 -80 151 40 37 8 16 43 hvcurveto
          23 106 -11 6 rlineto
          -21 -35 -47 -13 -39 hhcurveto
          -73 -34 47 87 123 49 60 89 44 40 -14 -23 27 hvcurveto
          11 5 34 106 rlineto
          17 -36 -51 9 -50 hhcurveto
          endchar
        </CharString>
        <CharString name="ccedilla">
          -82 -200 56 137 101 -80 -21 22 -21 417 100 hstemhm
          33 130 106 76 hintmask 10011110
          320 511 rmoveto
          -183 -104 -113 -186 -127 62 -78 124 -13 hvcurveto
          -16 -68 49 -28 rlineto
          10 -5 7 -5 -10 vvcurveto
          -14 -10 -8 -15 -20 -20 12 18 -18 vhcurveto
          -6 -2 -10 -55 rlineto
          -16 21 26 -13 35 hhcurveto
          57 36 32 43 hvcurveto
          hintmask 10101110
          23 -10 19 -31 17 vhcurveto
          -34 19 10 40 33 2 31 8 35 13 rlinecurve
          hintmask 11001110
          23 106 -11 6 rlineto
          -21 -35 -47 -13 -39 hhcurveto
          -73 -34 47 87 123 49 60 89 44 40 -14 -23 27 hvcurveto
          11 5 34 106 rlineto
          hintmask 10011110
          17 -36 -51 9 -50 hhcurveto
          endchar
        </CharString>
        <CharString name="ccircumflex">
          -82 -8 102 317 100 hstem
          33 130 vstem
          179 566 rmoveto
          13 hlineto
          45 33 41 31 33 29 26 -29 33 -31 37 -33 rrcurveto
          13 hlineto
          39 49 -43 44 -44 50 -36 47 rlinecurve
          -28 hlineto
          -56 -52 -52 -49 -47 -40 rrcurveto
          167 -104 rmoveto
          -183 -104 -113 -186 -140 75 -80 151 40 37 8 16 43 hvcurveto
          23 106 -11 6 rlineto
          -21 -35 -47 -13 -39 hhcurveto
          -73 -34 47 87 123 49 60 89 44 40 -14 -23 27 hvcurveto
          11 5 34 106 rlineto
          17 -36 -51 9 -50 hhcurveto
          endchar
        </CharString>
        <CharString name="cdotaccent">
          -82 -8 102 317 100 83 139 hstem
          33 130 75 136 vstem
          309 733 rmoveto
          -44 -27 -28 -44 -42 24 -25 42 43 27 28 44 42 -24 25 -41 hvcurveto
          11 -222 rmoveto
          -183 -104 -113 -186 -140 75 -80 151 40 37 8 16 43 hvcurveto
          23 106 -11 6 rlineto
          -21 -35 -47 -13 -39 hhcurveto
          -73 -34 47 87 123 49 60 89 44 40 -14 -23 27 hvcurveto
          11 5 34 106 rlineto
          17 -36 -51 9 -50 hhcurveto
          endchar
        </CharString>
        <CharString name="cedilla">
          -201 56 hstem
          159 76 vstem
          160 -48 rmoveto
          19 73 rlineto
          -63 hlineto
          -23 -100 49 -28 rlineto
          10 -5 7 -5 -10 vvcurveto
          -14 -10 -8 -15 -20 -20 12 18 -18 vhcurveto
          -6 -2 -10 -55 rlineto
          -16 21 26 -13 35 hhcurveto
          57 36 32 43 23 -10 19 -31 17 hvcurveto
          endchar
        </CharString>
        <CharString name="cent">
          -140 -123 11 757 10 hstem
          29 103 vstem
          255 427 rmoveto
          23 19 -9 -26 26 hvcurveto
          23 2 30 81 -6 13 -77 22 21 135 -11 10 rlineto
          -63 hlineto
          -23 -154 rlineto
          -130 -32 -58 -119 -137 vvcurveto
          -108 36 -49 78 -18 vhcurveto
          -22 -150 7 -11 rlineto
          64 hlineto
          27 168 49 21 37 33 37 60 rlinecurve
          -36 45 -15 1 rlineto
          -63 -37 -33 -17 -29 hhcurveto
          -40 -20 30 78 123 45 71 78 hvcurveto
          endchar
        </CharString>
        <CharString name="circle1">
          -68 9 -21 476 -20 hstem
          -7 476 vstem
          231 464 rmoveto
          -131 -107 -107 -131 -131 107 -107 131 131 107 107 131 131 -107 107 -131 hvcurveto
          endchar
        </CharString>
        <CharString name="circle2">
          113 649 -20 hstem
          -11 663 vstem
          320 649 rmoveto
          -183 -148 -149 -183 -183 148 -148 183 183 149 148 183 183 -149 149 -183 hvcurveto
          endchar
        </CharString>
        <CharString name="circumflex">
          526 190 hstem
          84 306 vstem
          110 526 rmoveto
          13 hlineto
          45 33 41 31 33 29 26 -29 33 -31 37 -33 rrcurveto
          13 hlineto
          39 49 -43 44 -44 50 -36 47 rlinecurve
          -28 hlineto
          -56 -52 -52 -49 -47 -40 rrcurveto
          endchar
        </CharString>
        <CharString name="circumflex.cap">
          703 -20 hstem
          94 292 vstem
          112 548 rmoveto
          13 hlineto
          39 21 41 21 39 22 33 -22 32 -21 34 -21 rrcurveto
          13 hlineto
          30 52 -45 33 -42 34 -37 36 rlinecurve
          -28 hlineto
          -42 -36 -47 -34 -51 -33 rrcurveto
          endchar
        </CharString>
        <CharString name="circumflexacute">
          529 284 hstem
          90 352 vstem
          439 784 rmoveto
          -64 29 -10 -4 -70 -123 44 -33 rlineto
          9 hlineto
          94 121 rlineto
          -212 -90 rmoveto
          -42 -36 -47 -34 -51 -33 18 -52 rcurveline
          13 hlineto
          39 21 41 21 38 22 34 -22 31 -21 35 -21 rrcurveto
          13 hlineto
          30 52 -45 33 -43 34 -37 36 rlinecurve
          endchar
        </CharString>
        <CharString name="circumflexgrave">
          528 285 hstem
          90 307 vstem
          327 809 rmoveto
          -9 4 -66 -29 -2 -10 94 -121 rlineto
          9 hlineto
          44 33 rlineto
          -167 -3 rmoveto
          -42 -36 -47 -34 -51 -33 18 -52 rcurveline
          13 hlineto
          39 21 41 21 38 22 34 -22 31 -21 35 -21 rrcurveto
          13 hlineto
          30 52 -45 33 -43 34 -37 36 rlinecurve
          endchar
        </CharString>
        <CharString name="circumflexhookabove">
          712 -20 108 57 hstem
          345 66 vstem
          336 857 rmoveto
          -34 -37 -18 -29 -28 hvcurveto
          21 -34 rlineto
          15 19 23 9 18 hhcurveto
          15 12 -7 -14 -18 -19 -27 -30 -22 hvcurveto
          39 -63 45 27 -21 36 rlineto
          38 34 14 20 24 vvcurveto
          40 -33 27 -42 vhcurveto
          -107 -173 rmoveto
          -42 -36 -47 -34 -51 -33 18 -52 rcurveline
          13 hlineto
          39 21 41 21 39 22 33 -22 32 -21 34 -21 rrcurveto
          13 hlineto
          30 52 -45 33 -42 34 -37 36 rlinecurve
          endchar
        </CharString>
        <CharString name="circumflextilde">
          529 309 hstem
          85 337 vstem
          422 802 rmoveto
          -35 36 rlineto
          -11 hlineto
          -26 -23 -16 -23 -18 hhcurveto
          -24 -76 28 6 -43 hvcurveto
          -12 -5 -64 -81 rlineto
          -11 vlineto
          36 -36 rlineto
          10 hlineto
          25 22 17 23 18 hhcurveto
          25 76 -28 -6 43 hvcurveto
          11 5 64 83 rlineto
          -197 -108 rmoveto
          -42 -35 -46 -34 -52 -33 18 -53 rcurveline
          13 hlineto
          39 22 41 20 39 22 33 -22 32 -20 34 -22 rrcurveto
          13 hlineto
          30 53 -45 33 -42 34 -37 35 rlinecurve
          endchar
        </CharString>
        <CharString name="colon">
          -298 -7 139 125 139 hstemhm
          26 136 -104 136 hintmask 11010000
          129 396 rmoveto
          -44 -27 -29 -43 -43 24 -24 42 43 27 28 44 42 -24 25 -41 hvcurveto
          hintmask 11100000
          -32 -264 rmoveto
          -44 -27 -28 -44 -42 23 -25 43 43 27 28 45 41 -24 25 -41 hvcurveto
          endchar
        </CharString>
        <CharString name="comma">
          -299 -126 255 hstem
          57 107 vstem
          120 129 rmoveto
          -34 -9 -31 -14 -29 -17 rrcurveto
          -12 vlineto
          21 -17 10 -19 -23 vvcurveto
          -35 -18 -32 -37 -30 vhcurveto
          1 -10 42 -37 rlineto
          81 57 38 55 59 vvcurveto
          33 -15 28 -29 23 vhcurveto
          endchar
        </CharString>
        <CharString name="commaaccent">
          -528 -72 -21 hstem
          120 94 vstem
          175 -48 rmoveto
          -30 -8 -27 -12 -26 -16 rrcurveto
          -9 vlineto
          18 -16 10 -17 -21 vvcurveto
          -30 -17 -29 -33 -27 vhcurveto
          1 -9 37 -33 rlineto
          72 51 34 49 52 vvcurveto
          30 -13 24 -26 21 vhcurveto
          endchar
        </CharString>
        <CharString name="copyright">
          165 -12 46 93 72 194 72 87 46 hstem
          54 46 103 91 313 46 vstem
          353 598 rmoveto
          -179 -120 -122 -183 -183 120 -122 179 180 120 122 183 183 -120 122 -180 hvcurveto
          -46 vmoveto
          152 102 -103 -156 -156 -102 -103 -152 -151 -102 103 156 156 102 103 151 hvcurveto
          22 -87 rmoveto
          -110 -62 -63 -109 -107 55 -59 111 26 28 4 10 27 hvcurveto
          7 69 -8 3 rlineto
          -9 -22 -29 -5 -23 hhcurveto
          -55 -26 34 69 64 25 27 53 22 29 -6 -11 20 hvcurveto
          5 3 16 69 rlineto
          10 -27 -30 7 -32 hhcurveto
          endchar
        </CharString>
        <CharString name="currency">
          -93 193 70 173 70 hstem
          73 71 175 69 vstem
          453 501 rmoveto
          -52 56 -13 -1 -69 -70 rlineto
          13 -19 -24 7 -26 hhcurveto
          -28 -27 -8 -14 -24 hvcurveto
          -54 69 -11 1 -63 -59 rlineto
          -12 vlineto
          61 -59 rlineto
          -19 -27 -12 -29 -33 vvcurveto
          -22 5 -23 9 -17 vhcurveto
          -75 -61 -3 -12 53 -56 12 1 67 69 rlineto
          -13 19 26 -8 26 hhcurveto
          28 28 8 15 25 hvcurveto
          53 -68 12 -1 63 59 rlineto
          12 vlineto
          -63 60 rlineto
          19 25 11 29 33 vvcurveto
          22 -4 23 -9 17 vhcurveto
          76 62 rlineto
          -209 -53 rmoveto
          46 31 -31 -45 -56 -43 -41 -56 -46 -30 31 46 55 43 41 55 hvcurveto
          endchar
        </CharString>
        <CharString name="d">
          33 -6 94 -67 -21 410 98 hstemhm
          405 129 hintmask 10110000
          107 505 rmoveto
          -39 -355 rlineto
          hintmask 01110000
          -24 -150 rlineto
          hintmask 10110000
          -3 56 93 -3 44 hhcurveto
          193 104 119 195 128 -81 72 -136 hvcurveto
          -54 -420 rmoveto
          -18 -42 4 2 -28 hvcurveto
          6 67 36 245 rlineto
          3 28 40 1 16 hhcurveto
          69 35 -37 -86 -141 -55 -58 -87 hvcurveto
          endchar
        </CharString>
        <CharString name="d.sups">
          -206 323 76 186 60 0 -20 hstemhm
          49 79 hintmask 10110000
          354 812 rmoveto
          -87 -7 -2 -71 -13 -94 -35 5 rlineto
          -4 hlineto
          -111 -25 -53 -98 -94 vvcurveto
          -54 17 -33 57 -18 vhcurveto
          13 hlineto
          31 31 28 42 24 45 rrcurveto
          7 hlineto
          -16 -116 86 6 4 73 rlineto
          -154 -5 rmoveto
          -8 -10 17 44 hvcurveto
          hintmask 11010000
          72 25 53 47 vhcurveto
          44 -9 -5 -38 rlineto
          hintmask 10110000
          -91 -43 -37 -48 -13 hhcurveto
          endchar
        </CharString>
        <CharString name="dagger">
          -27 -94 9 12 -21 418 87 173 7 0 -20 hstemhm
          52 430 -269.5 89 hintmask 01101100
          466 324 rmoveto
          16 78 -7 9 rlineto
          -160 hlineto
          hintmask 01110100
          22 173 -6 7 -84 -6 -21 -174 rlineto
          -157 hlineto
          -17 -77 8 -10 rlineto
          hintmask 10101010
          155 hlineto
          -5 -43 -45 -366 7 -9 81 5 46 378 5 35 rlineto
          endchar
        </CharString>
        <CharString name="daggerdbl">
          -28 -94 9 154 87 179 87 162 7 hstemhm
          212.5 89.5 hintmask 00000000
          hintmask 11111000
          299 289 rmoveto
          6 46 rlineto
          162 hlineto
          16 78 -8 9 rlineto
          -159 hlineto
          21 162 -6 7 -84 -6 -20 -163 rlineto
          -157 hlineto
          -17 -78 8 -9 rlineto
          155 hlineto
          -7 -54 -15 -125 rlineto
          -157 hlineto
          -16 -77 7 -10 rlineto
          156 hlineto
          -19 -154 7 -9 80 5 20 158 rlineto
          163 hlineto
          15 79 -7 8 rlineto
          -161 hlineto
          endchar
        </CharString>
        <CharString name="dcaron">
          33 -6 94 -67 -21 410 98 197 -20 hstemhm
          404 129 hintmask 10111000
          317 564 rmoveto
          55 52 51 49 47 40 -26 49 rcurveline
          -14 hlineto
          -44 -33 -42 -31 -34 -29 -26 29 -32 31 -37 33 rrcurveto
          -13 hlineto
          -38 -49 43 -45 45 -49 37 -47 rlinecurve
          -183 -59 rmoveto
          -39 -355 rlineto
          hintmask 01111000
          -23 -150 rlineto
          hintmask 10111000
          -3 55 93 -3 45 hhcurveto
          193 103 119 195 128 -81 72 -135 hvcurveto
          -54 -420 rmoveto
          -17 -42 3 3 -29 hvcurveto
          6 67 35 245 rlineto
          3 28 40 1 17 hhcurveto
          69 34 -37 -86 -141 -54 -58 -87 hvcurveto
          endchar
        </CharString>
        <CharString name="dcroat">
          33 -6 94 -67 -21 410 98 109 82 -9 9 hstemhm
          404 129 hintmask 10110100
          178 617 rmoveto
          280 hlineto
          hintmask 10101100
          7 73 -9 9 rlineto
          hintmask 01110100
          -280 hlineto
          -7 -73 rlineto
          -63 -121 rmoveto
          -39 -355 -23 -150 rlineto
          hintmask 10110100
          -3 55 93 -3 45 hhcurveto
          193 103 119 195 128 -81 72 -135 hvcurveto
          -54 -420 rmoveto
          -17 -42 3 3 -29 hvcurveto
          6 67 35 245 rlineto
          3 28 40 1 17 hhcurveto
          69 34 -37 -86 -141 -54 -58 -87 hvcurveto
          endchar
        </CharString>
        <CharString name="degree">
          -235 394 57 145 56 hstem
          51 57 148 57 vstem
          198 652 rmoveto
          -78 -69 -64 -78 -65 49 -51 67 77 69 64 79 65 -48 50 -67 hvcurveto
          -7 -56 rmoveto
          38 27 -28 -37 -45 -38 -35 -45 -38 -27 28 37 45 38 35 45 hvcurveto
          endchar
        </CharString>
        <CharString name="dieresis">
          554 126 hstem
          93 123 52 122 vstem
          158 680 rmoveto
          -40 -25 -25 -40 -39 21 -22 39 39 24 25 41 37 -22 23 -36 hvcurveto
          174 -1 rmoveto
          -40 -24 -25 -40 -39 21 -22 38 39 24 26 40 37 -21 23 -37 hvcurveto
          endchar
        </CharString>
        <CharString name="dieresis.i">
          553 126 hstemhm
          105 123 28 123 hintmask 11000000
          169 679 rmoveto
          -40 -24 -25 -40 -39 21 -22 39 38 25 26 40 37 -22 23 -37 hvcurveto
          hintmask 11100000
          152 hmoveto
          -41 -24 -25 -40 -39 21 -22 39 38 25 26 40 37 -22 23 -36 hvcurveto
          endchar
        </CharString>
        <CharString name="dieresisacute">
          536 122 hstem
          92 120 53 120 vstem
          354 837 rmoveto
          -11 5 -75 -28 -70 -23 -78 -23 rlinecurve
          12 -57 12 -6 73 11 71 12 80 16 rlinecurve
          6 12 rlineto
          -219 -98 rmoveto
          -39 -24 -25 -38 -37 21 -22 37 39 23 25 39 37 -21 21 -36 hvcurveto
          173 hmoveto
          -39 -24 -25 -38 -37 21 -22 37 39 23 25 39 37 -21 21 -36 hvcurveto
          endchar
        </CharString>
        <CharString name="dieresiscaron">
          536 122 hstem
          96 121 52 120 vstem
          381 828 rmoveto
          -13 hlineto
          -40 -22 -40 -20 -39 -22 -33 22 -33 20 -33 22 rrcurveto
          -13 hlineto
          -30 -53 44 -33 43 -34 37 -35 rlinecurve
          28 hlineto
          41 35 47 34 52 33 rrcurveto
          -240 -117 rmoveto
          -39 -24 -25 -38 -37 22 -22 37 38 24 25 39 37 -22 21 -36 hvcurveto
          173 hmoveto
          -39 -24 -25 -38 -37 21 -22 37 39 23 25 39 37 -21 21 -36 hvcurveto
          endchar
        </CharString>
        <CharString name="dieresisgrave">
          536 122 hstem
          91 121 52 121 vstem
          163 837 rmoveto
          -30 -81 6 -12 77 -16 70 -12 71 -11 rlinecurve
          13 6 18 57 -73 23 -69 23 -71 28 rlinecurve
          -17 -184 rmoveto
          -41 -26 -26 -40 -36 20 -20 35 41 25 27 40 35 -20 20 -34 hvcurveto
          172 hmoveto
          -40 -26 -26 -40 -36 19 -20 36 40 26 27 40 35 -20 20 -35 hvcurveto
          endchar
        </CharString>
        <CharString name="dieresismacron">
          536 122 58 82 hstem
          101 120 53 120 vstem
          406 789 rmoveto
          -9 9 rlineto
          -278 hlineto
          -7 -73 10 -9 rlineto
          277 hlineto
          -235 -58 rmoveto
          -39 -24 -25 -38 -37 21 -22 37 39 23 25 39 37 -21 21 -36 hvcurveto
          173 hmoveto
          -39 -24 -25 -38 -37 21 -22 37 39 23 25 39 37 -21 21 -36 hvcurveto
          endchar
        </CharString>
        <CharString name="divide">
          -51 31 124 62 88 66 123 hstemhm
          161 120 -79 121 hintmask 01101000
          265 494 rmoveto
          -39 -24 -25 -39 -38 21 -21 37 39 24 25 39 37 -22 22 -36 hvcurveto
          194 -198 rmoveto
          -9 9 rlineto
          -417 hlineto
          -6 -79 8 -9 rlineto
          417 hlineto
          hintmask 11110000
          -228 -62 rmoveto
          -39 -24 -25 -39 -38 21 -22 37 38 24 25 40 36 -21 23 -36 hvcurveto
          endchar
        </CharString>
        <CharString name="divisionslash">
          -244 -115 11 772 12 hstem
          -26 358 vstem
          332 668 rmoveto
          -9 12 rlineto
          -88 hlineto
          -261 -784 7 -11 rlineto
          90 hlineto
          endchar
        </CharString>
        <CharString name="dollar">
          -82 -134 10 116 89 -68 -21 519 -20 141 11 hstemhm
          63 124 75 123 hintmask 10111110
          187 368 rmoveto
          26 23 25 40 32 39 -15 -32 37 vhcurveto
          19 5 30 109 -31 13 -38 9 -38 3 rlinecurve
          15 121 -11 11 rlineto
          -63 hlineto
          -15 -135 rlineto
          -103 -16 -60 -71 -81 vvcurveto
          hintmask 11011110
          -144 199 12 -73 vvcurveto
          -28 -28 -26 -40 -40 -57 24 41 -40 vhcurveto
          -14 -8 -28 -115 48 -21 56 -9 43 -1 rlinecurve
          -13 -116 9 -10 rlineto
          64 hlineto
          16 133 rlineto
          100 22 47 75 69 vvcurveto
          hintmask 10111110
          143 -198 -11 71 vvcurveto
          endchar
        </CharString>
        <CharString name="dotaccent">
          554 139 hstem
          174 136 vstem
          245 693 rmoveto
          -44 -27 -28 -44 -42 24 -25 42 43 27 28 44 42 -24 25 -41 hvcurveto
          endchar
        </CharString>
        <CharString name="dotbelowcomb">
          -528 -195 139 hstem
          82 136 vstem
          153 -56 rmoveto
          -44 -27 -28 -44 -42 23 -25 43 43 27 28 45 41 -24 25 -41 hvcurveto
          endchar
        </CharString>
        <CharString name="dotlessi">
          -253 21 -21 505 -20 hstem
          45 186 vstem
          182 161 rmoveto
          49 344 rlineto
          -124 hlineto
          -38 -355 -24 -150 rlineto
          122 hlineto
          endchar
        </CharString>
        <CharString name="dotlessj">
          -214 -67 -21 501 92 hstemhm
          -5 265 -165 114 hintmask 11100000
          260 505 rmoveto
          hintmask 11010000
          -210 hlineto
          -18 -85 6 -8 89 2 -28 -260 -8 -56 -6 -52 -25 -28 -64 -30 rlinecurve
          -1 -10 32 -66 123 47 44 48 11 88 rlinecurve
          8 71 rlineto
          endchar
        </CharString>
        <CharString name="down">
          -108 72 296 hstem
          62 296 vstem
          210 72 rmoveto
          148 296 rlineto
          -296 hlineto
          endchar
        </CharString>
        <CharString name="e">
          -82 0 96 111.5 96 105.5 96 hstem
          44 410 vstem
          217 409 rmoveto
          92 hlineto
          125 -5 20 91 -5 10 rlineto
          -342 hlineto
          -39 -355 -24 -150 rlineto
          338 hlineto
          19 91 -6 9 -134 -4 rlineto
          -86 hlineto
          6 65 7 46 82 1 93 -3 18 92 -5 9 -85 -3 -89 1 rlineto
          endchar
        </CharString>
        <CharString name="e.sups">
          -251 323 63 209 54 hstem
          53 80 92 76 vstem
          257 436 rmoveto
          -11 1 rlineto
          -34 -21 -24 -17 -26 hhcurveto
          -27 -12 17 45 -3 hvcurveto
          120 34 48 41 53 vvcurveto
          41 -28 24 -43 8 vhcurveto
          -9 hlineto
          -101 -5 -67 -79 -119 vvcurveto
          -1 -71 30 -44 78 -8 rrcurveto
          9 hlineto
          43 10 40 25 33 44 rrcurveto
          -84 193 rmoveto
          17 7 -9 -15 -31 -30 -24 -61 -19 hvcurveto
          62 6 25 36 36 hhcurveto
          endchar
        </CharString>
        <CharString name="eacute">
          -82 0 96 111.5 96 105.5 96 -10 10 hstemhm
          44 411 hintmask 11101000
          202 561 rmoveto
          12 -1 64 37 61 38 68 44 rlinecurve
          3 12 -47 70 -13 1 -59 -54 -57 -48 -64 -50 rlinecurve
          46 -201 rmoveto
          94 hlineto
          125 -5 rlineto
          hintmask 11011000
          20 91 -6 10 rlineto
          hintmask 11101000
          -343 hlineto
          -38 -355 -24 -150 rlineto
          338 hlineto
          20 91 -7 9 -133 -4 rlineto
          -87 hlineto
          6 65 7 46 82 1 93 -3 18 92 -5 9 -85 -3 -90 1 rlineto
          endchar
        </CharString>
        <CharString name="ebreve">
          -82 0 96 111.5 96 105.5 96 -10 10 65 91 hstemhm
          44 411 hintmask 11101100
          278 570 rmoveto
          81 52 55 69 25 hvcurveto
          -24 44 rlineto
          -19 hlineto
          -51 -22 -38 -26 -49 hhcurveto
          -48 -33 26 51 -10 hvcurveto
          -19 hlineto
          -35 -44 rlineto
          -67 9 38 -57 92 hhcurveto
          -62 -161 rmoveto
          94 hlineto
          125 -5 rlineto
          hintmask 11011100
          20 91 -6 10 rlineto
          hintmask 11101100
          -343 hlineto
          -38 -355 -24 -150 rlineto
          338 hlineto
          20 91 -7 9 -133 -4 rlineto
          -87 hlineto
          6 65 7 46 82 1 93 -3 18 92 -5 9 -85 -3 -90 1 rlineto
          endchar
        </CharString>
</ttFont>
